<?xml version="1.0" encoding="utf-8"?>
<!-- Generator: Adobe Illustrator 25.3.1, SVG Export Plug-In . SVG Version: 6.00 Build 0)  -->
<svg version="1.1" id="Layer_1" xmlns="http://www.w3.org/2000/svg" xmlns:xlink="http://www.w3.org/1999/xlink" x="0px" y="0px"
	 viewBox="0 0 1432.2 144.7" style="enable-background:new 0 0 1432.2 144.7;" xml:space="preserve">
<style type="text/css">
	.st0{clip-path:url(#SVGID_2_);}
	.st1{fill-rule:evenodd;clip-rule:evenodd;fill:#FCFBF9;}
	.st2{fill-rule:evenodd;clip-rule:evenodd;fill:#F7F6F4;}
</style>
<g>
	<defs>
		<rect id="SVGID_1_" x="-4.9" width="1442.1" height="144.7"/>
	</defs>
	<clipPath id="SVGID_2_">
		<use xlink:href="#SVGID_1_"  style="overflow:visible;"/>
	</clipPath>
	<g id="high-frame-copy" class="st0">
		<g id="Group-92">
			<path id="Rectangle" class="st1" d="M-10.5-39.3h1450v97.8c-29.4,7-50.7,12.2-63.8,15.4c-36.6,9-67.6,16.7-88.8,17.9
				c-22,1.2-59.1,6.9-95.6,6.8c-53.2-0.2-111.6-8.9-147-14C942.6,70,826.3,23.2,690.5,29.5c-77.3,3.6-219.7,64-364.2,87.8
				c-68.8,11.4-181.1,0.5-336.8-32.7V-39.3z"/>
			<path id="Combined-Shape" class="st2" d="M711,14.7c97.3,0,294.6,68.1,449.8,78.2c69.1,4.5,162-7.6,278.7-36.3v3
				c-116,33.9-208.6,48.4-277.8,43.6C1006.3,92.4,812,44.8,714.5,44.8c-103.5,0-253.6,87.1-420.7,99.3c-3.9,0.3-7.9,0.5-12,0.7l0,0
				l-43.3,0c-61.2-2.1-143.1-12.2-245.9-30.5l-3.1-0.6V56.6C135.8,85.1,240.6,97.2,304,92.9C470.8,81.6,607.6,14.7,711,14.7z"/>
		</g>
	</g>
</g>
</svg>
