<?xml version="1.0" encoding="UTF-8"?>
<svg width="32px" height="30px" viewBox="0 0 32 30" version="1.1" xmlns="http://www.w3.org/2000/svg" xmlns:xlink="http://www.w3.org/1999/xlink">
    <title>linkedin</title>
    <g id="high-frame" stroke="none" stroke-width="1" fill="none" fill-rule="evenodd">
        <g id="Desktop-HD-Copy" transform="translate(-178.000000, -4173.000000)" fill="#E78837" fill-rule="nonzero">
            <g id="linkedin" transform="translate(178.069384, 4173.000000)">
                <path d="M0,6 L0,24 C4.05812251e-16,27.3137085 2.6862915,30 6,30 L24.0520382,30 C27.3657467,30 30.0520382,27.3137085 30.0520382,24 L30.0520382,6 C30.0520382,2.6862915 27.3657467,-6.08718376e-16 24.0520382,0 L6,0 C2.6862915,6.08718376e-16 -4.05812251e-16,2.6862915 0,6 Z M9.22799243,24.7490076 C9.22799243,25.1310751 8.91773301,25.4407973 8.53500278,25.4407973 L5.58598856,25.4407973 C5.20325833,25.4407973 4.8929989,25.1310751 4.8929989,24.7490076 L4.8929989,12.1900858 C4.8929989,11.8080183 5.20325833,11.4982961 5.58598856,11.4982961 L8.53500278,11.4982961 C8.91773301,11.4982961 9.22799243,11.8080183 9.22799243,12.1900858 L9.22799243,24.7490076 Z M7.05571484,9.57742616 C5.7165547,9.60448159 4.53967903,8.48790185 4.53994275,7.06357478 C4.53994275,5.68216777 5.67956096,4.55518716 7.07266206,4.55630541 C8.44907971,4.55742532 9.58427972,5.69230533 9.58131812,7.07318572 C9.57801519,8.51903864 8.37601543,9.60889209 7.05571484,9.57742616 Z M25.5121613,25.1564849 C25.5121613,25.3151311 25.3832437,25.443628 25.2243223,25.443628 L21.455577,25.4427063 C21.2967215,25.4426405 21.1679358,25.3140778 21.1679358,25.1554974 L21.1679358,17.4004621 C21.1679358,16.7301325 20.8958571,16.1229322 20.455625,15.6837257 C20.00959,15.2381997 19.3907197,14.9651439 18.708083,14.9728458 C17.3708352,14.9879205 16.3042154,16.0964034 16.3042154,17.4314014 L16.3042154,25.1545758 C16.3042154,25.3132221 16.1753638,25.4417847 16.0164424,25.4417189 L12.2569949,25.4407973 C12.0981394,25.4407315 11.9694197,25.3121688 11.9694197,25.1536542 L11.9694197,11.785505 C11.9694197,11.6269247 12.0982054,11.4982961 12.2571268,11.4982961 L15.9363882,11.4982961 C16.0952436,11.4982961 16.2240953,11.6268588 16.2240953,11.785505 L16.2240953,13.3270723 C16.224425,13.326414 16.2389323,13.3282572 16.2635948,13.3320095 C16.3346808,13.2036443 16.4120973,13.0792946 16.4957124,12.9595529 C17.2624917,11.8610101 18.537292,11.1422967 19.9802456,11.1422967 L20.736606,11.1422967 C23.3740419,11.1422967 25.5121613,13.2766478 25.5121613,15.9095826 L25.5121613,25.1564849 L25.5121613,25.1564849 Z" id="Shape"></path>
            </g>
        </g>
    </g>
</svg>