<?xml version="1.0" encoding="UTF-8"?>
<svg width="30px" height="30px" viewBox="0 0 30 30" version="1.1" xmlns="http://www.w3.org/2000/svg" xmlns:xlink="http://www.w3.org/1999/xlink">
    <title>Combined Shape</title>
    <g id="mobile-copy" stroke="none" stroke-width="1" fill="none" fill-rule="evenodd">
        <path d="M24,0 C27.3137085,-6.08718376e-16 30,2.6862915 30,6 L30,24 C30,27.3137085 27.3137085,30 24,30 L6,30 C2.6862915,30 4.05812251e-16,27.3137085 0,24 L0,6 C-4.05812251e-16,2.6862915 2.6862915,6.08718376e-16 6,0 L24,0 Z M15,6.66666667 C10.3983333,6.66666667 6.66666667,10.3983333 6.66666667,15 C6.66666667,19.6016667 10.3983333,23.3333333 15,23.3333333 C19.6016667,23.3333333 23.3333333,19.6016667 23.3333333,15 C23.3333333,10.3983333 19.6016667,6.66666667 15,6.66666667 Z M15,10 C17.7614237,10 20,12.2385763 20,15 C20,17.7614237 17.7614237,20 15,20 C12.2385763,20 10,17.7614237 10,15 C10,12.2385763 12.2385763,10 15,10 Z M25,4.33333333 C24.08,4.33333333 23.3333333,5.08 23.3333333,6 C23.3333333,6.92 24.08,7.66666667 25,7.66666667 C25.92,7.66666667 26.6666667,6.92 26.6666667,6 C26.6666667,5.08 25.92,4.33333333 25,4.33333333 Z" id="Combined-Shape" fill="#E78837"></path>
    </g>
</svg>