<svg width="18" height="12" viewBox="0 0 18 12" fill="none" xmlns="http://www.w3.org/2000/svg">
<path d="M17.2148 7.36364H0.195914C0.0883084 7.36364 0.000267241 7.425 0.000267241 7.5V8.52273C0.000267241 8.59773 0.0883084 8.65909 0.195914 8.65909H14.9966L11.4676 11.7784C11.3674 11.867 11.4578 12 11.6217 12H13.3948C13.5146 12 13.6271 11.9625 13.7029 11.896L17.831 8.24659C18.2346 7.88864 17.8702 7.36364 17.2148 7.36364ZM17.8041 3.34091H3.00345L6.53243 0.221591C6.6327 0.132955 6.54221 0 6.37836 0H4.60531C4.48547 0 4.37298 0.0375001 4.29716 0.103977L0.169013 3.75341C-0.234509 4.11136 0.129883 4.63636 0.782855 4.63636H17.8041C17.9118 4.63636 17.9998 4.575 17.9998 4.5V3.47727C17.9998 3.40227 17.9118 3.34091 17.8041 3.34091Z" fill="#242528"/>
</svg>
