<svg width="145" viewBox="0 0 152 64" fill="none" xmlns="http://www.w3.org/2000/svg">
<g clip-path="url(#clip0)">
<path d="M150.607 52.2495C150.607 52.0277 150.68 51.8799 150.827 51.7321C150.973 51.5843 151.12 51.5104 151.34 51.5104C151.487 51.5104 151.707 51.5843 151.853 51.7321C152 51.8799 152.073 52.0277 152.073 52.2495V52.7668C152.073 52.9885 152 53.1363 151.853 53.2841C151.707 53.4319 151.56 53.5058 151.34 53.5058C151.12 53.5058 150.973 53.4319 150.827 53.2841C150.68 53.1363 150.607 52.9885 150.607 52.7668V52.2495ZM150.607 55.5012C150.607 55.2795 150.68 55.1317 150.827 54.9839C150.973 54.8361 151.12 54.7622 151.34 54.7622C151.487 54.7622 151.707 54.8361 151.853 54.9839C152 55.1317 152.073 55.2795 152.073 55.5012V63.261C152.073 63.4827 152 63.6305 151.853 63.7783C151.707 63.9261 151.56 64 151.34 64C151.12 64 150.973 63.9261 150.827 63.7783C150.68 63.6305 150.607 63.4827 150.607 63.261V55.5012ZM142.835 55.5012C142.835 55.2795 142.908 55.1317 143.055 54.9839C143.201 54.8361 143.348 54.7622 143.568 54.7622C143.788 54.7622 143.934 54.8361 144.081 54.9839C144.228 55.1317 144.301 55.2795 144.301 55.5012V60.6744C144.301 60.8961 144.374 61.1917 144.448 61.4134C144.521 61.6351 144.668 61.8569 144.888 62.0047C145.034 62.1525 145.254 62.3003 145.474 62.4481C145.694 62.522 145.987 62.5959 146.207 62.5959C146.427 62.5959 146.721 62.522 146.941 62.4481C147.161 62.3742 147.381 62.2264 147.527 62.0047C147.674 61.8569 147.821 61.6351 147.967 61.4134C148.041 61.1917 148.114 60.97 148.114 60.6744V55.5012C148.114 55.2795 148.187 55.1317 148.334 54.9839C148.48 54.8361 148.627 54.7622 148.847 54.7622C148.994 54.7622 149.214 54.8361 149.36 54.9839C149.507 55.1317 149.58 55.2795 149.58 55.5012V60.6744C149.58 61.1178 149.507 61.5612 149.287 61.9308C149.14 62.3003 148.847 62.6698 148.554 62.9654C148.26 63.261 147.894 63.4827 147.527 63.7044C147.161 63.8522 146.721 63.9261 146.281 63.9261C145.841 63.9261 145.401 63.8522 144.961 63.7044C144.594 63.5566 144.228 63.261 143.934 62.9654C143.641 62.6698 143.421 62.3003 143.201 61.9308C143.055 61.5612 142.981 61.1178 142.981 60.6744V55.5012H142.835ZM133.962 55.7968C133.962 55.7229 133.889 55.649 133.889 55.5012C133.889 55.3534 133.962 55.1317 134.036 54.9839C134.182 54.8361 134.329 54.7622 134.549 54.7622C134.696 54.7622 134.769 54.7622 134.916 54.8361C135.062 54.91 135.136 54.9839 135.209 55.1317L137.922 61.4873L140.635 55.1317C140.781 54.8361 140.928 54.6883 141.295 54.6883C141.515 54.6883 141.661 54.7622 141.808 54.91C141.955 55.0578 141.955 55.2056 141.955 55.4273C141.955 55.5012 141.955 55.649 141.881 55.7229L138.582 63.5566C138.435 63.8522 138.215 64 137.922 64C137.629 64 137.409 63.8522 137.262 63.5566L133.962 55.7968ZM124.65 51.8799C124.724 51.806 124.87 51.806 124.944 51.806C125.09 51.806 125.237 51.8799 125.31 51.9538L126.483 52.8407C126.703 52.9885 126.777 53.2102 126.777 53.4319C126.777 53.6536 126.703 53.8014 126.557 53.9492C126.41 54.097 126.263 54.1709 126.043 54.1709C125.897 54.1709 125.75 54.097 125.677 54.0231L124.87 53.4319L124.064 54.0231C123.917 54.097 123.844 54.1709 123.697 54.1709C123.477 54.1709 123.33 54.097 123.184 53.9492C123.037 53.8014 122.964 53.6536 122.964 53.4319C122.964 53.2102 123.037 52.9885 123.257 52.8407L124.65 51.8799ZM125.017 50.4019C124.944 50.328 124.944 50.1802 124.944 50.0324C124.944 49.8107 125.017 49.6629 125.164 49.515C125.31 49.3672 125.457 49.2933 125.677 49.2933C125.897 49.2933 126.117 49.3672 126.263 49.5889L126.997 50.9192C127.07 51.067 127.07 51.1409 127.07 51.2887C127.07 51.5104 126.997 51.6582 126.85 51.806C126.703 51.9538 126.557 52.0278 126.337 52.0278C126.043 52.0278 125.897 51.9538 125.75 51.7321L125.017 50.4019ZM123.11 58.679H126.923V58.0878C126.923 57.8661 126.85 57.5705 126.777 57.3488C126.703 57.1271 126.557 56.9054 126.337 56.7575C126.19 56.6097 125.97 56.4619 125.75 56.3141C125.53 56.2402 125.237 56.1663 125.017 56.1663C124.724 56.1663 124.504 56.2402 124.284 56.3141C124.064 56.388 123.844 56.5358 123.697 56.7575C123.55 56.9054 123.404 57.1271 123.257 57.3488C123.184 57.5705 123.11 57.7922 123.11 58.0878V58.679ZM121.717 58.0878C121.717 57.6444 121.791 57.201 121.937 56.8314C122.084 56.4619 122.377 56.0924 122.671 55.7968C122.964 55.5012 123.33 55.2795 123.697 55.0578C124.064 54.91 124.504 54.8361 125.017 54.8361C125.457 54.8361 125.897 54.91 126.263 55.0578C126.703 55.2056 126.997 55.5012 127.29 55.7968C127.583 56.0924 127.803 56.4619 128.023 56.8314C128.17 57.201 128.316 57.6444 128.316 58.0878V59.4181C128.316 59.6398 128.243 59.7876 128.096 59.9354C127.95 60.0832 127.803 60.1571 127.583 60.1571H123.037V60.8222C123.037 61.0439 123.11 61.3395 123.184 61.5612C123.257 61.783 123.404 62.0047 123.624 62.1525C123.77 62.3003 123.99 62.4481 124.21 62.5959C124.43 62.6698 124.724 62.7437 124.944 62.7437C125.31 62.7437 125.677 62.6698 125.97 62.4481C126.263 62.2264 126.483 62.0047 126.703 61.6351V61.5612C126.777 61.4134 126.85 61.3395 126.923 61.2656C127.07 61.1917 127.143 61.1178 127.29 61.1178C127.51 61.1178 127.657 61.1917 127.803 61.3395C127.95 61.4873 128.023 61.6351 128.023 61.8569C128.023 61.9308 128.023 62.0047 127.95 62.1525V62.2264C127.73 62.8176 127.29 63.261 126.777 63.6305C126.263 64 125.603 64.1479 124.944 64.1479C124.504 64.1479 124.064 64.0739 123.697 63.9261C123.33 63.7783 122.964 63.4827 122.671 63.1871C122.377 62.8915 122.157 62.522 121.937 62.1525C121.791 61.7829 121.644 61.3395 121.644 60.8961V58.0878H121.717ZM112.992 55.7968C112.992 55.7229 112.918 55.649 112.918 55.5012C112.918 55.3534 112.992 55.1317 113.065 54.9839C113.212 54.8361 113.358 54.7622 113.578 54.7622C113.725 54.7622 113.798 54.7622 113.945 54.8361C114.092 54.91 114.165 54.9839 114.238 55.1317L116.951 61.4873L119.664 55.1317C119.811 54.8361 119.958 54.6883 120.324 54.6883C120.544 54.6883 120.691 54.7622 120.837 54.91C120.984 55.0578 120.984 55.2056 120.984 55.4273C120.984 55.5012 120.984 55.649 120.911 55.7229L117.611 63.5566C117.465 63.8522 117.245 64 116.951 64C116.658 64 116.438 63.8522 116.291 63.5566L112.992 55.7968ZM100.6 58.0878C100.6 57.6444 100.673 57.201 100.82 56.8314C100.967 56.4619 101.26 56.0924 101.553 55.7968C101.847 55.5012 102.213 55.2795 102.58 55.0578C102.946 54.91 103.386 54.8361 103.9 54.8361C104.34 54.8361 104.78 54.91 105.146 55.0578C105.586 55.2056 105.879 55.5012 106.173 55.7968C106.466 56.0924 106.686 56.4619 106.906 56.8314C107.053 57.201 107.199 57.6444 107.199 58.0878V63.261C107.199 63.4827 107.126 63.6305 106.979 63.7783C106.833 63.9261 106.686 64 106.466 64C106.246 64 106.099 63.9261 105.953 63.7783C105.806 63.6305 105.733 63.4827 105.733 63.261V58.0878C105.733 57.8661 105.659 57.5705 105.586 57.3488C105.513 57.1271 105.366 56.9054 105.146 56.7575C105 56.6097 104.78 56.4619 104.56 56.3141C104.34 56.2402 104.046 56.1663 103.826 56.1663C103.533 56.1663 103.313 56.2402 103.093 56.3141C102.873 56.388 102.653 56.5358 102.507 56.7575C102.36 56.9054 102.213 57.1271 102.067 57.3488C101.993 57.5705 101.92 57.7922 101.92 58.0878V63.261C101.92 63.4827 101.847 63.6305 101.7 63.7783C101.553 63.9261 101.407 64 101.187 64C100.967 64 100.82 63.9261 100.673 63.7783C100.527 63.6305 100.453 63.4827 100.453 63.261V58.0878H100.6ZM94.2209 60.6744C94.2209 60.8961 94.2943 61.1917 94.3676 61.4134C94.4409 61.6351 94.5876 61.8569 94.8075 62.0047C94.9542 62.1525 95.1741 62.3003 95.3941 62.4481C95.6141 62.522 95.9074 62.5959 96.1274 62.5959C96.3473 62.5959 96.6406 62.522 96.8606 62.4481C97.0806 62.3742 97.3005 62.2264 97.4472 62.0786C97.5938 61.9308 97.7405 61.709 97.8871 61.4873C97.9604 61.2656 98.0338 61.0439 98.0338 60.7483V58.0139C98.0338 57.7922 97.9604 57.4966 97.8871 57.2749C97.8138 57.0532 97.6671 56.8314 97.4472 56.6836C97.3005 56.5358 97.0806 56.388 96.8606 56.2402C96.6406 56.1663 96.3473 56.0924 96.1274 56.0924C95.8341 56.0924 95.6141 56.1663 95.3941 56.2402C95.1741 56.3141 94.9542 56.4619 94.8075 56.6836C94.6609 56.8314 94.5142 57.0532 94.3676 57.2749C94.2943 57.4966 94.2209 57.7183 94.2209 58.0139V60.6744ZM92.8278 58.0878C92.8278 57.6444 92.9011 57.201 93.0478 56.8314C93.1944 56.4619 93.4877 56.0924 93.781 55.7968C94.0743 55.5012 94.4409 55.2795 94.8075 55.0578C95.1741 54.91 95.6141 54.8361 96.1274 54.8361C96.5673 54.8361 97.0072 54.91 97.3739 55.0578C97.8138 55.2056 98.1071 55.5012 98.4004 55.7968C98.6937 56.0924 98.9136 56.4619 99.1336 56.8314C99.2803 57.201 99.4269 57.6444 99.4269 58.0878V63.261C99.4269 63.4827 99.3536 63.6305 99.2069 63.7783C99.0603 63.9261 98.9137 64 98.6937 64C98.547 64 98.4004 63.9261 98.2537 63.8522C98.1071 63.7783 98.0338 63.6305 98.0338 63.4827C97.4472 63.9261 96.8606 64.0739 96.1274 64.0739C95.6874 64.0739 95.2475 64 94.8808 63.8522C94.5142 63.7044 94.1476 63.4088 93.8543 63.1132C93.561 62.8176 93.341 62.4481 93.1211 62.0786C92.9744 61.709 92.8278 61.2656 92.8278 60.8222V58.0878ZM85.4221 52.2495C85.4221 52.0277 85.4954 51.8799 85.6421 51.7321C85.7887 51.5843 85.9354 51.5104 86.1553 51.5104C86.302 51.5104 86.5219 51.5843 86.6686 51.7321C86.8152 51.8799 86.8886 52.0277 86.8886 52.2495V52.7668C86.8886 52.9885 86.8152 53.1363 86.6686 53.2841C86.5219 53.4319 86.3753 53.5058 86.1553 53.5058C85.9354 53.5058 85.7887 53.4319 85.6421 53.2841C85.4954 53.1363 85.4221 52.9885 85.4221 52.7668V52.2495ZM85.4221 55.5012C85.4221 55.2795 85.4954 55.1317 85.6421 54.9839C85.7887 54.8361 85.9354 54.7622 86.1553 54.7622C86.302 54.7622 86.5219 54.8361 86.6686 54.9839C86.8152 55.1317 86.8886 55.2795 86.8886 55.5012V63.261C86.8886 63.4827 86.8152 63.6305 86.6686 63.7783C86.5219 63.9261 86.3753 64 86.1553 64C85.9354 64 85.7887 63.9261 85.6421 63.7783C85.4954 63.6305 85.4221 63.4827 85.4221 63.261V55.5012ZM82.7824 54.097H79.1896C78.9696 54.097 78.823 54.0231 78.6763 53.8753C78.5297 53.7275 78.4563 53.5797 78.4563 53.358C78.4563 53.1363 78.5297 52.9885 78.6763 52.8407C78.823 52.6929 78.9696 52.619 79.1896 52.619H82.7824V52.1756C82.7824 51.9538 82.8558 51.806 83.0024 51.6582C83.1491 51.5104 83.2957 51.4365 83.5157 51.4365C83.6623 51.4365 83.8823 51.5104 84.0289 51.6582C84.1756 51.806 84.2489 51.9538 84.2489 52.1756V60.6005C84.2489 61.0439 84.1756 61.4873 83.9556 61.8569C83.809 62.2264 83.5157 62.5959 83.2224 62.8915C82.9291 63.1871 82.5625 63.4088 82.1958 63.6305C81.8292 63.7783 81.3893 63.8522 80.9493 63.8522C80.5094 63.8522 80.0695 63.7783 79.6295 63.6305C79.2629 63.4827 78.8963 63.1871 78.603 62.8915C78.3097 62.5959 78.0897 62.2264 77.8697 61.8569C77.7231 61.4873 77.6498 61.0439 77.6498 60.6005V57.94C77.6498 57.4966 77.7231 57.0532 77.9431 56.6836C78.0897 56.3141 78.383 55.9446 78.6763 55.649C78.9696 55.3534 79.3362 55.1317 79.7028 54.91C80.0695 54.7622 80.5094 54.6883 80.9493 54.6883C81.316 54.6883 81.6826 54.7622 81.9759 54.8361C82.2692 54.91 82.5625 55.1317 82.8558 55.2795V54.097H82.7824ZM78.9696 60.6744C78.9696 60.8961 79.0429 61.1917 79.1163 61.4134C79.1896 61.6351 79.3362 61.8569 79.5562 62.0047C79.7028 62.1525 79.9228 62.3003 80.1428 62.4481C80.3628 62.522 80.6561 62.5959 80.876 62.5959C81.096 62.5959 81.3893 62.522 81.6093 62.4481C81.8292 62.3742 82.0492 62.2264 82.1958 62.0047C82.3425 61.8569 82.4891 61.6351 82.6358 61.4134C82.7091 61.1917 82.7824 60.97 82.7824 60.6744V58.0139C82.7824 57.7922 82.7091 57.4966 82.6358 57.2749C82.5625 57.0532 82.4158 56.8314 82.1958 56.6836C82.0492 56.5358 81.8292 56.388 81.6093 56.2402C81.3893 56.1663 81.096 56.0924 80.876 56.0924C80.6561 56.0924 80.3628 56.1663 80.1428 56.2402C79.9228 56.3141 79.7028 56.4619 79.5562 56.6836C79.4095 56.8314 79.2629 57.0532 79.1163 57.2749C79.0429 57.4966 78.9696 57.7183 78.9696 58.0139V60.6744Z" fill="url(#paint0_linear)"/>
<path d="M49.4202 25.2009C49.4202 23.4273 49.7135 21.8014 50.3734 20.2494C51.0333 18.6975 51.9132 17.2933 53.0864 16.1848C54.2595 15.0023 55.6527 14.1155 57.1192 13.4504C58.659 12.7852 60.2721 12.4896 62.1052 12.4896C63.8649 12.4896 65.4781 12.7852 67.0179 13.4504C68.5577 14.1155 69.9508 15.0023 71.0507 16.1848C72.2238 17.3672 73.1037 18.6975 73.7636 20.2494C74.4235 21.8014 74.7902 23.5012 74.7902 25.2009V45.1547C74.7902 45.8938 74.4969 46.5589 73.9836 47.0762C73.4703 47.5935 72.8104 47.8892 72.1505 47.8892C71.4173 47.8892 70.7574 47.5935 70.2441 47.0762C69.7308 46.5589 69.4375 45.8938 69.4375 45.1547V25.2009C69.4375 24.2402 69.2176 23.2795 68.851 22.3926C68.4843 21.5058 67.8977 20.6929 67.2378 20.0277C66.5779 19.3626 65.7714 18.7714 64.8915 18.4019C63.9383 18.0323 62.9851 17.8106 62.0318 17.8106C61.0053 17.8106 60.0521 18.0323 59.1722 18.4019C58.2923 18.7714 57.4858 19.2887 56.8259 20.0277C56.1659 20.6929 55.6527 21.5058 55.2127 22.3926C54.8461 23.2795 54.6262 24.2402 54.6262 25.2009V45.1547C54.6262 45.8938 54.3329 46.5589 53.8196 47.0762C53.3063 47.5935 52.6464 47.8892 51.9132 47.8892C51.1799 47.8892 50.52 47.5935 50.0068 47.0762C49.4935 46.5589 49.2002 45.8938 49.2002 45.1547V25.2009H49.4202Z" fill="url(#paint1_linear)"/>
<path fill-rule="evenodd" clip-rule="evenodd" d="M36.1486 37.3211C37.6884 37.3211 38.8616 38.5774 38.8616 40.0555C38.8616 41.6074 37.6151 42.7899 36.1486 42.7899C34.6088 42.7899 33.4356 41.5335 33.4356 40.0555C33.3623 38.5774 34.6088 37.3211 36.1486 37.3211ZM7.25904 37.3211C8.79884 37.3211 9.97202 38.5774 9.97202 40.0555C9.97202 41.6074 8.72552 42.7899 7.25904 42.7899C5.71925 42.7899 4.54607 41.5335 4.54607 40.0555C4.54607 38.5774 5.71925 37.3211 7.25904 37.3211ZM9.38543 14.7806H33.9489C37.1751 14.7806 39.7414 17.5889 39.7414 20.9885V32.5174C39.7414 32.7391 39.5948 32.9608 39.3748 32.9608H3.95948C3.73951 32.9608 3.59286 32.7391 3.59286 32.5174V20.9885C3.59286 17.5889 6.15919 14.7806 9.38543 14.7806ZM9.75205 6.94691H33.6556C34.3888 6.94691 34.9021 7.53814 34.9021 8.27717V10.4943H8.43222V8.27717C8.43222 7.61204 9.01881 6.94691 9.75205 6.94691ZM12.685 1.6998H30.7226C37.6884 1.6998 43.4076 8.86839 43.4076 17.5889V47.2241C43.4076 47.6675 43.1876 48.037 42.8944 48.1848H0.513266C0.219971 48.037 0 47.6675 0 47.2241V17.5889C0 8.86839 5.71925 1.6998 12.685 1.6998Z" fill="url(#paint2_linear)"/>
<path fill-rule="evenodd" clip-rule="evenodd" d="M5.27928 54.097H7.62564C8.65217 54.097 9.53205 53.0623 9.53205 51.7321V48.776H3.37286V51.7321C3.37286 53.0623 4.25275 54.097 5.27928 54.097Z" fill="url(#paint3_linear)"/>
<path fill-rule="evenodd" clip-rule="evenodd" d="M36.3685 54.097H38.7149C39.7414 54.097 40.6213 53.0623 40.6213 51.7321V48.776H34.4621V51.7321C34.4621 53.0623 35.2687 54.097 36.3685 54.097Z" fill="url(#paint4_linear)"/>
<path fill-rule="evenodd" clip-rule="evenodd" d="M10.3387 55.2795C11.4386 54.8361 12.6851 57.5705 15.3247 59.492C17.9644 61.4873 21.9239 62.5959 26.9099 60.3049C28.8163 59.4181 31.8226 55.7968 31.8226 55.7968C31.8226 55.7968 33.4357 54.5405 33.6557 56.0185C33.8023 56.8314 31.236 60.231 28.523 61.7829C17.3045 68.0647 7.03916 56.6097 10.3387 55.2795Z" fill="url(#paint5_linear)"/>
<path d="M146.647 2.66053C146.647 1.9215 146.941 1.25637 147.454 0.73905C147.967 0.221729 148.627 -0.0738831 149.36 -0.0738831C150.094 -0.0738831 150.68 0.221729 151.193 0.73905C151.707 1.25637 152 1.9215 152 2.66053V4.72981C152 5.46884 151.707 6.13397 151.193 6.65129C150.68 7.16861 150.02 7.46422 149.287 7.46422C148.554 7.46422 147.967 7.16861 147.381 6.65129C146.867 6.13397 146.574 5.46884 146.574 4.72981V2.66053H146.647ZM146.647 15.1501C146.647 14.4111 146.941 13.746 147.454 13.2287C147.967 12.7113 148.627 12.4157 149.36 12.4157C150.094 12.4157 150.68 12.7113 151.193 13.2287C151.707 13.746 152 14.4111 152 15.1501V44.933C152 45.6721 151.707 46.3372 151.193 46.8545C150.68 47.3718 150.02 47.6675 149.287 47.6675C148.554 47.6675 147.967 47.3718 147.381 46.8545C146.867 46.3372 146.574 45.6721 146.574 44.933V15.1501H146.647ZM116.585 15.1501C116.585 14.4111 116.878 13.746 117.391 13.2287C117.904 12.7113 118.564 12.4157 119.298 12.4157C120.031 12.4157 120.617 12.7113 121.204 13.2287C121.717 13.746 122.011 14.4111 122.011 15.1501V35.1778C122.011 36.1386 122.231 37.0993 122.597 37.9862C122.964 38.873 123.477 39.6859 124.21 40.3511C124.87 41.0162 125.677 41.6074 126.557 41.9769C127.437 42.3464 128.39 42.5681 129.416 42.5681C130.369 42.5681 131.323 42.3464 132.276 41.9769C133.156 41.6074 133.962 41.0901 134.622 40.3511C135.282 39.6859 135.795 38.873 136.235 37.9862C136.602 37.0993 136.822 36.1386 136.822 35.1778V15.1501C136.822 14.4111 137.115 13.746 137.629 13.2287C138.142 12.7113 138.802 12.4157 139.535 12.4157C140.195 12.4157 140.855 12.7113 141.368 13.2287C141.881 13.746 142.175 14.4111 142.175 15.1501V35.1778C142.175 36.9515 141.881 38.5774 141.148 40.1293C140.488 41.6813 139.535 43.0855 138.435 44.194C137.262 45.3765 135.942 46.2633 134.402 46.9284C132.862 47.5936 131.176 47.8892 129.49 47.8892C127.73 47.8892 126.043 47.5936 124.504 46.9284C122.964 46.2633 121.644 45.3765 120.471 44.194C119.298 43.0116 118.418 41.6813 117.758 40.1293C117.098 38.5774 116.805 36.9515 116.805 35.1778V15.1501H116.585ZM82.4891 16.1848C82.3425 15.8153 82.2691 15.4457 82.2691 15.0762C82.2691 14.4111 82.4891 13.8199 83.0024 13.2287C83.4423 12.6374 84.1022 12.4157 84.9088 12.4157C85.4221 12.4157 85.862 12.5635 86.3019 12.8591C86.7419 13.1548 87.1085 13.5243 87.3285 14.0416L97.7404 38.5035L108.226 14.0416C108.666 12.933 109.472 12.4157 110.645 12.4157C111.452 12.4157 112.112 12.7113 112.552 13.2287C112.992 13.8199 113.285 14.4111 113.285 15.0762C113.285 15.4457 113.212 15.8153 113.065 16.1848L100.233 46.3372C99.7202 47.4457 98.9136 47.9631 97.8138 47.9631C96.5673 47.9631 95.7607 47.4457 95.3208 46.3372L82.4891 16.1848Z" fill="url(#paint6_linear)"/>
</g>
<defs>
<linearGradient id="paint0_linear" x1="114.862" y1="49.2933" x2="114.862" y2="64.1479" gradientUnits="userSpaceOnUse">
<stop stop-color="#4F87FF"/>
<stop offset="1" stop-color="#004EF6"/>
</linearGradient>
<linearGradient id="paint1_linear" x1="61.9952" y1="12.4896" x2="61.9952" y2="47.8892" gradientUnits="userSpaceOnUse">
<stop stop-color="#4F87FF"/>
<stop offset="1" stop-color="#004EF6"/>
</linearGradient>
<linearGradient id="paint2_linear" x1="21.7038" y1="1.6998" x2="21.7038" y2="48.1848" gradientUnits="userSpaceOnUse">
<stop stop-color="#4F87FF"/>
<stop offset="1" stop-color="#004EF6"/>
</linearGradient>
<linearGradient id="paint3_linear" x1="6.45246" y1="48.776" x2="6.45246" y2="54.097" gradientUnits="userSpaceOnUse">
<stop stop-color="#4F87FF"/>
<stop offset="1" stop-color="#004EF6"/>
</linearGradient>
<linearGradient id="paint4_linear" x1="37.5417" y1="48.776" x2="37.5417" y2="54.097" gradientUnits="userSpaceOnUse">
<stop stop-color="#4F87FF"/>
<stop offset="1" stop-color="#004EF6"/>
</linearGradient>
<linearGradient id="paint5_linear" x1="21.6868" y1="55.2316" x2="21.6868" y2="63.6521" gradientUnits="userSpaceOnUse">
<stop stop-color="#4F87FF"/>
<stop offset="1" stop-color="#004EF6"/>
</linearGradient>
<linearGradient id="paint6_linear" x1="117.135" y1="-0.0738831" x2="117.135" y2="47.9631" gradientUnits="userSpaceOnUse">
<stop stop-color="#4F87FF"/>
<stop offset="1" stop-color="#004EF6"/>
</linearGradient>
<clipPath id="clip0">
<rect width="152" height="64" fill="white"/>
</clipPath>
</defs>
</svg>
