<?xml version="1.0" encoding="UTF-8"?>
<svg width="268px" height="97px" viewBox="0 0 268 97" version="1.1" xmlns="http://www.w3.org/2000/svg" xmlns:xlink="http://www.w3.org/1999/xlink">
    <title>logo-swio</title>
    <g id="high-frame-copy" stroke="none" stroke-width="1" fill="none" fill-rule="evenodd">
        <g id="logo-swio" fill-rule="nonzero">
            <path d="M15.6982,5.3428 C19.2012,2.4478 23.7322,0.9998 29.2912,0.9998 L77.9322,0.9998 L74.8922,18.3718 L29.7252,18.3718 C24.9182,20.6878 24.5142,23.0058 28.5102,25.3208 L56.3042,25.3208 C62.0942,25.3208 66.2352,26.8268 68.7252,29.8368 C71.2142,32.8478 71.8522,37.1338 70.6362,42.6918 L69.3332,49.6408 C68.3472,55.4308 66.2062,59.8338 62.9062,62.8428 C59.6052,65.8548 54.9442,67.2428 48.9212,67.0118 L0.2812,67.0118 L3.3212,49.6408 L48.4872,49.6408 C53.5252,47.5558 53.9592,45.2408 49.7902,42.6918 L21.9952,42.6918 C16.2042,42.6918 12.1072,41.2458 9.7052,38.3488 C7.3022,35.4538 6.6212,31.1108 7.6632,25.3208 L8.8802,18.3718 C9.9222,12.5828 12.1942,8.2388 15.6982,5.3428" id="Fill-1" fill="#D4803A"></path>
            <path d="M86.2886,1 L103.6606,1 L96.2776,42.692 C95.5826,46.631 97.4936,48.946 102.0106,49.641 L108.9596,49.641 L117.5586,1 L134.9306,1 L126.3306,49.641 L133.2796,49.641 C137.9116,49.641 140.6326,47.326 141.4436,42.692 L148.8266,1 L166.1986,1 L157.6006,49.641 C156.6126,55.2 154.4736,59.486 151.1726,62.496 C147.8716,65.507 143.2106,67.012 137.1876,67.012 L92.0216,67.012 C86.2306,67.012 82.2066,65.507 79.9486,62.496 C77.6896,59.486 76.9366,55.2 77.6896,49.641 L86.2886,1 Z" id="Fill-3" fill="#D4803A"></path>
            <polygon id="Stroke-5" fill="#FF7D00" points="189.0747 23.2988 182.1457 66.0118 166.1527 66.0118 173.0797 23.2988"></polygon>
            <polygon id="Stroke-7" fill="#FF7D00" points="190.7036 15.4155 193.8516 -0.0005 176.8586 -0.0005 173.7106 15.4155"></polygon>
            <path d="M237.731,49.6406 C242.129,49.4106 244.854,47.0926 245.896,42.6916 L248.936,25.3206 C249.512,20.6876 247.602,18.3716 243.204,18.3716 L225.832,18.3716 C221.431,18.3716 218.71,20.6876 217.667,25.3206 L214.627,42.6916 C214.047,47.3256 215.959,49.6406 220.36,49.6406 L237.731,49.6406 Z M208.374,5.3426 C211.673,2.4476 216.219,0.9996 222.01,0.9996 L253.279,0.9996 C259.011,1.2316 263.05,2.9116 265.396,6.0376 C267.741,9.1646 268.448,13.2776 267.524,18.3716 L262.051,49.6406 C260.835,56.3586 258.578,60.8756 255.277,63.1906 C251.976,65.5066 247.428,66.7816 241.64,67.0126 L210.371,67.0126 C204.581,67.0126 200.542,65.5656 198.254,62.6696 C195.964,59.7746 195.226,55.4316 196.04,49.6406 L201.511,18.3716 C202.783,12.5826 205.073,8.2396 208.374,5.3426 Z" id="Stroke-9" fill="#FF7D00"></path>
            <g id="Group-74" transform="translate(46.466000, 79.358300)" fill="#FF7D00">
                <polygon id="Fill-11" points="4.369 3.192 4.51194637e-13 3.192 4.51194637e-13 0.12 12.433 0.12 12.433 3.192 8.017 3.192 8.017 16.297 4.369 16.297"></polygon>
                <path d="M18.0008,7.296 L19.4408,7.296 C21.2648,7.296 22.3448,6.384 22.3448,4.968 C22.3448,3.504 21.3368,2.736 19.6568,2.736 C18.7688,2.736 18.2648,2.784 18.0008,2.856 L18.0008,7.296 Z M14.3758,0.336 C15.5528,0.144 17.2808,0 19.2488,0 C21.6488,0 23.3298,0.359 24.4808,1.272 C25.4658,2.04 25.9938,3.192 25.9938,4.68 C25.9938,6.72 24.5288,8.136 23.1368,8.64 L23.1368,8.713 C24.2658,9.169 24.8898,10.224 25.2968,11.713 C25.8018,13.561 26.2818,15.673 26.5938,16.297 L22.8488,16.297 C22.6088,15.817 22.2008,14.521 21.7448,12.528 C21.2888,10.488 20.5928,9.961 19.0808,9.937 L18.0008,9.937 L18.0008,16.297 L14.3758,16.297 L14.3758,0.336 Z" id="Fill-13"></path>
                <path d="M36.4813,9.4083 L35.4733,5.9763 C35.1853,5.0163 34.8973,3.8163 34.6573,2.8553 L34.6083,2.8553 C34.3693,3.8163 34.1283,5.0403 33.8653,5.9763 L32.9043,9.4083 L36.4813,9.4083 Z M32.3773,12.1443 L31.2243,16.2973 L27.4563,16.2973 L32.3773,0.1193 L37.1773,0.1193 L42.2173,16.2973 L38.2573,16.2973 L37.0093,12.1443 L32.3773,12.1443 Z" id="Fill-15"></path>
                <path d="M48.1683,16.297 L42.9833,0.12 L46.9923,0.12 L48.9603,6.96 C49.5123,8.904 50.0163,10.729 50.4003,12.745 L50.4723,12.745 C50.8803,10.8 51.3843,8.88 51.9373,7.032 L54.0013,0.12 L57.8893,0.12 L52.4403,16.297 L48.1683,16.297 Z" id="Fill-17"></path>
                <polygon id="Fill-19" points="69.2406 9.4562 63.2876 9.4562 63.2876 13.2962 69.9366 13.2962 69.9366 16.2972 59.6396 16.2972 59.6396 0.1202 69.6006 0.1202 69.6006 3.1202 63.2876 3.1202 63.2876 6.4802 69.2406 6.4802"></polygon>
                <polygon id="Fill-21" points="72.4554 0.1197 76.1034 0.1197 76.1034 13.2247 82.5364 13.2247 82.5364 16.2967 72.4554 16.2967"></polygon>
            </g>
            <polygon id="Fill-23" fill="#FF7D00" points="139.1528 82.5503 134.7848 82.5503 134.7848 79.4783 147.2168 79.4783 147.2168 82.5503 142.8008 82.5503 142.8008 95.6553 139.1528 95.6553"></polygon>
            <polygon id="Fill-25" fill="#FF7D00" points="149.185 95.6555 152.833 95.6555 152.833 79.4785 149.185 79.4785"></polygon>
            <path d="M167.8579,95.2232 C167.2099,95.5352 165.6729,95.9192 163.7289,95.9192 C158.1369,95.9192 155.2559,92.4152 155.2559,87.8062 C155.2559,82.2862 159.1929,79.2382 164.0889,79.2382 C165.9849,79.2382 167.4259,79.5982 168.0739,79.9582 L167.3049,82.8382 C166.5859,82.5262 165.5529,82.2382 164.2329,82.2382 C161.3529,82.2382 159.0959,83.9902 159.0959,87.5912 C159.0959,90.8312 161.0169,92.8712 164.2569,92.8712 C165.3849,92.8712 166.5859,92.6552 167.3299,92.3432 L167.8579,95.2232 Z" id="Fill-27" fill="#FF7D00"></path>
            <path d="M170.2798,79.478 L173.9048,79.478 L173.9048,86.63 L173.9528,86.63 C174.3128,86.006 174.6968,85.43 175.0808,84.854 L178.7288,79.478 L183.2418,79.478 L177.8888,86.367 L183.5058,95.655 L179.2578,95.655 L175.2728,88.671 L173.9048,90.375 L173.9048,95.655 L170.2798,95.655 L170.2798,79.478 Z" id="Fill-28" fill="#FF7D00"></path>
            <polygon id="Fill-29" fill="#FF7D00" points="194.6411 88.8145 188.6881 88.8145 188.6881 92.6545 195.3361 92.6545 195.3361 95.6555 185.0391 95.6555 185.0391 79.4785 195.0001 79.4785 195.0001 82.4785 188.6881 82.4785 188.6881 85.8385 194.6411 85.8385"></polygon>
            <polygon id="Fill-30" fill="#FF7D00" points="200.9771 82.5503 196.6081 82.5503 196.6081 79.4783 209.0411 79.4783 209.0411 82.5503 204.6251 82.5503 204.6251 95.6553 200.9771 95.6553"></polygon>
            <path d="M211.104,91.8867 C212.064,92.3907 213.6,92.8947 215.161,92.8947 C216.84,92.8947 217.729,92.1987 217.729,91.1427 C217.729,90.1347 216.961,89.5587 215.016,88.8867 C212.329,87.9267 210.551,86.4387 210.551,84.0867 C210.551,81.3257 212.879,79.2377 216.672,79.2377 C218.52,79.2377 219.84,79.5977 220.801,80.0537 L219.985,82.9827 C219.36,82.6697 218.184,82.2137 216.625,82.2137 C215.04,82.2137 214.272,82.9577 214.272,83.7747 C214.272,84.8057 215.161,85.2617 217.272,86.0547 C220.129,87.1107 221.45,88.5987 221.45,90.8787 C221.45,93.5917 219.385,95.8957 214.944,95.8957 C213.096,95.8957 211.272,95.3907 210.36,94.8867 L211.104,91.8867 Z" id="Fill-31" fill="#FF7D00"></path>
            <path d="M15.7979,5.3428 C19.3009,2.4478 23.8319,0.9998 29.3909,0.9998 L78.0319,0.9998 L74.9919,18.3718 L29.8249,18.3718 C25.0179,20.6878 24.6139,23.0058 28.6099,25.3208 L56.4039,25.3208 C62.1939,25.3208 66.3349,26.8268 68.8249,29.8368 C71.3139,32.8478 71.9519,37.1338 70.7359,42.6918 L69.4329,49.6408 C68.4469,55.4308 66.3059,59.8338 63.0059,62.8428 C59.7049,65.8548 55.0439,67.2428 49.0209,67.0118 L0.3809,67.0118 L3.4209,49.6408 L48.5869,49.6408 C53.6249,47.5558 54.0589,45.2408 49.8899,42.6918 L22.0949,42.6918 C16.3039,42.6918 12.2069,41.2458 9.8049,38.3488 C7.4019,35.4538 6.7209,31.1108 7.7629,25.3208 L8.9799,18.3718 C10.0219,12.5828 12.2939,8.2388 15.7979,5.3428 Z" id="Stroke-32" fill="#FF7D00"></path>
            <path d="M86.3882,1 L103.7602,1 L96.3772,42.692 C95.6822,46.631 97.5932,48.946 102.1102,49.641 L109.0592,49.641 L117.6582,1 L135.0302,1 L126.4302,49.641 L133.3792,49.641 C138.0112,49.641 140.7322,47.326 141.5432,42.692 L148.9262,1 L166.2982,1 L157.7002,49.641 C156.7122,55.2 154.5732,59.486 151.2722,62.496 C147.9712,65.507 143.3102,67.012 137.2872,67.012 L92.1212,67.012 C86.3302,67.012 82.3062,65.507 80.0482,62.496 C77.7892,59.486 77.0362,55.2 77.7892,49.641 L86.3882,1 Z" id="Stroke-33" fill="#FF7D00"></path>
        </g>
    </g>
</svg>