<?xml version="1.0" encoding="UTF-8"?>
<svg width="854px" height="636px" viewBox="0 0 854 636" version="1.1" xmlns="http://www.w3.org/2000/svg" xmlns:xlink="http://www.w3.org/1999/xlink">
    <title>Group 112</title>
    <defs>
        <polygon id="path-1" points="0 0.979 827 0.979 827 634.979 0 634.979"></polygon>
        <polygon id="path-3" points="0.170182408 0.0278688525 51.7389474 0.0278688525 51.7389474 52.1538453 0.170182408 52.1538453"></polygon>
        <polygon id="path-5" points="0 0.393358621 44.9704042 0.393358621 44.9704042 45.9832134 0 45.9832134"></polygon>
        <polygon id="path-7" points="0.170182408 0.0278688525 51.7389474 0.0278688525 51.7389474 52.1538453 0.170182408 52.1538453"></polygon>
        <polygon id="path-9" points="0.170182408 0.0278688525 51.7389474 0.0278688525 51.7389474 52.1538453 0.170182408 52.1538453"></polygon>
        <polygon id="path-11" points="0 0.393358621 44.9704042 0.393358621 44.9704042 45.9832134 0 45.9832134"></polygon>
        <polygon id="path-13" points="0.170182408 0.0278688525 51.7389474 0.0278688525 51.7389474 52.1538453 0.170182408 52.1538453"></polygon>
        <polygon id="path-15" points="0 0.371804878 264.583212 0.371804878 264.583212 308.999665 0 308.999665"></polygon>
    </defs>
    <g id="Page-1" stroke="none" stroke-width="1" fill="none" fill-rule="evenodd">
        <g id="Group-112" transform="translate(0.000000, 0.021000)">
            <g id="Group-3" transform="translate(27.000000, 0.000000)">
                <mask id="mask-2" fill="white">
                    <use xlink:href="#path-1"></use>
                </mask>
                <g id="Clip-2"></g>
                <path d="M219.442573,42.459729 C-62.071601,114.112481 -58.153361,424.698402 148.222686,542.009386 C209.096031,576.614737 347.44419,607.479855 401.16299,620.471329 C460.481752,634.814997 491.885462,644.822386 700.293832,619.092131 C806.750908,605.952128 840.996017,554.495475 822.034741,479.825846 C788.477347,347.650379 682.187865,259.292925 608.014851,101.713195 C586.223735,55.4203396 566.299273,-34.8583477 406.628106,16.1257125 C347.006903,35.1625136 280.97281,26.7985892 219.442573,42.459729" id="Fill-1" fill="#EADBCA" opacity="0.117838542" mask="url(#mask-2)"></path>
            </g>
            <path d="M683.7889,275.6878 L679.8879,275.6878 C679.4499,275.6878 679.0959,275.3338 679.0959,274.8958 L679.0959,270.9948 C679.0959,270.5568 678.7409,270.2028 678.3039,270.2028 L676.4439,270.2028 C676.0069,270.2028 675.6519,270.5568 675.6519,270.9948 L675.6519,274.8958 C675.6519,275.3338 675.2979,275.6878 674.8599,275.6878 L670.9599,275.6878 C670.5219,275.6878 670.1679,276.0418 670.1679,276.4798 L670.1679,278.3378 C670.1679,278.7758 670.5219,279.1298 670.9599,279.1298 L674.8599,279.1298 C675.2979,279.1298 675.6519,279.4858 675.6519,279.9218 L675.6519,283.8238 C675.6519,284.2608 676.0069,284.6158 676.4439,284.6158 L678.3039,284.6158 C678.7409,284.6158 679.0959,284.2608 679.0959,283.8238 L679.0959,279.9218 C679.0959,279.4858 679.4499,279.1298 679.8879,279.1298 L683.7889,279.1298 C684.2259,279.1298 684.5809,278.7758 684.5809,278.3378 L684.5809,276.4798 C684.5809,276.0418 684.2259,275.6878 683.7889,275.6878" id="Fill-27" fill="#FFFFFA"></path>
            <g id="Group-105" transform="translate(61.000000, 92.979000)">
                <path d="M82.9110156,69.1299412 C80.9325755,72.2291151 90.8726416,79.8347308 93.0904091,81.4052178 C95.3101711,82.9757048 99.8294708,82.9239524 100.318098,84.9064683 C100.80473,86.8889842 99.1713204,88.9829668 97.1270652,89.0526336 C95.08281,89.1223003 94.0756404,85.3264591 91.9017495,83.5549339 C90.8028377,82.6572284 79.7100112,74.7192029 77.1073253,76.5166043 C75.808974,77.4143098 71.9059424,80.1114072 71.3754333,83.2245145 C71.1500666,84.5541537 71.828161,89.1859956 72.4922946,91.7397786 C73.1584226,94.2935616 74.3670262,96.3935157 75.3063864,97.8823931 C76.2437521,99.373261 78.1982595,100.824319 78.1304501,102.581911 C78.0466855,104.709732 73.1743778,105.70099 72.2090905,104.448979 C71.1141675,103.027778 72.2549616,100.732757 71.9278808,99.1881466 C71.6007999,97.6415453 70.9645878,95.199229 69.7500011,92.9022176 C68.5354144,90.6052063 63.6072636,84.2794678 61.6068851,84.2794678 C60.1509766,84.2794678 51.8024379,84.6974681 49.1658474,83.8196674 C45.5639695,82.6213998 44.0342683,85.9912787 42.4806344,87.7428992 C40.9270004,89.4945196 39.8380606,90.4021775 38.8787565,92.5359697 C37.9194523,94.6697619 39.1659494,100.205281 36.8544453,101.415491 C34.5409467,102.625702 31.3917966,101.300044 30.7097134,98.7840796 C30.0276302,96.2681156 35.2010916,93.3500751 36.2541323,91.2322068 C37.3091674,89.1123479 37.4407975,87.2950417 37.9613346,85.4180211 C38.4818718,83.53901 39.7343521,82.4701234 39.2217925,80.5891219 C38.7092329,78.7101109 36.373796,77.2471097 35.2190411,76.5962234 C34.0662806,75.9433467 33.2445898,75.6328322 31.9243001,75.7741561 C30.6060048,75.9134895 29.688583,76.9346047 28.2167193,77.5934528 C26.7448556,78.252301 23.0711794,79.5301877 21.5913381,80.2825883 C20.1095024,81.0369794 19.1581759,81.3594368 17.9774939,82.5258568 C16.7968119,83.6922768 15.6300906,87.4025275 13.9508098,87.4124798 C12.2735234,87.4204418 10.3808422,84.2356773 10.9153402,82.7607332 C11.4498381,81.2837987 15.0656768,80.9872175 16.4816974,80.3044836 C17.8997125,79.6237402 18.9886523,78.8972158 20.3428467,77.6750624 C21.6970411,76.452909 23.6076718,73.9110689 24.8282417,72.3545152 C26.0488116,70.7959711 27.5126977,70.2107706 27.8058738,68.2541309 C28.1010444,66.2994817 27.0420205,62.3961548 25.2650143,60.8316392 C23.4880081,59.2651332 21.4577137,60.0374386 19.3217163,59.597543 C17.1837246,59.1576474 15.6540234,58.6361422 13.8490956,58.4808849 C12.0421735,58.3256276 10.9991048,58.3256276 9.21013221,58.6202184 C7.42315403,58.9167995 4.04464842,62.1314212 2.06620829,60.980925 C0.0897625641,59.8324193 -0.739905875,56.9641408 0.795778495,55.2722347 C2.33345726,53.5803285 7.47500831,55.7937399 9.15229474,55.8614161 C10.8295812,55.9271019 11.7988573,55.9947781 13.4482222,55.6842636 C15.0995815,55.373749 17.6484187,54.2371862 19.7465225,53.5126523 C21.8406375,52.7881184 25.641955,50.7677834 25.9829966,48.5782578 C26.3958364,45.9368938 31.1046037,35.1305897 34.0483311,33.3690169 C35.8652252,32.2802255 34.7483638,29.0456991 34.0842302,27.037307 C32.1097789,21.0798069 28.4380972,17.7915375 28.0471957,17.3914515 C26.984183,16.3106221 24.3116933,15.4985071 24.3974523,13.985744 C24.4852057,12.4749713 26.5314553,10.7094175 28.3403718,11.2249513 C30.1492883,11.7424755 30.8652762,16.4618984 31.4117405,17.5347659 C33.6315025,21.879979 38.0869815,25.5762963 38.2265892,25.6758201 C39.6067108,26.6551352 40.8133199,27.5130312 42.1814751,27.4612787 C47.6860061,27.2522786 46.7247075,18.1995855 46.7705786,17.1247275 C46.8623208,14.9829734 47.4028019,13.5458484 47.02985,11.2985989 C46.6588925,9.05134949 42.6481636,3.90397388 43.725137,1.93539133 C44.8001161,-0.0312007472 47.6521013,-0.656210779 49.3632925,0.796838021 C51.0744836,2.24988682 49.2635727,6.81803339 49.5846704,9.29020683 C49.9077624,11.7623803 51.3716485,16.2469268 52.4207005,18.5339858 C53.4697524,20.8210448 54.8020084,24.2944285 57.3049745,23.9958569 C59.9076604,23.6873328 67.7795386,26.1117348 70.485933,27.2881072 C72.6717902,28.2355746 80.6254386,21.6570455 82.2907587,19.8994535 C83.8583533,18.247357 85.1407495,16.2807649 85.6812306,15.1541545 C86.2237062,14.0295345 86.4351121,11.9853138 87.3425619,11.1254274 C89.6381109,8.9518256 92.5439448,12.548619 92.6017823,14.2863061 C92.6616141,16.0220028 89.8315672,16.1892029 88.4953224,17.3038705 C87.1570832,18.4185381 85.768984,19.855663 84.5045374,21.8501218 C83.6948129,23.1260181 79.6661345,30.5763765 79.8416412,32.8674165 C79.9792545,34.6548655 80.9186147,38.1202874 82.3605625,39.1871835 C83.8025103,40.2540796 85.9923563,40.4809941 88.2699557,40.7616515 C90.5455607,41.0442993 91.8877888,41.1060041 94.1414554,40.6800419 C96.3951221,40.2540796 97.9687,39.1234882 99.7078127,38.2257827 C101.44892,37.3260868 102.172885,35.1206373 104.041634,35.7118093 C105.908388,36.3049716 107.03921,38.9483262 105.934315,40.7278133 C104.831414,42.5073005 101.488808,40.9965278 99.8613811,41.4085567 C98.2339546,41.8205856 96.0500917,42.330148 94.578228,43.1362915 C93.1043699,43.9404445 86.8280079,48.2080289 86.7741593,48.5265054 C86.7183162,48.8429914 86.8240191,49.2729346 87.0912681,49.454068 C87.3585171,49.6352015 91.2156776,50.4990689 93.8462849,50.8414311 C96.4768923,51.1837933 99.6260425,51.3629363 102.320471,50.9588693 C105.014899,50.5548023 108.475174,47.6686095 110.453614,49.0440296 C112.432055,50.4194498 112.505847,53.5942619 110.710891,55.2005775 C108.91793,56.8068931 104.901218,53.8390907 102.085132,53.894824 C99.2690457,53.9525479 96.8857434,54.798501 94.1992929,55.4215205 C91.5128425,56.0445401 88.7366442,56.0107019 87.3844442,57.264703 C86.0322442,58.5206945 86.4570504,59.9876766 85.8188439,61.7174018 C85.1806374,63.4451366 84.3968401,66.7990917 82.9110156,69.1299412 Z" id="Fill-39" fill="#C5C9CA"></path>
                <path d="M72.9490238,49.7303389 C72.6301122,48.6566323 72.0288521,47.5829256 70.2271031,48.1629108 C68.4233228,48.7428959 68.6731708,51.6611755 70.5500773,51.9860406 C71.8541617,52.1475555 73.2902796,50.8774614 72.9490238,49.7303389" id="Fill-43" fill="#FFFFFA"></path>
                <path d="M55.9233074,45.596036 C55.4421758,43.9844597 54.542943,42.3747816 51.8410425,43.2441596 C49.137041,44.1154359 49.506819,48.4907992 52.3263761,48.9786379 C54.2824176,49.2235064 56.4359541,47.3177083 55.9233074,45.596036" id="Fill-45" fill="#FFFFFA"></path>
                <path d="M61.8719495,64.7577724 C61.0723519,61.8032823 59.5725885,58.8529099 55.067084,60.4485405 C50.5615794,62.0421121 51.1788853,70.0676192 55.877039,70.9611723 C59.1355028,71.4079489 62.7274775,67.9160915 61.8719495,64.7577724" id="Fill-47" fill="#FFFFFA"></path>
            </g>
            <g id="Group-104" transform="translate(37.000000, 221.979000)">
                <path d="M32.9483057,24.0993117 C32.7032242,24.7741415 32.4018022,26.0837689 31.8327624,26.9930735 C31.0721647,28.2040499 34.8878298,31.1735871 35.7399809,31.7869388 C36.592132,32.4002905 38.3274216,32.3802744 38.5147539,33.1537552 C38.7020863,33.9286657 38.0752975,34.7450383 37.2907551,34.772203 C36.5048041,34.7993678 36.1188712,33.3181735 35.2836223,32.626187 C34.861068,32.2759045 30.6031295,29.1762624 29.6044929,29.878257 C29.1058788,30.2285394 27.6072197,31.2808165 27.4029851,32.4975118 C27.3156572,33.0165017 27.5776409,34.8251028 27.832582,35.8216206 C28.087523,36.8181384 28.5523327,37.6388001 28.9115039,38.2206979 C29.2720835,38.8025956 30.0228216,39.3701961 29.9960598,40.0564638 C29.9650725,40.8857038 28.0931571,41.2745888 27.7241264,40.7841934 C27.3029806,40.2294604 27.7410285,39.3330233 27.6156708,38.7296797 C27.490313,38.1277658 27.2452315,37.17271 26.7790133,36.2762729 C26.3142036,35.3798358 24.4211605,32.9092724 23.6521117,32.9092724 C23.0943401,32.9092724 19.8899702,33.0722609 18.8772484,32.7305568 C17.4940875,32.2616073 16.906737,33.5769536 16.309527,34.2617915 C15.7137255,34.9451997 15.2953967,35.2983415 14.9277745,36.1333005 C14.5587438,36.9668297 15.0376386,39.127143 14.1488661,39.6003817 C13.2615022,40.0721907 12.052997,39.5546306 11.7910133,38.57241 C11.5290297,37.5901895 13.5150347,36.4506993 13.9192783,35.6243187 C14.3249304,34.7965083 14.3742284,34.0859354 14.575646,33.3539166 C14.7742465,32.6204681 15.2545498,32.2015589 15.0587663,31.4681103 C14.8629829,30.7346618 13.9657593,30.1627721 13.5220773,29.9082812 C13.0798038,29.6537903 12.7628881,29.5322637 12.2572315,29.5865933 C11.7501664,29.6423525 11.3994463,30.0412456 10.8332236,30.2985959 C10.2684094,30.5559463 8.85848666,31.05492 8.28944691,31.3480135 C7.72181567,31.6425367 7.35560197,31.7683524 6.90206038,32.2244345 C6.44992731,32.6790868 6.00061127,34.1288271 5.35692026,34.1331163 C4.71322925,34.1359757 3.98643591,32.8921157 4.19067047,32.3159368 C4.39631355,31.7397579 5.78510859,31.6239503 6.32879509,31.3580216 C6.87248158,31.0906631 7.29081031,30.8075777 7.81055206,30.3300499 C8.33029382,29.852522 9.06412974,28.8617231 9.53175646,28.2526605 C10.0007917,27.643598 10.5627889,27.4148421 10.67547,26.6513694 C10.7895597,25.8878967 10.3824991,24.3652404 9.70077817,23.7533184 C9.01764877,23.1413964 8.23874039,23.4430682 7.41898511,23.2715013 C6.5978213,23.0999344 6.01047087,22.8954839 5.31748186,22.8354354 C4.62449286,22.775387 4.2230663,22.775387 3.53711987,22.889765 C2.85117343,23.0055726 1.5525233,24.2608705 0.793334129,23.8119371 C0.0341449542,23.3630037 -0.284179264,22.2435296 0.305988202,21.582997 C0.896155668,20.9210347 2.87089263,21.7860179 3.51458364,21.8117529 C4.15827464,21.8374879 4.5301224,21.8660824 5.16395381,21.7431261 C5.79778522,21.6215996 6.77670261,21.1783851 7.58096424,20.8952997 C8.38663439,20.6122143 9.84585514,19.8230065 9.97543845,18.9694611 C10.1346006,17.9372002 11.9417243,13.718084 13.0727613,13.028957 C13.7699758,12.6043289 13.3417875,11.3418824 13.0854379,10.5569638 C12.3290657,8.23080246 10.9177345,6.9469101 10.768432,6.79107016 C10.3613713,6.36930151 9.33456447,6.05190274 9.3669603,5.46142663 C9.40076464,4.87095052 10.1867156,4.18182345 10.8811131,4.38341456 C11.5755106,4.58500568 11.8501709,6.42792021 12.0600395,6.84682941 C12.9121906,8.54391207 14.6235354,9.98650381 14.6756505,10.0251064 C15.2066603,10.4082725 15.6700615,10.7428279 16.1940288,10.7228118 C18.3082087,10.6413175 17.939178,7.10703922 17.9574886,6.68670029 C17.9927015,5.85031162 18.1997531,5.28843 18.0574931,4.41200905 C17.9138247,3.53415837 16.3743186,1.52396611 16.7870133,0.756204196 C17.199708,-0.0129874389 18.2955321,-0.256040558 18.9518997,0.311559961 C19.6082673,0.879160479 18.9138698,2.66202659 19.0378191,3.62709045 C19.1603598,4.5921543 19.7237655,6.3449962 20.1251921,7.23714412 C20.5294356,8.13072176 21.0407263,9.48610033 22.001333,9.37029267 C23.0013781,9.24876611 26.0226412,10.1966733 27.0621247,10.6556147 C27.9015992,11.0244836 30.955258,8.45669889 31.5947235,7.77043126 C32.1961591,7.12419591 32.6877305,6.356434 32.8961906,5.91750866 C33.1032422,5.47858332 33.1849361,4.67936748 33.5328391,4.34481201 C34.414569,3.49555582 35.5301123,4.89954501 35.5526485,5.57866402 C35.5751847,6.2563533 34.4892203,6.32212062 33.9751126,6.75675678 C33.4624134,7.19139295 32.9285865,7.75327457 32.4440576,8.53104455 C32.1327759,9.0300183 30.5862273,11.9395071 30.653836,12.8345145 C30.7073595,13.5322199 31.0679392,14.884739 31.6214853,15.3022185 C32.1750314,15.7182682 33.0145058,15.8069111 33.8891932,15.9169999 C34.7638805,16.0270887 35.2779882,16.051394 36.1442245,15.8841163 C37.0090522,15.7182682 37.6133048,15.2779132 38.2809406,14.926201 C38.9499848,14.5744889 39.2274622,13.7137949 39.9443959,13.9439805 C40.6613296,14.1755958 41.095152,15.2078567 40.6711892,15.9041324 C40.2472265,16.5975486 38.96407,16.0085023 38.3400982,16.1686314 C37.7147179,16.3301902 36.8766519,16.5289219 36.3104292,16.8434612 C35.745615,17.1580005 33.3356471,18.825059 33.3145194,18.9480153 C33.2933917,19.0724013 33.3342386,19.239679 33.4370601,19.3097355 C33.5398817,19.3812217 35.0202301,19.7186366 36.0301348,19.851601 C37.0400395,19.9859951 38.2499533,20.0560515 39.2838027,19.8987819 C40.3176522,19.7400825 41.6472896,18.6148895 42.4064788,19.1510361 C43.165668,19.6886124 43.1938382,20.9267536 42.5064833,21.5544025 C41.8163113,22.1820515 40.2753967,21.0225451 39.1936578,21.0454207 C38.1119189,21.0668666 37.1977931,21.3971329 36.1667607,21.640186 C35.1343198,21.8846688 34.0680745,21.8703716 33.5497413,22.360767 C33.0299995,22.8497327 33.1933872,23.4244818 32.9483057,24.0993117" id="Fill-49" fill="#C5C9CA"></path>
                <path d="M23.9617589,26.2974357 C23.7221804,25.4922134 23.2717728,24.686991 21.9205499,25.12238 C20.567958,25.5565322 20.7541448,27.7446095 22.1628665,27.9895158 C23.1403469,28.1107321 24.2177657,27.1583186 23.9617589,26.2974357" id="Fill-53" fill="#FFFFFA"></path>
            </g>
            <g id="Group-98" transform="translate(0.000000, 111.979000)">
                <path d="M28.3508103,19.9843069 C28.1396536,20.5435754 27.8810943,21.6297929 27.3898317,22.3843838 C26.7362514,23.3876946 30.019954,25.8510054 30.7525386,26.3596868 C31.4865596,26.8683682 32.9790211,26.8515058 33.1399024,27.4922758 C33.3007838,28.1344509 32.7621186,28.8145664 32.0869917,28.8356444 C31.4104283,28.8581275 31.0771741,27.6299851 30.3603904,27.0566646 C29.996971,26.7657888 26.3326116,24.1956831 25.4736203,24.7774347 C25.0441246,25.0683105 23.7542012,25.940938 23.5789555,26.9498697 C23.5042606,27.3784548 23.7283453,28.8806107 23.9481206,29.7054615 C24.167896,30.5331226 24.5672264,31.2132381 24.8774976,31.6952208 C25.1863322,32.1772034 25.8327304,32.6479445 25.8097473,33.2170494 C25.782455,33.905596 24.1736418,34.2273862 23.854752,33.8212842 C23.4927691,33.3617847 23.8691164,32.6184353 23.7613834,32.1167799 C23.6522139,31.6179349 23.4424936,30.8254037 23.0417268,30.0820543 C22.6409599,29.3401102 21.013473,27.2913326 20.3527104,27.2913326 C19.8715029,27.2913326 17.1135375,27.4248263 16.2416182,27.1409765 C15.0522456,26.7545472 14.5466185,27.8449803 14.0338093,28.41268 C13.5195637,28.9789745 13.1604536,29.2726607 12.8444367,29.9640177 C12.5269834,30.6553748 12.9392418,32.4484065 12.1750555,32.8390513 C11.4108693,33.2311013 10.36945,32.8025162 10.1453653,31.9875018 C9.91984418,31.1724874 11.6277718,30.2281948 11.9768268,29.5410534 C12.3244453,28.8553171 12.368975,28.2665395 12.5413478,27.6580891 C12.7122842,27.0510439 13.125979,26.7053653 12.9564791,26.0955097 C12.7884156,25.4870593 12.0156107,25.0135078 11.634954,24.8027283 C11.2542973,24.5919487 10.98281,24.4907745 10.5461322,24.5357408 C10.1108907,24.5807071 9.80780183,24.9109284 9.32084855,25.1259236 C8.83533172,25.3381084 7.62153962,25.7526416 7.1331499,25.9971459 C6.64332374,26.240245 6.3287433,26.3456348 5.93803153,26.7222277 C5.54875619,27.1002258 5.16235374,28.3016694 4.6093242,28.3044798 C4.05342179,28.3072902 3.42857024,27.2772806 3.6052524,26.7981084 C3.78193456,26.3203413 4.97705293,26.2247879 5.44533249,26.0041719 C5.9121756,25.7821507 6.27272213,25.5474828 6.71945508,25.1512172 C7.16762447,24.7563568 7.79822178,23.9329112 8.20186152,23.4298506 C8.60406482,22.9239795 9.08814522,22.7356831 9.18582316,22.1019392 C9.2835011,21.4681952 8.93300966,20.2049229 8.34550556,19.6976467 C7.75943789,19.1903705 7.08862025,19.4404956 6.38332804,19.2985706 C5.67659938,19.1552405 5.17097238,18.9866169 4.57484964,18.9360298 C3.97872689,18.8868479 3.63254477,18.8868479 3.04216778,18.9824013 C2.4517908,19.0779547 1.33567665,20.1192058 0.682096286,19.7468286 C0.0299523669,19.3744513 -0.24440774,18.4456159 0.262655704,17.897589 C0.771155588,17.3495621 2.46902808,18.0662127 3.02349406,18.0886958 C3.57796003,18.1097738 3.89828623,18.1322569 4.44269712,18.0310827 C4.98710802,17.9313137 5.8302985,17.5617468 6.52266275,17.3270789 C7.215027,17.0938162 8.47047587,16.4389942 8.58395465,15.7307748 C8.71898005,14.8750097 10.2760814,11.3760686 11.2471151,10.8055585 C11.8475471,10.452854 11.478382,9.40598203 11.260043,8.7553757 C10.6078991,6.82603988 9.39410701,5.76090037 9.26482738,5.63162223 C8.91433593,5.28172811 8.03092512,5.01895623 8.05965393,4.52854239 C8.08838273,4.03953374 8.76494614,3.46761847 9.36250532,3.63483694 C9.96006451,3.80205541 10.1956407,5.33091001 10.3766322,5.67799373 C11.1092168,7.08459618 12.5815681,8.28182423 12.6275342,8.31414377 C13.0843223,8.63171835 13.4822162,8.9085422 13.934695,8.89167984 C15.7532284,8.82423037 15.4357751,5.89298891 15.451576,5.54590519 C15.4817412,4.85173775 15.6598598,4.38521227 15.536326,3.65872529 C15.4142285,2.93083312 14.0883941,1.26426918 14.4446313,0.62771483 C14.7994321,-0.0102447202 15.7417369,-0.212593124 16.306258,0.258147954 C16.8722155,0.728889032 16.2746563,2.20856173 16.3809529,3.00811897 C16.4872495,3.8090814 16.9713299,5.26065015 17.317512,6.0011891 C17.6636941,6.74172805 18.1046813,7.86588585 18.9306345,7.77033243 C19.7910623,7.67056343 22.3910193,8.45466349 23.2859216,8.83547195 C24.0070147,9.14321014 26.6357005,7.01293112 27.1844208,6.44382623 C27.7029757,5.90844608 28.1267256,5.27189173 28.3048442,4.90794564 C28.4843993,4.54259436 28.5533484,3.88074646 28.8535644,3.6025174 C29.6120049,2.89851358 30.5715471,4.0634221 30.5916573,4.625501 C30.6117674,5.18898509 29.6766448,5.24238259 29.2342211,5.60351828 C28.7932339,5.96465397 28.333573,6.42977426 27.9155689,7.0747598 C27.648391,7.48788779 26.3182472,9.90061146 26.3757048,10.6425556 C26.4216709,11.2214969 26.731942,12.3442495 27.2088402,12.689928 C27.684302,13.0356065 28.4082679,13.1072716 29.1595262,13.1986094 C29.912221,13.2899472 30.356081,13.3110252 31.1001571,13.1719107 C31.8442332,13.0342013 32.3642247,12.66885 32.9388008,12.3779742 C33.5133769,12.0870984 33.7532625,11.3732582 34.3694954,11.564365 C34.9871647,11.7554718 35.3606392,12.6112369 34.9957834,13.188773 C34.6309275,13.7649039 33.5277413,13.2758952 32.9890762,13.4079838 C32.4518475,13.5428827 31.7307545,13.7072908 31.2438012,13.9672523 C30.7568479,14.228619 28.6840645,15.6099279 28.6653908,15.7125073 C28.6481535,15.8164919 28.682628,15.9556064 28.7702509,16.0132195 C28.8593102,16.0722378 30.1334328,16.351872 31.0024792,16.4628826 C31.8715256,16.5738932 32.9115084,16.6315063 33.8021014,16.5008229 C34.6926945,16.3701396 35.8346645,15.4356834 36.4896813,15.8811309 C37.1418253,16.3265785 37.1676812,17.3537777 36.5744313,17.8751058 C35.9811815,18.3950288 34.655347,17.4338739 33.7245337,17.4521415 C32.7937203,17.470409 32.006551,17.7444225 31.1188309,17.9467709 C30.2325472,18.1477141 29.3146618,18.1378777 28.8679288,18.5439797 C28.4211959,18.9500817 28.561967,19.4250384 28.3508103,19.9843069" id="Fill-55" fill="#C5C9CA"></path>
                <path d="M20.9616095,21.2975555 C20.7230681,20.4926626 20.271949,19.6877696 18.9202146,20.1217374 C17.5684801,20.5571713 17.7534714,22.7460697 19.1636241,22.9894435 C20.1421306,23.1111305 21.2180009,22.1581606 20.9616095,21.2975555" id="Fill-59" fill="#FFFFFA"></path>
            </g>
            <g id="Group-96" transform="translate(511.519940, 82.829200)">
                <path d="M51.3381693,37.0308325 C50.9555843,38.0674799 50.4868675,40.0806211 49.5975075,41.4781902 C48.4157003,43.3389423 54.3607915,47.9005919 55.6888223,48.8429986 C57.01485,49.7854054 59.7189851,49.7553286 60.0114324,50.94236 C60.3038796,52.1334017 59.3263848,53.3886073 58.1025133,53.43272 C56.8806448,53.4728224 56.2777228,51.1950052 54.9777349,50.1322912 C54.3187271,49.5949189 47.6825792,44.8327572 46.1261993,45.9115121 C45.3510139,46.4488845 43.0154423,48.0670169 42.6989584,49.9357894 C42.5627501,50.7318223 42.9693719,53.5129248 43.3659784,55.0428319 C43.7645879,56.5747441 44.4876937,57.8359651 45.0485513,58.7302489 C45.609409,59.6245327 46.7791978,60.4947551 46.7391365,61.5514537 C46.68906,62.8247054 43.7746032,63.4202263 43.1977211,62.6703111 C42.5427194,61.8161297 43.2237609,60.4386117 43.0294638,59.512246 C42.8311605,58.5858802 42.4525816,57.120137 41.7254697,55.7406139 C41.0003609,54.3651011 38.0518521,50.5674024 36.8540204,50.5674024 C35.9826879,50.5674024 30.9890517,50.8180425 29.4126411,50.2927009 C27.2573453,49.5728626 26.3419455,51.5960294 25.4125242,52.6467126 C24.4831029,53.6973959 23.8321075,54.2407836 23.2572284,55.5220557 C22.6843523,56.8013228 23.4294918,60.1238078 22.0453752,60.8496615 C20.6632617,61.5755152 18.7803824,60.7794823 18.3717576,59.2716315 C17.9631327,57.7617756 21.0578651,56.0113052 21.68883,54.7380535 C22.3197948,53.466807 22.3979143,52.3760213 22.7103921,51.2511486 C23.0208669,50.1222656 23.7680094,49.4826321 23.4635439,48.3517441 C23.1570752,47.2248662 21.7589372,46.3466233 21.0698835,45.9576299 C20.3788267,45.5666314 19.8860732,45.3801551 19.0988695,45.4643702 C18.3096626,45.5465802 17.7608233,46.1601471 16.8794756,46.5551559 C15.9981278,46.9501647 13.8027707,47.7181259 12.9154138,48.1692781 C12.0300599,48.6204302 11.46119,48.8149269 10.7541088,49.5167192 C10.0470275,50.2145012 9.34996157,52.4421903 8.34642698,52.4462006 C7.34289239,52.4522159 6.2091587,50.5413359 6.52964879,49.6570776 C6.85013888,48.7688092 9.01344697,48.5923585 9.86074265,48.1833139 C10.7080383,47.7742693 11.3610369,47.3391581 12.1702743,46.6032788 C12.9795118,45.8714097 14.1232608,44.3455129 14.8523758,43.4131317 C15.5814907,42.4787455 16.4588323,42.1258442 16.6330988,40.9528486 C16.8113714,39.779853 16.1764005,37.437872 15.114777,36.4974704 C14.0511506,35.5590739 12.8352913,36.0222568 11.5593401,35.7575808 C10.2793828,35.4929049 9.36398301,35.1801061 8.28433202,35.0878705 C7.20468104,34.9936298 6.57972536,34.9936298 5.51008969,35.1720856 C4.44045402,35.3485362 2.4193634,37.2774623 1.2375562,36.5877008 C0.0537459303,35.8999444 -0.443013707,34.1775457 0.476392235,33.1629546 C1.39579818,32.1483635 4.47250303,33.4777586 5.47603762,33.5158559 C6.47957221,33.5579634 7.05845743,33.5980658 8.04596752,33.4095845 C9.03147454,33.2251134 10.5578086,32.5413672 11.8117261,32.1082611 C13.0656435,31.6731499 15.3391201,30.4600519 15.5434325,29.1466978 C15.7898093,27.5606473 18.608119,21.078092 20.3688114,20.0213934 C21.4564747,19.3677241 20.7874516,17.4287723 20.3888421,16.2216897 C19.2090379,12.6485645 17.0116778,10.6735206 16.7773194,10.4349113 C16.1443514,9.78525215 14.5439041,9.29800782 14.5959837,8.39169325 C14.6480633,7.48537869 15.8719349,6.42466983 16.9535889,6.73546354 C18.037246,7.04625725 18.4638985,9.8774877 18.7903977,10.5191263 C20.1184286,13.1277884 22.7845055,15.3454519 22.8686341,15.4056055 C23.6938961,15.9931059 24.4149988,16.5084219 25.2322485,16.47634 C28.5272873,16.3520225 27.9524082,10.9201505 27.978448,10.2745016 C28.0345337,8.98921923 28.3570269,8.12701732 28.1346869,6.77757107 C27.9123469,5.43012995 25.5126774,2.34224404 26.1576637,1.16122794 C26.8006469,-0.0197881633 28.5052536,-0.392740617 29.5288188,0.477481775 C30.552384,1.34970929 29.47073,4.08870419 29.663024,5.57449864 C29.8553181,7.05628285 30.7306566,9.74915998 31.3596184,11.1206625 C31.9865772,12.4921651 32.7837962,14.5774907 34.2800843,14.3990349 C35.8384674,14.2125587 40.5476686,15.6682763 42.1661436,16.3720737 C43.4721407,16.9395229 48.2314185,12.9934453 49.2289439,11.9387518 C50.1663774,10.946217 50.9315475,9.76720606 51.2560437,9.09148038 C51.58054,8.4157547 51.7067329,7.19062594 52.249563,6.67530992 C53.6216612,5.37198145 55.3603199,7.52748622 55.3963751,8.57215412 C55.4304271,9.61281177 53.7378389,9.7130678 52.9386167,10.3827781 C52.1393945,11.0504833 51.3081234,11.9146904 50.5509655,13.1097423 C50.0682273,13.8736933 47.6585425,18.3471176 47.7627018,19.7206253 C47.8448274,20.7913598 48.4076881,22.87067 49.2690052,23.5123086 C50.1323254,24.1519421 51.4423286,24.2882903 52.8024084,24.4567204 C54.1664944,24.6251506 54.9677196,24.6632479 56.3177841,24.4085976 C57.6658455,24.1519421 58.6052821,23.4742113 59.6468749,22.9348338 C60.6884677,22.3954563 61.1211293,21.0720767 62.2388385,21.426983 C63.3565477,21.7818894 64.0315799,23.369945 63.3705691,24.4366692 C62.7115613,25.5053986 60.7125044,24.5970789 59.7390158,24.8457139 C58.7655271,25.0923437 57.45953,25.3971221 56.5781823,25.8803562 C55.6968345,26.3635903 51.9410913,28.9241294 51.9090423,29.116621 C51.8769933,29.3051023 51.9390882,29.5637629 52.0993333,29.6720394 C52.2575753,29.780316 54.567107,30.2996422 56.1395115,30.5041645 C57.713919,30.710692 59.5988014,30.8169634 61.2092641,30.5743438 C62.8217298,30.3317242 64.890894,28.601305 66.0747042,29.4274147 C67.2585145,30.2515193 67.3025819,32.156384 66.2289401,33.1208471 C65.1552983,34.083305 62.7536257,32.3027578 61.0690496,32.3368449 C59.3844736,32.372937 57.9582927,32.8802326 56.3518361,33.253185 C54.7453796,33.6261375 53.0848403,33.6060863 52.2756028,34.3600117 C51.4663654,35.1119319 51.7207544,35.9921799 51.3381693,37.0308325" id="Fill-63" fill="#C5C9CA"></path>
                <path d="M35.9489451,39.1638856 C35.629065,37.8205195 35.0292898,36.4790349 33.2266322,37.203399 C31.4239745,37.9296445 31.6722148,41.5759238 33.5515104,41.9823203 C34.8543554,42.1855185 36.2904837,40.5994434 35.9489451,39.1638856" id="Fill-65" fill="#FFFFFA"></path>
            </g>
            <g id="Group-96" transform="translate(647.519940, 133.829200)">
                <path d="M157.559533,113.593461 C156.388937,116.769223 154.954804,122.936465 152.233627,127.217907 C148.61765,132.918306 166.807854,146.892883 170.871232,149.779939 C174.928481,152.666994 183.202328,152.574854 184.097129,156.211316 C184.99193,159.860062 182.001088,163.705375 178.256406,163.840514 C174.517853,163.963367 172.673092,156.985292 168.695517,153.729676 C166.67915,152.08344 146.374518,137.494596 141.61246,140.799353 C139.240624,142.445589 132.094473,147.402725 131.126126,153.127695 C130.70937,155.566335 131.953511,164.08622 133.167008,168.773079 C134.386635,173.46608 136.599122,177.32982 138.315179,180.069451 C140.031236,182.809083 143.610441,185.475002 143.487865,188.71219 C143.334646,192.612786 134.417278,194.43716 132.652191,192.139801 C130.648082,189.523023 132.731865,185.303007 132.137374,182.465093 C131.530625,179.627179 130.372287,175.136886 128.147542,170.910728 C125.928925,166.696856 116.907368,155.062636 113.242361,155.062636 C110.576344,155.062636 95.2973075,155.83047 90.4739615,154.22109 C83.8793996,152.015871 81.0785494,158.213826 78.2347978,161.432586 C75.3910462,164.651346 73.3991943,166.31601 71.6402359,170.241177 C69.8874062,174.160201 72.1673106,184.338608 67.932327,186.562255 C63.7034723,188.785902 57.9424237,186.347262 56.6921536,181.727973 C55.4418835,177.102541 64.9108409,171.739989 66.8414051,167.839393 C68.7719692,163.944939 69.0109914,160.603326 69.9670803,157.157287 C70.9170404,153.698963 73.2030735,151.739451 72.2714997,148.274984 C71.3337971,144.822803 67.0559122,142.132313 64.9476136,140.940634 C62.8331862,139.742814 61.3255075,139.171545 58.916899,139.429537 C56.5021616,139.681387 54.8228772,141.561044 52.1262162,142.771151 C49.4295552,143.981257 42.7124178,146.3339 39.9973705,147.716001 C37.2884519,149.098102 35.5478798,149.693941 33.3844222,151.843876 C31.2209647,153.981526 29.0881509,160.806034 26.0176347,160.818319 C22.9471184,160.836747 19.4782317,154.982781 20.4588357,152.273863 C21.4394397,149.55266 28.0585167,149.012105 30.6509886,147.759 C33.2434604,146.505895 35.2414411,145.172935 37.7174662,142.918575 C40.1934913,140.6765 43.6930218,136.001927 45.9238959,133.145584 C48.15477,130.2831 50.8391735,129.201989 51.3723769,125.608527 C51.9178379,122.015064 49.9750162,114.840424 46.7267654,111.959511 C43.4723859,109.084741 39.7522195,110.503698 35.8481898,109.692865 C31.9319026,108.882032 29.1310524,107.923776 25.8276426,107.641213 C22.5242329,107.352507 20.6120551,107.352507 17.3392892,107.899205 C14.0665234,108.43976 7.88258938,114.34901 4.26661212,112.235931 C0.644506086,110.128995 -0.875430118,104.85244 1.93767762,101.744248 C4.75078535,98.6360565 14.1645838,102.708648 17.2351001,102.825358 C20.3056163,102.954355 22.0768323,103.077208 25.0983184,102.499797 C28.1136757,101.934671 32.7838023,99.8400201 36.6204154,98.5132031 C40.4570286,97.1802434 47.4131883,93.4639272 48.0383233,89.4404774 C48.7921626,84.5816243 57.4153491,64.7223677 62.8025423,61.4851798 C66.1304672,59.482669 64.0834563,53.5427057 62.8638301,49.8448175 C59.2539816,38.8985771 52.5307154,32.8480457 51.8136487,32.1170678 C49.8769558,30.1268423 44.9800596,28.6341732 45.1394127,25.8576857 C45.2987609,23.0811982 49.0434424,19.831725 52.3529809,20.7838391 C55.6686482,21.7359532 56.9740773,30.4094052 57.9730676,32.37506 C62.0364454,40.3666755 70.193845,47.1604701 70.4512535,47.3447503 C72.9763089,49.144553 75.1826679,50.7232195 77.6832081,50.6249368 C87.765043,50.2440912 86.0060845,33.6035943 86.0857586,31.6256541 C86.2573643,27.6882018 87.2440971,25.046853 86.5638031,20.9128352 C85.883509,16.78496 78.5412366,7.32524604 80.5147021,3.70721258 C82.4820389,0.0891791187 87.6976264,-1.05335776 90.8294305,1.61256163 C93.9612345,4.28462369 90.651696,12.6755128 91.2400584,17.2272323 C91.8284208,21.7666665 94.5066955,30.0162742 96.4311308,34.2178615 C98.3494374,38.4194487 100.78869,44.807827 105.366885,44.2611292 C110.135072,43.6898608 124.543822,48.1494402 129.495872,50.3055179 C133.491833,52.0438939 148.053803,39.9551166 151.105933,36.7240714 C153.974199,33.683449 156.315392,30.0715583 157.308253,28.001478 C158.301115,25.9313977 158.687227,22.1782255 160.348126,20.5995589 C164.546336,16.6068225 169.866113,23.2101943 169.976431,26.4105261 C170.08062,29.5985726 164.901805,29.9057061 162.456424,31.9573584 C160.011043,34.002868 157.467601,36.6503593 155.150924,40.3113915 C153.67389,42.6517493 146.300973,56.3560492 146.619669,60.5637791 C146.870949,63.8439657 148.593135,70.2139159 151.228508,72.1795708 C153.87001,74.1390829 157.878229,74.5567846 162.039667,75.072769 C166.213363,75.5887534 168.664873,75.7054641 172.795668,74.9253449 C176.920333,74.1390829 179.794729,72.06286 182.981692,70.4104814 C186.168655,68.7581028 187.49247,64.7039397 190.912327,65.7911925 C194.332183,66.8784453 196.39758,71.7434411 194.375084,75.0113423 C192.358717,78.2853861 186.2422,75.502756 183.263615,76.2644472 C180.285031,77.0199958 176.289069,77.9536819 173.592408,79.4340657 C170.895747,80.9144495 159.404294,88.7586409 159.306234,89.3483373 C159.208173,89.9257485 159.398165,90.7181531 159.888467,91.0498573 C160.372641,91.3815616 167.439118,92.9725135 172.250207,93.599066 C177.067424,94.2317611 182.834601,94.5573227 187.762136,93.8140595 C192.6958,93.0707962 199.026825,87.7696708 202.648931,90.3004514 C206.271037,92.8250894 206.40587,98.6606272 203.120846,101.615252 C199.835823,104.563734 192.487422,99.1090422 187.333122,99.2134676 C182.178822,99.3240357 177.815134,100.878132 172.899857,102.020668 C167.984579,103.163205 162.903825,103.101779 160.4278,105.411423 C157.951774,107.714925 158.730129,110.411558 157.559533,113.593461" id="Fill-63" fill="#C5C9CA"></path>
                <path d="M110.326895,119.641457 C109.367255,115.611359 107.567929,111.586905 102.159956,113.759997 C96.7519831,115.938733 97.496704,126.877571 103.134591,128.096761 C107.043126,128.706356 111.351511,123.94813 110.326895,119.641457" id="Fill-65" fill="#FFFFFA"></path>
            </g>
            <path d="M745.143035,399.76075 C745.013004,400.123891 744.85145,400.824091 744.546075,401.311623 C744.140221,401.963672 746.181311,403.556677 746.636419,403.88571 C747.091526,404.214744 748.019473,404.204713 748.119952,404.620017 C748.22043,405.035322 747.885502,405.474703 747.465857,405.48674 C747.046213,405.500785 746.839345,404.708295 746.392118,404.335122 C746.16752,404.148536 743.88804,402.483304 743.354126,402.862496 C743.088154,403.049082 742.286297,403.614859 742.177938,404.266908 C742.130654,404.545784 742.270536,405.516835 742.406477,406.052518 C742.544389,406.586195 742.792629,407.025575 742.983735,407.338559 C743.176811,407.651542 743.578725,407.954494 743.564934,408.323654 C743.547202,408.767047 742.546359,408.975702 742.349343,408.714883 C742.124744,408.415943 742.357223,407.934431 742.290238,407.611416 C742.223252,407.288401 742.093221,406.774787 741.843011,406.295281 C741.59477,405.813768 740.582106,404.487601 740.172312,404.487601 C739.872847,404.487601 738.158805,404.573872 737.61701,404.393305 C736.878198,404.140511 736.562972,404.84673 736.243806,405.213883 C735.924639,405.57903 735.702011,405.769629 735.504994,406.219041 C735.307978,406.664441 735.564099,407.82609 735.08732,408.078885 C734.61448,408.331679 733.966297,408.054809 733.826415,407.527151 C733.686533,406.999493 734.748452,406.389577 734.96517,405.944178 C735.181888,405.500785 735.20947,405.119587 735.315859,404.726351 C735.422247,404.333116 735.680339,404.10841 735.57592,403.715175 C735.469531,403.319933 734.990782,403.014975 734.752392,402.878546 C734.515972,402.740111 734.348508,402.675909 734.076626,402.706004 C733.804743,402.734092 733.617578,402.948767 733.316143,403.087202 C733.012737,403.225637 732.258165,403.492475 731.95476,403.648967 C731.649384,403.809471 731.454338,403.875679 731.212008,404.120448 C730.969678,404.365217 730.731288,405.143663 730.384539,405.145669 C730.039761,405.147675 729.651638,404.479576 729.761968,404.168599 C729.872297,403.859628 730.613078,403.799439 730.904662,403.654985 C731.196247,403.512538 731.420845,403.360059 731.698638,403.103252 C731.976431,402.848451 732.368494,402.314775 732.618705,401.987747 C732.870886,401.662726 733.170351,401.540342 733.231426,401.131056 C733.290531,400.72177 733.073813,399.903198 732.707362,399.574164 C732.342882,399.247137 731.927177,399.407641 731.487831,399.315351 C731.050455,399.223061 730.735228,399.114721 730.364838,399.08262 C729.994447,399.050519 729.779699,399.050519 729.411278,399.112714 C729.044828,399.172904 728.35133,399.847022 727.945477,399.606265 C727.537653,399.365509 727.368219,398.765624 727.683445,398.410508 C727.998671,398.055393 729.054679,398.518849 729.399457,398.534899 C729.744236,398.548943 729.943223,398.560981 730.282091,398.496779 C730.620959,398.430571 731.145022,398.193827 731.574518,398.041348 C732.005984,397.888869 732.786169,397.465539 732.857095,397.008102 C732.941812,396.454362 733.907192,394.191252 734.512032,393.820086 C734.884393,393.593374 734.655854,392.915243 734.519913,392.493919 C734.114059,391.245999 733.361456,390.55583 733.28068,390.473572 C733.061992,390.24686 732.512316,390.076324 732.530047,389.759328 C732.547779,389.442332 732.969394,389.073172 733.339785,389.181512 C733.712146,389.287847 733.857938,390.276954 733.972207,390.503666 C734.427315,391.414528 735.341471,392.188961 735.371023,392.209024 C735.654727,392.413667 735.900997,392.594235 736.182731,392.582197 C737.311634,392.538058 737.114618,390.642101 737.124469,390.417395 C737.14417,389.967983 737.2545,389.667038 737.177663,389.195557 C737.100827,388.726082 736.277298,387.64669 736.499927,387.235398 C736.720585,386.8221 737.305724,386.69169 737.656413,386.996648 C738.007102,387.2996 737.636711,388.258613 737.703697,388.774233 C737.768712,389.293865 738.070147,390.232815 738.284895,390.712322 C738.499643,391.191828 738.773496,391.920117 739.287708,391.857921 C739.821623,391.791713 741.439127,392.299308 741.994713,392.546083 C742.44391,392.744707 744.077176,391.366377 744.418014,390.999223 C744.741121,390.652133 745.003153,390.240841 745.115452,390.004097 C745.225781,389.769359 745.269125,389.342017 745.456291,389.161449 C745.92716,388.704012 746.524119,389.458382 746.53594,389.821523 C746.547761,390.18667 745.966563,390.220778 745.69271,390.453509 C745.418857,390.690253 745.133184,390.989192 744.873122,391.406503 C744.707628,391.675348 743.88016,393.236252 743.915623,393.715758 C743.945175,394.090937 744.136281,394.815212 744.433776,395.037912 C744.7293,395.264624 745.178497,395.310769 745.645426,395.370959 C746.114325,395.429141 746.390148,395.443185 746.853136,395.352902 C747.316125,395.264624 747.639232,395.027881 747.995831,394.839288 C748.352431,394.650696 748.502163,394.18724 748.884375,394.31163 C749.268557,394.436021 749.501036,394.989761 749.274468,395.362933 C749.045929,395.736106 748.360312,395.41911 748.027354,395.505381 C747.692426,395.591652 747.243229,395.699992 746.941794,395.868522 C746.638389,396.037051 745.349902,396.929856 745.340051,396.996064 C745.32823,397.062272 745.349902,397.152556 745.405066,397.190676 C745.460231,397.228796 746.250266,397.409363 746.792061,397.48159 C747.331886,397.55181 747.9781,397.591936 748.531716,397.505665 C749.085332,397.421401 749.794591,396.817503 750.202415,397.106411 C750.608268,397.393312 750.62403,398.057399 750.255609,398.394458 C749.887188,398.731517 749.06169,398.109563 748.482462,398.121601 C747.905204,398.131632 747.416603,398.310193 746.864957,398.442609 C746.313312,398.571013 745.741964,398.564994 745.464171,398.827819 C745.186378,399.090645 745.275035,399.39761 745.143035,399.76075" id="Fill-69" fill="#C5C9CA"></path>
            <path d="M742.456122,397.992527 C742.056272,396.648897 741.306553,395.307148 739.053231,396.033537 C736.799909,396.758043 737.110209,400.40504 739.459328,400.811517 C741.087885,401.014755 742.883045,399.428368 742.456122,397.992527" id="Fill-71" fill="#FFFFFA"></path>
            <g id="Group-101" transform="translate(110.519940, 437.829200)">
                <path d="M27.5844564,19.3976715 C27.379653,19.9398611 27.1282111,20.9945584 26.6496605,21.7267123 C26.0149727,22.700279 29.2086896,25.0906624 29.92246,25.585361 C30.6342027,26.0780807 32.0881043,26.0622504 32.2442416,26.6855706 C32.4003788,27.3069119 31.8772176,27.9658504 31.2181966,27.9876172 C30.5632312,28.0113627 30.2387901,26.816171 29.539214,26.2601298 C29.1863843,25.9771622 25.6215878,23.4819027 24.7841243,24.0498167 C24.3684341,24.3308055 23.1112249,25.1777294 22.9408933,26.1552537 C22.8699219,26.5747581 23.0868918,28.0291718 23.3018341,28.8345411 C23.5147485,29.6359527 23.9040778,30.2948912 24.2041858,30.7638654 C24.5063216,31.2308609 25.1349262,31.6879623 25.1126209,32.2400459 C25.08626,32.9088783 23.5208318,33.219549 23.210585,32.8277478 C22.8577553,32.3805403 23.2247793,31.6582804 23.1193359,31.1734758 C23.0138926,30.6866925 22.8111169,29.9189203 22.4197598,29.1986392 C22.0304305,28.4763793 20.4447247,26.4876911 19.8019258,26.4876911 C19.333514,26.4876911 16.6507917,26.6182916 15.8031894,26.345218 C14.6453402,25.9672683 14.1546231,27.0259232 13.6537672,27.576028 C13.154939,28.1261327 12.8041371,28.4130579 12.4979458,29.0838691 C12.187699,29.7527016 12.5891948,31.4920617 11.8450081,31.873969 C11.1028491,32.2538975 10.0909984,31.8363719 9.87200071,31.046833 C9.65300298,30.2553153 11.3137358,29.3371548 11.6543989,28.6722799 C11.9930343,28.0074051 12.0356172,27.4355336 12.2018933,26.8458529 C12.3701971,26.2561722 12.7716929,25.9197772 12.6074446,25.3281177 C12.4431963,24.7364583 11.6929263,24.2793568 11.3198191,24.0715834 C10.9487396,23.8677676 10.6851312,23.7708067 10.26133,23.8143402 C9.83752885,23.8578736 9.54350411,24.1784383 9.06900902,24.3862117 C8.59654168,24.5939851 7.41638722,24.9956803 6.93986437,25.2311568 C6.46334152,25.4686121 6.159178,25.5695306 5.77795972,25.9375864 C5.3987692,26.3036633 5.02363419,27.4691731 4.48425087,27.4731307 C3.94486756,27.4751095 3.33654052,26.4738396 3.50889985,26.0108017 C3.68125918,25.5457851 4.84316383,25.4547606 5.29738135,25.239072 C5.75362664,25.0253622 6.10442856,24.7978009 6.53836852,24.411936 C6.97433623,24.0280499 7.58874655,23.2305959 7.98010361,22.7398549 C8.37146068,22.2491139 8.84392801,22.0670649 8.93720482,21.4516599 C9.03250939,20.8382337 8.69184625,19.6094025 8.12001883,19.1186615 C7.55021917,18.6259417 6.89728148,18.8673546 6.20987192,18.7308178 C5.52449012,18.5923022 5.03174521,18.4280623 4.45180677,18.3785925 C3.87186832,18.3311014 3.53526069,18.3311014 2.95937776,18.4241047 C2.38552258,18.5171081 1.30067269,19.5262931 0.663957049,19.1661526 C0.0292691685,18.8040332 -0.23839473,17.9036819 0.256377931,17.373365 C0.751150592,16.8390906 2.40377239,17.5356261 2.94112794,17.5554141 C3.48051126,17.5771808 3.7927858,17.5989476 4.32203033,17.5019866 C4.85330261,17.4030469 5.67251636,17.046864 6.34573162,16.8173238 C7.02097464,16.5897625 8.24168424,15.9565484 8.35118311,15.267928 C8.48501506,14.4368344 9.99772164,11.0412235 10.9426563,10.4871612 C11.528678,10.1448298 11.1697651,9.12970834 10.9548228,8.49649419 C10.320135,6.62455487 9.13998051,5.5916243 9.01425958,5.46696026 C8.67359644,5.12660766 7.81382755,4.8713432 7.84221615,4.39643259 C7.87060474,3.92152198 8.52962571,3.36548081 9.10956415,3.52774194 C9.69153036,3.69198186 9.92066688,5.17409872 10.0970817,5.51049373 C10.8108521,6.87784053 12.2424484,8.03939273 12.2870591,8.06907465 C12.7311378,8.37776654 13.1184394,8.64688255 13.5584626,8.6310522 C15.3286943,8.5637732 15.0184475,5.72024592 15.0346695,5.38187211 C15.0630581,4.70908208 15.2374452,4.257917 15.1178076,3.55148747 C14.9961422,2.84505793 13.7085166,1.22640427 14.055263,0.609020478 C14.3999817,-0.0103421095 15.3165277,-0.206242736 15.8660498,0.250858726 C16.4155719,0.707960188 15.8356335,2.14258599 15.9370213,2.92025211 C16.0424647,3.69593944 16.5129043,5.10681971 16.8495119,5.82512201 C17.1861195,6.54342431 17.6139762,7.63571871 18.4189957,7.54271539 C19.2564592,7.44575447 21.7870997,8.20759024 22.6570074,8.57564596 C23.3586112,8.87444389 25.9156126,6.80660394 26.4509404,6.25254156 C26.9538241,5.73607627 27.3674864,5.11671369 27.5418735,4.76250952 C27.7142329,4.41028415 27.7831766,3.76717604 28.0751736,3.49806002 C28.8112493,2.81339723 29.7460452,3.94328872 29.764295,4.48943592 C29.7845726,5.03558312 28.8741098,5.08901057 28.4442253,5.43727835 C28.0143409,5.78950372 27.5682344,6.2406688 27.162683,6.86794656 C26.9031301,7.26766299 25.6073935,9.61055533 25.6641707,10.3308364 C25.7087814,10.8908352 26.0088894,11.9811508 26.4732457,12.315567 C26.937602,12.651962 27.6392059,12.7231986 28.3732538,12.8122444 C29.105274,12.8993113 29.5351585,12.921078 30.2590677,12.7845412 C30.9850046,12.651962 31.489916,12.2957791 32.0495769,12.0147903 C32.6092378,11.7318227 32.8404021,11.037266 33.4426458,11.2232726 C34.0428619,11.4112581 34.4058303,12.2423516 34.0509729,12.8003716 C33.6961154,13.3583916 32.6214043,12.8854597 32.0982431,13.0140814 C31.5750818,13.1446818 30.873478,13.3049641 30.3989829,13.5582498 C29.9265155,13.8095566 27.9088975,15.1511791 27.8906477,15.2501188 C27.8744257,15.3510373 27.9068698,15.4855953 27.9940633,15.5429804 C28.0792291,15.6003654 29.3181885,15.8714602 30.1637631,15.9783151 C31.0093377,16.08517 32.0232161,16.142555 32.8890682,16.0159122 C33.7549204,15.8892694 34.8661311,14.9829816 35.5028468,15.4143587 C36.1395624,15.8457359 36.1618677,16.845027 35.5859848,17.3496195 C35.0101019,17.854212 33.7184208,16.9202211 32.8140412,16.9400091 C31.9076339,16.9578182 31.1411419,17.2229767 30.2793452,17.4188773 C29.4155208,17.6147779 28.5212801,17.6048839 28.0873401,17.998664 C27.6534002,18.392444 27.7912876,18.8535031 27.5844564,19.3976715" id="Fill-73" fill="#A4A6B2"></path>
                <path d="M22.9105423,17.4599666 C22.3507862,15.3119422 21.3022021,13.1658975 18.1468649,14.3260286 C14.9934446,15.4861598 15.4247635,21.3224511 18.7142888,21.9718078 C20.9954864,22.2964861 23.5086378,19.756472 22.9105423,17.4599666" id="Fill-75" fill="#FFFFFA"></path>
            </g>
            <g id="Group-106" transform="translate(146.000000, 128.540113)">
                <g id="Group-95" transform="translate(0.000000, 0.438887)">
                    <polygon id="Fill-21" stroke="#C5C9CA" stroke-width="2" fill="#F1F1F1" points="10.2416201 154.378281 57.4650838 188.491143 58.3393855 175.369845 15.4902235 148.255568"></polygon>
                    <path d="M34.9162011,150.782322 C34.9162011,160.42608 27.0999601,168.243861 17.4581006,168.243861 C7.81624102,168.243861 0,160.42608 0,150.782322 C0,141.138564 7.81624102,133.320784 17.4581006,133.320784 C27.0999601,133.320784 34.9162011,141.138564 34.9162011,150.782322" id="Fill-20" stroke="#C5C9CA" stroke-width="2" fill="#F1F1F1"></path>
                    <polygon id="Fill-23" stroke="#C5C9CA" stroke-width="2" fill="#F1F1F1" points="481.046927 154.378281 433.823464 188.491143 432.949162 175.369845 475.799721 148.255568"></polygon>
                    <path d="M500,148.686937 C500,137.885928 491.24581,129.130014 480.446927,129.130014 C469.648045,129.130014 460.893855,137.885928 460.893855,148.686937 C460.893855,159.487947 469.648045,168.243861 480.446927,168.243861 C491.24581,168.243861 500,159.487947 500,148.686937" id="Fill-22" stroke="#C5C9CA" stroke-width="2" fill="#F1F1F1"></path>
                    <path d="M145.251397,423.880784 C145.251397,440.082297 132.120112,453.216168 115.921788,453.216168 C99.7234637,453.216168 86.5921788,440.082297 86.5921788,423.880784 L86.5921788,383.370014 C86.5921788,367.168501 99.7234637,354.03463 115.921788,354.03463 C132.120112,354.03463 145.251397,367.168501 145.251397,383.370014 L145.251397,423.880784 Z" id="Fill-24" stroke="#C5C9CA" fill="#C5C9CA"></path>
                    <path d="M407.821089,423.880784 C407.821089,440.082297 394.689804,453.216168 378.49148,453.216168 C362.293156,453.216168 349.161872,440.082297 349.161872,423.880784 L349.161872,383.370014 C349.161872,367.168501 362.293156,354.03463 378.49148,354.03463 C394.689804,354.03463 407.821089,367.168501 407.821089,383.370014 L407.821089,423.880784 Z" id="Fill-25" stroke="#C5C9CA" fill="#C5C9CA"></path>
                    <path d="M435.620391,373.592251 L56.0030726,373.592251 C54.9360335,368.004559 45.6622905,315.917488 44.2111732,252.486005 C43.3955307,216.728965 45.0575419,177.081494 52.0882682,140.192947 C58.9891061,103.938602 71.0687151,70.1163005 91.0324022,44.5358452 C91.0324022,44.5358452 132.223743,-0.126579459 245.95,8.73464719e-13 C358.850838,-0.126579459 400.739106,44.5498144 400.739106,44.5498144 C419.95419,69.1566144 431.852235,101.378042 438.859218,136.085993 C447.827095,180.463445 448.790782,229.118276 446.853631,270.599907 C444.279609,325.574417 436.582682,368.004559 435.620391,373.592251 Z" id="Fill-26" stroke="#C5C9CA" stroke-width="2" fill="#F1F1F1"></path>
                    <path d="M267.904469,368.467499 L240.910056,370.055801 C201.07486,194.97105 98.8122905,151.166336 52.0860335,140.228429 C58.9882682,103.974084 71.0664804,70.1350193 91.0315642,44.5545639 C91.0315642,44.5545639 132.222905,-0.116242228 245.949162,0.00895219792 C358.85,-0.116242228 400.738268,44.5545639 400.738268,44.5545639 C419.951955,69.1613639 431.851397,101.423302 438.859777,136.120078 C274.795531,168.541265 267.904469,368.467499 267.904469,368.467499 Z" id="Fill-27"></path>
                    <path d="M446.853631,270.599907 C444.279609,325.574417 436.582682,368.004559 435.620391,373.592251 L56.0030726,373.592251 C54.9360335,368.004559 45.6622905,316.135408 44.2111732,252.701131 C128.011453,297.772854 303.103631,370.277353 446.853631,270.599907" id="Fill-28" stroke="#C5C9CA" stroke-width="2" fill="#C5C9CA"></path>
                    <path d="M468.689944,377.988368 C468.689944,379.259568 468.551676,380.737513 468.287709,381.934676 C466.593575,389.80075 459.596369,395.943021 451.222067,395.943021 L40.4818436,395.943021 C32.1089385,395.943021 25.1103352,389.550701 23.4175978,381.684627 C23.1522346,380.490257 23.0153631,379.006725 23.0153631,377.735525 C23.0153631,372.906362 24.9734637,368.922337 28.1298883,365.754116 C31.2932961,362.599864 35.6536313,361.019944 40.4818436,361.019944 L451.222067,361.019944 C460.864525,361.019944 468.689944,368.344011 468.689944,377.988368" id="Fill-30" stroke="#C5C9CA" fill="#FFFFFF"></path>
                    <path d="M468.28757,381.973091 C466.593436,388.957707 459.596229,395.942322 451.221927,395.942322 L40.4817039,395.942322 C32.1087989,395.942322 25.1115922,388.957707 23.4174581,381.973091 L468.28757,381.973091 Z" id="Fill-31" fill="#C9CDCE"></path>
                    <path d="M104.548045,109.041003 C104.581564,110.437926 104.726816,112.496991 104.962849,113.726283 C107.17933,125.524696 117.363687,134.717846 129.18352,134.717846 L197.792458,134.717846 C211.152793,134.717846 223.464246,122.137157 223.464246,108.253139 L223.464246,61.1991818 C223.464246,47.6727756 211.37905,38.3301541 197.792458,38.3301541 L142.902793,38.3301541 C130.084358,38.3301541 122.9,45.141551 118.102514,63.3686033 C118.089944,63.4119079 118.078771,63.1409048 118.067598,63.1828125 L104.548045,109.041003 Z M197.792458,143.099385 L129.18352,143.099385 C112.782682,143.099385 98.6597765,131.212966 95.602514,114.930431 C95.2170391,112.918862 95.0117318,110.641877 95.0117318,108.422166 C95.0117318,107.968166 95.0773743,107.4988 95.2058659,107.06296 L108.905587,60.7619448 C112.613687,46.703311 120.177933,28.5516925 142.902793,28.5516925 L197.792458,28.5516925 C216.721229,28.5516925 233.240782,42.3309418 233.240782,61.1991818 L233.240782,108.253139 C233.240782,127.392382 216.406983,143.099385 197.792458,143.099385 L197.792458,143.099385 Z" id="Fill-34" fill="#C5C9CA"></path>
                    <path d="M373.638687,62.8696224 C373.626117,62.8277147 373.613547,63.4116285 373.605168,63.3683239 C368.806285,45.1412716 361.621927,38.3298747 348.802095,38.3298747 L293.913827,38.3298747 C280.325838,38.3298747 270.95014,47.6738932 270.95014,61.2002993 L270.95014,108.252859 C270.95014,122.136878 280.552095,134.717567 293.913827,134.717567 L362.521369,134.717567 C374.342598,134.717567 384.526955,125.524416 386.742039,113.727401 C386.979469,112.496712 387.121927,110.760336 387.15824,109.363413 L373.638687,62.8696224 Z M261.173603,108.252859 L261.173603,61.2002993 C261.173603,42.3306624 274.982263,28.5514132 293.913827,28.5514132 L348.802095,28.5514132 C371.526955,28.5514132 379.092598,46.6946501 382.800698,60.7546808 L396.501816,107.297364 C396.628911,107.731807 396.694553,108.058687 396.694553,108.51129 C396.694553,110.732398 396.487849,112.984238 396.103771,114.991616 C393.045112,131.276945 378.92081,143.099105 362.521369,143.099105 L293.913827,143.099105 C275.297905,143.099105 261.173603,127.392102 261.173603,108.252859 L261.173603,108.252859 Z" id="Fill-35" fill="#C5C9CA"></path>
                    <path d="M229.050279,61.1998802 L229.050279,108.25244 C229.050279,124.494465 214.030726,138.907917 197.791899,138.907917 L129.182961,138.907917 C114.808659,138.907917 102.846369,127.9742 100.28352,114.338834 C99.9469274,112.570329 99.7751397,110.427449 99.7751397,108.563954 L113.49581,61.8326864 C118.396648,43.207511 126.663408,32.7417633 142.902235,32.7417633 L197.791899,32.7417633 C214.030726,32.7417633 229.050279,44.9578556 229.050279,61.1998802" id="Fill-36" fill="#F1F1F1"></path>
                    <path d="M391.909777,108.873233 C391.909777,125.115257 378.739385,138.908476 362.500559,138.908476 L293.893017,138.908476 C277.652793,138.908476 265.363687,124.495024 265.363687,108.252999 L265.363687,61.200439 C265.363687,59.802119 264.960056,58.9038975 265.161173,57.5600575 C267.173743,43.2653436 279.050838,32.7423221 293.893017,32.7423221 L348.781285,32.7423221 C361.464246,32.7423221 369.277095,38.8398913 374.432123,50.5922052 C375.880447,53.8847528 377.109497,57.3519159 378.190503,61.4393128 L385.12486,85.4007344 L391.909777,108.873233 Z" id="Fill-37" stroke="#C5C9CA" stroke-width="2" fill="#F1F1F1"></path>
                    <path d="M165.397765,297.000915 C165.397765,320.682952 146.203631,339.879469 122.526257,339.879469 C98.8488827,339.879469 79.653352,320.682952 79.653352,297.000915 C79.653352,273.318878 98.8488827,254.122361 122.526257,254.122361 C146.203631,254.122361 165.397765,273.318878 165.397765,297.000915" id="Fill-44" fill="#FFFFFF"></path>
                    <path d="M154.28324,297.000915 C154.28324,314.542078 140.065363,328.764152 122.526257,328.764152 C104.987151,328.764152 90.7678771,314.542078 90.7678771,297.000915 C90.7678771,279.456958 104.987151,265.237678 122.526257,265.237678 C140.065363,265.237678 154.28324,279.456958 154.28324,297.000915" id="Fill-45" fill="#C5C9CA"></path>
                    <path d="M94.4715084,235.590779 C94.4715084,243.483395 88.0734637,249.881302 80.1824022,249.881302 C72.2885475,249.881302 65.8918994,243.483395 65.8918994,235.590779 C65.8918994,227.69537 72.2885475,221.297462 80.1824022,221.297462 C88.0734637,221.297462 94.4715084,227.69537 94.4715084,235.590779" id="Fill-46" fill="#FFFFFF"></path>
                    <path d="M90.7670391,235.590779 C90.7670391,241.438299 86.0268156,246.176662 80.1818436,246.176662 C74.3340782,246.176662 69.596648,241.438299 69.596648,235.590779 C69.596648,229.741862 74.3340782,225.002102 80.1818436,225.002102 C86.0268156,225.002102 90.7670391,229.741862 90.7670391,235.590779" id="Fill-47" fill="#C5C9CA"></path>
                    <path d="M326.309497,297.000915 C326.309497,320.682952 345.502235,339.879469 369.179609,339.879469 C392.856983,339.879469 412.052514,320.682952 412.052514,297.000915 C412.052514,273.318878 392.856983,254.122361 369.179609,254.122361 C345.502235,254.122361 326.309497,273.318878 326.309497,297.000915" id="Fill-48" fill="#FFFFFF"></path>
                    <path d="M337.422765,297.000915 C337.422765,314.542078 351.642039,328.764152 369.179749,328.764152 C386.720251,328.764152 400.938128,314.542078 400.938128,297.000915 C400.938128,279.456958 386.720251,265.237678 369.179749,265.237678 C351.642039,265.237678 337.422765,279.456958 337.422765,297.000915" id="Fill-49" fill="#C5C9CA"></path>
                    <path d="M397.234497,235.590779 C397.234497,243.483395 403.632542,249.881302 411.523603,249.881302 C419.417458,249.881302 425.815503,243.483395 425.815503,235.590779 C425.815503,227.69537 419.417458,221.297462 411.523603,221.297462 C403.632542,221.297462 397.234497,227.69537 397.234497,235.590779" id="Fill-50" fill="#FFFFFF"></path>
                    <path d="M400.940223,235.590779 C400.940223,241.438299 405.67905,246.176662 411.524022,246.176662 C417.371788,246.176662 422.110615,241.438299 422.110615,235.590779 C422.110615,229.741862 417.371788,225.002102 411.524022,225.002102 C405.67905,225.002102 400.940223,229.741862 400.940223,235.590779" id="Fill-51" fill="#C5C9CA"></path>
                    <path d="M131.800419,281.664795 C131.800419,285.760573 125.402374,289.078265 117.509916,289.078265 C109.616061,289.078265 103.218017,285.760573 103.218017,281.664795 C103.218017,277.57181 109.616061,274.254118 117.509916,274.254118 C125.402374,274.254118 131.800419,277.57181 131.800419,281.664795" id="Fill-52" fill="#FFFFFF"></path>
                    <path d="M377.397626,281.664795 C377.397626,285.760573 370.999581,289.078265 363.107123,289.078265 C355.213268,289.078265 348.815223,285.760573 348.815223,281.664795 C348.815223,277.57181 355.213268,274.254118 363.107123,274.254118 C370.999581,274.254118 377.397626,277.57181 377.397626,281.664795" id="Fill-53" fill="#FFFFFF"></path>
                    <path d="M290.502793,392.551012 C290.502793,399.47556 284.889665,405.721203 277.96648,405.721203 L217.843575,405.721203 C210.920391,405.721203 205.307263,399.47556 205.307263,392.551012 L205.307263,354.768433 C205.307263,347.841092 210.920391,342.859664 217.843575,342.859664 L277.96648,342.859664 C284.889665,342.859664 290.502793,347.841092 290.502793,354.768433 L290.502793,392.551012 Z" id="Fill-54" stroke="#C5C9CA" fill="#C5C9CA"></path>
                    <path d="M247.905028,66.2684759 L247.905028,27.1546298 L247.905028,66.2684759 Z" id="Fill-1" fill="#FF4729"></path>
                </g>
                <g id="Group-7" transform="translate(281.000000, 54.438887)">
                    <g id="Group-3" transform="translate(28.070175, 0.365852)">
                        <mask id="mask-4" fill="white">
                            <use xlink:href="#path-3"></use>
                        </mask>
                        <g id="Clip-2"></g>
                        <path d="M50.301193,1.62071311 C52.1889123,3.45169672 52.221193,6.45317213 50.378386,8.32456557 L8.60715789,50.728418 C6.76435088,52.5998115 3.74119298,52.6332541 1.85487719,50.800877 L1.60785965,50.5598115 C-0.27845614,48.7302213 -0.31354386,45.725959 1.53207018,43.855959 L43.3004912,1.4535 C45.1447018,-0.417893443 48.1678596,-0.451336066 50.0527719,1.3782541 L50.301193,1.62071311 Z" id="Fill-1" fill="#C5C9CA" mask="url(#mask-4)"></path>
                    </g>
                    <g id="Group-6" transform="translate(0.000000, 37.988803)">
                        <mask id="mask-6" fill="white">
                            <use xlink:href="#path-5"></use>
                        </mask>
                        <g id="Clip-5"></g>
                        <path d="M44.2718596,3.23404098 L2.87536842,45.2574836 C2.13712281,46.0057623 1.20519298,46.2886311 0.451508772,45.5570738 C-0.302175439,44.8255164 -0.0383157895,43.8919098 0.697122807,43.1436311 L42.093614,1.11879508 C42.8318596,0.370516393 43.765193,0.087647541 44.5188772,0.820598361 C45.2725614,1.55215574 45.0087018,2.4857623 44.2718596,3.23404098" id="Fill-4" fill="#C5C9CA" mask="url(#mask-6)"></path>
                        <g id="Group-3" mask="url(#mask-6)">
                            <g transform="translate(28.070175, -37.622951)">
                                <mask id="mask-8" fill="white">
                                    <use xlink:href="#path-7"></use>
                                </mask>
                                <g id="Clip-2" stroke="none" fill="none"></g>
                                <path d="M50.301193,1.62071311 C52.1889123,3.45169672 52.221193,6.45317213 50.378386,8.32456557 L8.60715789,50.728418 C6.76435088,52.5998115 3.74119298,52.6332541 1.85487719,50.800877 L1.60785965,50.5598115 C-0.27845614,48.7302213 -0.31354386,45.725959 1.53207018,43.855959 L43.3004912,1.4535 C45.1447018,-0.417893443 48.1678596,-0.451336066 50.0527719,1.3782541 L50.301193,1.62071311 Z" id="Fill-1" stroke="none" fill="#C5C9CA" fill-rule="evenodd" mask="url(#mask-8)"></path>
                            </g>
                        </g>
                        <path d="M44.2718596,3.23404098 L2.87536842,45.2574836 C2.13712281,46.0057623 1.20519298,46.2886311 0.451508772,45.5570738 C-0.302175439,44.8255164 -0.0383157895,43.8919098 0.697122807,43.1436311 L42.093614,1.11879508 C42.8318596,0.370516393 43.765193,0.087647541 44.5188772,0.820598361 C45.2725614,1.55215574 45.0087018,2.4857623 44.2718596,3.23404098" id="Fill-4" fill="#C5C9CA" mask="url(#mask-6)"></path>
                    </g>
                </g>
                <g id="Group-7" transform="translate(117.000000, 52.438887)">
                    <g id="Group-3" transform="translate(28.070175, 0.365852)">
                        <mask id="mask-10" fill="white">
                            <use xlink:href="#path-9"></use>
                        </mask>
                        <g id="Clip-2"></g>
                        <path d="M50.301193,1.62071311 C52.1889123,3.45169672 52.221193,6.45317213 50.378386,8.32456557 L8.60715789,50.728418 C6.76435088,52.5998115 3.74119298,52.6332541 1.85487719,50.800877 L1.60785965,50.5598115 C-0.27845614,48.7302213 -0.31354386,45.725959 1.53207018,43.855959 L43.3004912,1.4535 C45.1447018,-0.417893443 48.1678596,-0.451336066 50.0527719,1.3782541 L50.301193,1.62071311 Z" id="Fill-1" fill="#C5C9CA" mask="url(#mask-10)"></path>
                    </g>
                    <g id="Group-6" transform="translate(0.000000, 37.988803)">
                        <mask id="mask-12" fill="white">
                            <use xlink:href="#path-11"></use>
                        </mask>
                        <g id="Clip-5"></g>
                        <path d="M44.2718596,3.23404098 L2.87536842,45.2574836 C2.13712281,46.0057623 1.20519298,46.2886311 0.451508772,45.5570738 C-0.302175439,44.8255164 -0.0383157895,43.8919098 0.697122807,43.1436311 L42.093614,1.11879508 C42.8318596,0.370516393 43.765193,0.087647541 44.5188772,0.820598361 C45.2725614,1.55215574 45.0087018,2.4857623 44.2718596,3.23404098" id="Fill-4" fill="#C5C9CA" mask="url(#mask-12)"></path>
                        <g id="Group-3" mask="url(#mask-12)">
                            <g transform="translate(28.070175, -37.622951)">
                                <mask id="mask-14" fill="white">
                                    <use xlink:href="#path-13"></use>
                                </mask>
                                <g id="Clip-2" stroke="none" fill="none"></g>
                                <path d="M50.301193,1.62071311 C52.1889123,3.45169672 52.221193,6.45317213 50.378386,8.32456557 L8.60715789,50.728418 C6.76435088,52.5998115 3.74119298,52.6332541 1.85487719,50.800877 L1.60785965,50.5598115 C-0.27845614,48.7302213 -0.31354386,45.725959 1.53207018,43.855959 L43.3004912,1.4535 C45.1447018,-0.417893443 48.1678596,-0.451336066 50.0527719,1.3782541 L50.301193,1.62071311 Z" id="Fill-1" stroke="none" fill="#C5C9CA" fill-rule="evenodd" mask="url(#mask-14)"></path>
                            </g>
                        </g>
                        <path d="M44.2718596,3.23404098 L2.87536842,45.2574836 C2.13712281,46.0057623 1.20519298,46.2886311 0.451508772,45.5570738 C-0.302175439,44.8255164 -0.0383157895,43.8919098 0.697122807,43.1436311 L42.093614,1.11879508 C42.8318596,0.370516393 43.765193,0.087647541 44.5188772,0.820598361 C45.2725614,1.55215574 45.0087018,2.4857623 44.2718596,3.23404098" id="Fill-4" fill="#C5C9CA" mask="url(#mask-12)"></path>
                    </g>
                </g>
            </g>
            <g id="Group-6" transform="translate(264.000000, 253.979000)">
                <g id="Group-3">
                    <mask id="mask-16" fill="white">
                        <use xlink:href="#path-15"></use>
                    </mask>
                    <g id="Clip-2"></g>
                    <path d="M136.33663,308.999665 C159.238165,296.280421 181.190396,281.857909 201.953481,265.892072 C213.87932,256.723397 225.728006,246.659543 232.556788,233.267031 C237.707516,223.166332 239.675728,211.795299 241.580206,200.621055 C249.601487,153.547543 264.584051,58.1971772 264.584051,58.1971772 C216.094921,51.7961041 169.525364,31.5092911 131.845047,0.371469919 L132.739003,0.371469919 C95.0578481,31.5092911 48.4882911,51.7961041 0,58.1971772 C0,58.1971772 14.9817247,153.547543 23.0038449,200.621055 C24.9074842,211.795299 26.8756962,223.166332 32.0264241,233.267031 C38.8552057,246.659543 50.704731,256.723397 62.629731,265.892072 C83.3928165,281.857909 105.345886,296.280421 128.247421,308.999665 L136.33663,308.999665 Z" id="Fill-1" fill="#F0F0F0" mask="url(#mask-16)"></path>
                </g>
                <path d="M128.517094,302 C106.608461,289.710056 85.4243997,275.727989 65.5264116,260.420774 C55.0713941,252.378355 43.3899839,242.76054 37.0857042,230.392499 C32.4272617,221.251669 30.580528,210.410318 28.795156,199.925027 C22.2017199,161.213594 10.7716404,89.0274958 7,65.1135413 C51.5746202,57.7949995 94.9320941,38.8062598 130.5,11 C166.068746,38.8062598 209.42622,57.7949995 254,65.1135413 C250.22836,89.0274958 238.799121,161.214434 232.205685,199.925027 C230.419472,210.410318 228.573579,221.25083 223.914296,230.392499 C217.610857,242.76054 205.928606,252.378355 195.474429,260.420774 C175.576441,275.727149 154.394061,289.709217 132.483747,302 L128.517094,302 Z" id="Stroke-4" stroke="#FFFFFF" stroke-width="1.669"></path>
            </g>
        </g>
    </g>
</svg>