<svg width="118" height="118" viewBox="0 0 118 118" fill="none" xmlns="http://www.w3.org/2000/svg">
<g clip-path="url(#clip0_78_5666)">
<path d="M55.7321 85.2615C55.7321 84.4911 55.6926 83.7208 55.6246 82.9768L60.691 81.6562L58.42 72.9533L53.2549 74.3069C52.1709 72.0457 50.7594 69.9578 49.0662 68.111L52.3816 63.8036L45.2812 58.301L41.9264 62.6635C39.723 61.5345 37.3649 60.7393 34.9291 60.3039V54.7573H25.9637V60.3039C23.6473 60.7185 21.4009 61.4595 19.2912 62.505L16 58.1029L8.82061 63.4778L12.068 67.8381C10.8233 69.153 9.72355 70.5986 8.78769 72.1499L3.74108 70.2878L0.658266 78.731L5.59955 80.5557C5.30714 82.1071 5.16022 83.6826 5.16072 85.2615C5.16072 85.8162 5.18485 86.362 5.21996 86.9145L0.204071 88.2351L2.47504 96.9402L7.37903 95.6504C8.43644 98.0096 9.84754 100.193 11.5633 102.124L8.51342 106.086L15.6116 111.588L18.6154 107.686C20.9199 108.909 23.3995 109.767 25.9659 110.228V115.132H34.9313V110.221C37.3754 109.781 39.7414 108.982 41.9527 107.849L44.8995 111.797L52.0788 106.402L49.0838 102.401C50.3542 101.01 51.4662 99.4808 52.3992 97.8426L57.1364 99.5903L60.2324 91.1493L55.4052 89.362C55.6243 88.0063 55.7336 86.635 55.7321 85.2615V85.2615ZM30.4442 102.209C27.0378 102.21 23.7078 101.197 20.8753 99.2989C18.0428 97.4007 15.8351 94.7026 14.5313 91.5458C13.2275 88.3889 12.8863 84.9151 13.5507 81.5637C14.2152 78.2123 15.8555 75.1338 18.2642 72.7176C20.6729 70.3014 23.7417 68.656 27.0827 67.9894C30.4237 67.3229 33.8866 67.6652 37.0337 68.9731C40.1807 70.2809 42.8704 72.4956 44.7626 75.3369C46.6548 78.1783 47.6646 81.5187 47.6641 84.9358C47.6647 87.2044 47.2198 89.4509 46.3548 91.547C45.4898 93.6431 44.2217 95.5477 42.6229 97.1522C41.024 98.7566 39.1258 100.029 37.0365 100.898C34.9473 101.766 32.708 102.214 30.4464 102.214L30.4442 102.209Z" stroke="#2F363C" stroke-width="3" stroke-miterlimit="10"/>
<path d="M8.95288 84.9401C8.95346 79.4752 11.1179 74.2343 14.9701 70.37C18.8223 66.5057 24.0469 64.3346 29.4948 64.334" stroke="#2F363C" stroke-width="1.5" stroke-miterlimit="10"/>
<path d="M116.719 18.5239H44.1952V114.925H116.719V18.5239Z" fill="white" stroke="#2F363C" stroke-width="3" stroke-miterlimit="10"/>
<path d="M52.7458 34.6685H108.169" stroke="#2F363C" stroke-width="1.5" stroke-miterlimit="10"/>
<path d="M52.7458 53.199H65.7156" stroke="#2F363C" stroke-width="1.5" stroke-miterlimit="10"/>
<path d="M70.8281 53.199H108.169" stroke="#2F363C" stroke-width="1.5" stroke-miterlimit="10"/>
<path d="M52.7458 43.3428H73.9723" stroke="#2F363C" stroke-width="1.5" stroke-miterlimit="10"/>
<path d="M79.8681 43.3428H108.169" stroke="#2F363C" stroke-width="1.5" stroke-miterlimit="10"/>
<path d="M52.7458 62.6217H108.169" stroke="#2F363C" stroke-width="1.5" stroke-miterlimit="10"/>
<path d="M52.7458 81.1588H65.7156" stroke="#2F363C" stroke-width="1.5" stroke-miterlimit="10"/>
<path d="M70.8281 81.1588H108.169" stroke="#2F363C" stroke-width="1.5" stroke-miterlimit="10"/>
<path d="M52.7458 71.2959H73.9723" stroke="#2F363C" stroke-width="1.5" stroke-miterlimit="10"/>
<path d="M79.8681 71.2959H108.169" stroke="#2F363C" stroke-width="1.5" stroke-miterlimit="10"/>
<path d="M90.6569 13.8115C90.6569 13.6816 90.6788 13.5495 90.6788 13.4197C90.6788 10.7006 89.602 8.09281 87.6853 6.1701C85.7686 4.2474 83.169 3.16724 80.4583 3.16724C77.7477 3.16724 75.1481 4.2474 73.2314 6.1701C71.3146 8.09281 70.2378 10.7006 70.2378 13.4197C70.2378 13.5495 70.2532 13.6816 70.2576 13.8115H63.1638V24.8519H97.7528V13.8115H90.6569Z" fill="white" stroke="#2F363C" stroke-width="3" stroke-miterlimit="10"/>
<path d="M115.145 97.2096H45.6774V113.387H115.145V97.2096Z" fill="#1C76BC"/>
<path d="M115.145 81.9839H45.6774V97.2097H115.145V81.9839Z" fill="#F47D20"/>
<path d="M115.145 66.7581H45.6774V81.9839H115.145V66.7581Z" fill="#F99F31"/>
<path d="M115.145 50.5806H45.6774V66.758H115.145V50.5806Z" fill="#F4C316"/>
<path d="M32.5638 20.2253C24.7262 21.9289 20.7482 18.2752 20.2106 17.7469C20.2106 17.7469 20.2106 17.6941 20.1799 17.7139C20.1602 17.6941 20.1492 17.7469 20.1492 17.7469C19.6116 18.2862 15.6336 21.9289 7.79596 20.2363C7.79596 20.2363 6.59135 34.3824 11.1618 40.1513C16.0417 46.3142 20.158 48.1785 20.1799 48.1631C20.2018 48.1477 24.3488 46.3516 29.198 40.1513C33.7311 34.3428 32.5638 20.2253 32.5638 20.2253Z" stroke="#2F363C" stroke-width="3" stroke-miterlimit="10"/>
<path d="M15.4821 30.8057L19.9253 35.1638L24.8688 27.5063" stroke="#2F363C" stroke-width="3" stroke-miterlimit="10"/>
</g>
<defs>
<clipPath id="clip0_78_5666">
<rect width="118" height="118" fill="white"/>
</clipPath>
</defs>
</svg>
