<svg width="120" height="118" viewBox="0 0 120 118" fill="none" xmlns="http://www.w3.org/2000/svg">
<path d="M50.6442 95.6696H81.1417C81.5819 95.6696 81.9487 96.0349 81.9487 96.4733V105.972C81.9487 106.776 82.9759 107.092 83.4406 106.435L92.0249 96.0106C92.1716 95.7914 92.4162 95.6696 92.6852 95.6696H105.696C110.905 95.6696 115.136 91.4561 115.136 86.2685V55.7756C115.136 50.5879 110.905 46.3744 105.696 46.3744H50.6687C45.4594 46.3744 41.2284 50.5879 41.2284 55.7756V86.2685C41.204 91.4561 45.435 95.6696 50.6442 95.6696Z" stroke="#2E353B" stroke-width="3" stroke-miterlimit="10" stroke-linecap="round" stroke-linejoin="round"/>
<path d="M117.093 24.0651H115.185C114.916 22.9691 114.476 21.9218 113.889 20.9476L115.234 19.608C115.405 19.4375 115.405 19.194 115.234 19.0235L112.348 16.1496C112.177 15.9791 111.933 15.9791 111.761 16.1496L110.416 17.4891C109.463 16.9046 108.411 16.4662 107.286 16.1983V14.2986C107.286 14.0794 107.115 13.8845 106.87 13.8845H102.786C102.566 13.8845 102.37 14.055 102.37 14.2986V16.1983C101.27 16.4662 100.218 16.9046 99.2396 17.4891L97.8945 16.1252C97.7233 15.9547 97.4788 15.9547 97.3076 16.1252L94.4217 18.9991C94.2505 19.1696 94.2505 19.4132 94.4217 19.5837L95.7668 20.9232C95.1798 21.8731 94.7396 22.9204 94.4706 24.0407H92.563C92.3429 24.0407 92.1472 24.2112 92.1472 24.4547V28.5221C92.1472 28.7413 92.3184 28.9361 92.563 28.9361H94.4706C94.7396 30.0321 95.1798 31.0794 95.7668 32.0536L94.3972 33.3931C94.226 33.5636 94.226 33.8072 94.3972 33.9777L97.2831 36.8516C97.4543 36.9977 97.6989 36.9977 97.8701 36.8516L99.2152 35.5121C100.169 36.0966 101.221 36.535 102.346 36.8029V38.7026C102.346 38.9218 102.517 39.1167 102.761 39.1167H106.846C107.066 39.1167 107.261 38.9462 107.261 38.7026V36.8029C108.362 36.535 109.414 36.0966 110.392 35.5121L111.737 36.8516C111.908 37.0221 112.153 37.0221 112.324 36.8516L115.234 33.9777C115.405 33.8072 115.405 33.5636 115.234 33.3931L113.889 32.0536C114.476 31.1037 114.916 30.0565 115.185 28.9361H117.093C117.313 28.9361 117.509 28.7656 117.509 28.5221V24.4791C117.509 24.2355 117.313 24.0651 117.093 24.0651Z" stroke="#2E353B" stroke-width="3" stroke-miterlimit="10"/>
<path d="M104.865 30.7626C102.492 30.7626 100.585 28.8629 100.585 26.5005C100.585 24.138 102.492 22.2383 104.865 22.2383C107.237 22.2383 109.145 24.138 109.145 26.5005C109.145 28.8629 107.212 30.7626 104.865 30.7626Z" stroke="#2E353B" stroke-width="3" stroke-miterlimit="10"/>
<path d="M83.7585 20.4847C83.7585 15.297 79.5275 11.0835 74.3183 11.0835H11.4647C6.231 11.0835 2 15.297 2 20.4847V26.062H83.7585V20.4847Z" fill="#F5C300"/>
<path d="M83.7585 26.1107H2V41.5033H83.7585V26.1107Z" fill="#FF9F2C"/>
<path d="M83.7585 26.0864H2V26.1108H83.7585V26.0864Z" fill="#F7941D"/>
<path d="M2 56.0922C2 56.3844 2.02446 56.6523 2.04891 56.9202H83.7341C83.7585 56.6523 83.783 56.3601 83.783 56.0922V41.5033H2V56.0922Z" fill="#FF7D00"/>
<path d="M11.4404 65.4934H19.0464C19.3154 65.4934 19.56 65.6151 19.7067 65.8343L28.291 76.2584C28.7557 76.916 29.7828 76.575 29.7828 75.7957V66.2971C29.7828 65.8587 30.1497 65.4934 30.5899 65.4934H74.2939C79.2341 65.4934 83.2695 61.7183 83.7097 56.9203H2.04901C2.46477 61.7426 6.52457 65.4934 11.4404 65.4934Z" fill="#1B75BC"/>
<path d="M3.54779 82.0898C3.54779 82.0898 7.6572 80.7615 8.5289 84.5803C9.40059 88.3992 10.978 96.2444 11.1855 97.2406C11.393 98.2369 12.1402 99.6066 14.4232 99.6066C16.7062 99.6066 28.3703 99.6066 28.3703 99.6066" stroke="#2E353B" stroke-width="3" stroke-miterlimit="10" stroke-linecap="round" stroke-linejoin="round"/>
<path d="M9.10999 85.037C9.31753 85.037 31.0683 85.037 31.0683 85.037L28.8684 95.1652H11.2684" stroke="#2E353B" stroke-width="3" stroke-miterlimit="10" stroke-linecap="round" stroke-linejoin="round"/>
<path d="M15.544 85.0785L16.8308 95.1237" stroke="#2E353B" stroke-width="3" stroke-miterlimit="10" stroke-linecap="round" stroke-linejoin="round"/>
<path d="M24.3854 85.1615L22.8496 95.2067" stroke="#2E353B" stroke-width="3" stroke-miterlimit="10" stroke-linecap="round" stroke-linejoin="round"/>
<path d="M9.94012 90.1426H29.74" stroke="#2E353B" stroke-width="3" stroke-miterlimit="10" stroke-linecap="round" stroke-linejoin="round"/>
<path d="M16.8722 100.063C17.2458 100.437 17.4533 100.935 17.4533 101.516C17.4533 102.678 16.4986 103.633 15.3364 103.633C14.1741 103.633 13.2194 102.678 13.2194 101.516C13.2194 100.893 13.5099 100.312 13.9665 99.9387" stroke="#2E353B" stroke-width="3" stroke-miterlimit="10" stroke-linecap="round" stroke-linejoin="round"/>
<path d="M26.1288 100.063C26.5024 100.437 26.7099 100.935 26.7099 101.516C26.7099 102.678 25.7552 103.633 24.5929 103.633C23.4307 103.633 22.476 102.678 22.476 101.516C22.476 100.893 22.7665 100.312 23.2231 99.9387" stroke="#2E353B" stroke-width="3" stroke-miterlimit="10" stroke-linecap="round" stroke-linejoin="round"/>
<circle cx="64.4036" cy="77.1185" r="3.88441" fill="#2E353B"/>
<circle cx="79.9413" cy="77.1185" r="3.88441" fill="#2E353B"/>
<circle cx="95.479" cy="77.1185" r="3.88441" fill="#2E353B"/>
</svg>
