<?xml version="1.0" encoding="UTF-8"?>
<svg width="1450px" height="184px" viewBox="0 0 1450 184" version="1.1" xmlns="http://www.w3.org/2000/svg" xmlns:xlink="http://www.w3.org/1999/xlink">
    <title>Group 92</title>
    <g id="high-frame-copy" stroke="none" stroke-width="1" fill="none" fill-rule="evenodd">
        <g id="Group-92">
            <path d="M0,0 L1450,0 L1450,97.8437112 C1420.60453,104.884 1399.3228,110.02605 1386.15481,113.269863 C1349.57544,122.28085 1318.55084,129.971272 1297.38577,131.134517 C1275.43137,132.341145 1238.31467,138.077309 1201.79646,137.959047 C1148.5636,137.786655 1090.21868,129.108914 1054.81114,123.992664 C953.040857,109.28726 836.771822,62.5150482 700.998554,68.8152182 C623.658918,72.4039426 481.333487,132.802118 336.845704,156.653014 C268.065823,168.00665 155.783922,157.119867 0,123.992664 L0,0 Z" id="Rectangle" fill="#FCFBF9"></path>
            <path d="M721.47814,54 C818.800588,54 1016.0446,122.149875 1171.26995,132.180029 C1240.37421,136.64532 1333.28423,124.534698 1450,95.8481627 L1450,98.857688 C1334.01002,132.725279 1241.41515,147.263505 1172.21537,142.472366 C1016.77547,131.710278 822.451392,84.044277 724.994429,84.044277 C621.456226,84.044277 471.381167,171.172947 304.306209,183.320031 C300.435287,183.601465 296.423141,183.828121 292.269771,184 L292.292,183.999 L248.988923,183.999596 C187.829586,181.912773 105.873467,171.759454 3.12056572,153.539638 L0,152.984968 L0,95.8481627 C146.253214,124.370043 251.070471,136.480665 314.45177,132.180029 C481.296121,120.859073 618.082846,54 721.47814,54 Z" id="Combined-Shape" fill="#F7F6F4"></path>
        </g>
    </g>
</svg>