<?xml version="1.0" encoding="UTF-8"?>
<svg width="100px" height="27px" viewBox="0 0 100 27" version="1.1" xmlns="http://www.w3.org/2000/svg" xmlns:xlink="http://www.w3.org/1999/xlink">
    <title>Combined Shape</title>
    <g id="high-frame-copy" stroke="none" stroke-width="1" fill="none" fill-rule="evenodd">
        <path d="M97,0 L97,1 C97,2.65685425 98.3431458,4 100,4 L100,4 L100,6 C98.3431458,6 97,7.34314575 97,9 L97,9 L97,10 C97,11.6568542 98.3431458,13 100,13 L100,13 L100,14 C98.3431458,14 97,15.3431458 97,17 L97,17 L97,18 C97,19.6568542 98.3431458,21 100,21 L100,21 L100,23 C98.3431458,23 97,24.3431458 97,26 L97,26 L97,27 L97,27 L3,27 L3,26 C3,24.3431458 1.65685425,23 0,23 L0,23 L0,21 C1.65685425,21 3,19.6568542 3,18 L3,18 L3,17 C3,15.3431458 1.65685425,14 0,14 L0,14 L0,13 C1.65685425,13 3,11.6568542 3,10 L3,10 L3,9 C3,7.34314575 1.65685425,6 0,6 L0,6 L0,4 C1.65685425,4 3,2.65685425 3,1 L3,1 L3,0 L3,0 L97,0 Z" id="Combined-Shape" fill="#FFB100"></path>
    </g>
</svg>