<?xml version="1.0" encoding="UTF-8"?>
<svg width="31px" height="30px" viewBox="0 0 31 30" version="1.1" xmlns="http://www.w3.org/2000/svg" xmlns:xlink="http://www.w3.org/1999/xlink">
    <title>Path</title>
    <g id="high-frame" stroke="none" stroke-width="1" fill="none" fill-rule="evenodd">
        <g id="Desktop-HD-Copy" transform="translate(-138.000000, -4173.000000)" fill="#E78837" fill-rule="nonzero">
            <g id="facebook" transform="translate(138.000000, 4173.000000)">
                <path d="M0,6 L0,24 C-1.77591519e-16,27.3137085 2.6862915,30 6,30 L16.0045419,30 L16.0045419,30 L16.0045419,18.4116253 L12.0921652,18.4116253 L12.0921652,13.6809295 L16.0045419,13.6809295 L16.0045419,9.70798499 C16.0045419,6.81857679 18.3509128,4.47626884 21.245333,4.47626884 L25.3354251,4.47626884 L25.3354251,8.73023501 L22.4087589,8.73023501 C21.489057,8.73023501 20.7434436,9.4745573 20.7434436,10.3926667 L20.7434436,13.6809953 L25.261899,13.6809953 L24.6374223,18.4116911 L20.7434436,18.4116911 L20.7434436,30 L24.0520382,30 C27.3657467,30 30.0520382,27.3137085 30.0520382,24 L30.0520382,6 C30.0520382,2.6862915 27.3657467,-6.08718376e-16 24.0520382,0 L6,0 C2.6862915,6.08718376e-16 -1.29399067e-15,2.6862915 0,6 Z" id="Path"></path>
            </g>
        </g>
    </g>
</svg>