<?xml version="1.0" encoding="UTF-8"?>
<svg width="113px" height="106px" viewBox="0 0 113 106" version="1.1" xmlns="http://www.w3.org/2000/svg" xmlns:xlink="http://www.w3.org/1999/xlink">
    <title>Group 10</title>
    <g id="high-frame" stroke="none" stroke-width="1" fill="none" fill-rule="evenodd">
        <g id="Desktop-HD-Copy" transform="translate(-168.000000, -2455.000000)">
            <g id="Group-10" transform="translate(168.000000, 2455.000000)">
                <g id="bus" fill-rule="nonzero">
                    <path d="M109.567894,19.8457167 L107.480698,19.8457167 C107.421211,16.5591211 104.71846,13.9032429 101.40274,13.9032429 L96.3515701,13.9032429 L96.3515701,6.0531711 C96.3515701,2.71594638 93.6229553,0 90.2701645,0 L22.7298355,0 C19.3761826,0 16.6484299,2.71594638 16.6484299,6.0531711 L16.6484299,13.9032429 L11.5972595,13.9032429 C8.28154003,13.9032429 5.57878881,16.5591211 5.51930226,19.8457167 L3.43210596,19.8457167 C1.53974904,19.8457167 0,21.378317 0,23.2618882 L0,40.8601913 C0,42.7437625 1.53974904,44.2763628 3.43210596,44.2763628 L10.9179077,44.2763628 C12.8102646,44.2763628 14.3500137,42.7437625 14.3500137,40.8601913 L14.3500137,23.2618882 C14.3500137,21.378317 12.8102646,19.8457167 10.9179077,19.8457167 L8.83933253,19.8457167 C8.89795679,18.3800496 10.1109619,17.2044265 11.5972595,17.2044265 L16.6484299,17.2044265 L16.6484299,78.4492333 C16.6484299,79.3614138 17.3907166,80.1002541 18.3071518,80.1002541 C19.2227249,80.1002541 19.9658738,79.3614138 19.9658738,78.4492333 L19.9658738,64.8351764 C20.7952346,65.259087 21.7349473,65.4993603 22.7298355,65.4993603 L90.2701645,65.4993603 C91.2650527,65.4993603 92.2047654,65.259087 93.0341262,64.8351764 L93.0341262,91.4874925 C93.0341262,93.0046468 91.7943955,94.2386217 90.2701645,94.2386217 L22.7298355,94.2386217 C21.2056045,94.2386217 19.9658738,93.0046468 19.9658738,91.4874925 L19.9658738,86.0796269 C19.9658738,85.1683045 19.2227249,84.428606 18.3071518,84.428606 C17.3907166,84.428606 16.6484299,85.1683045 16.6484299,86.0796269 L16.6484299,91.4874925 C16.6484299,94.824717 19.3761826,97.5398053 22.7298355,97.5398053 L24.4549409,97.5398053 L24.4549409,101.377313 C24.4549409,103.925926 26.5378266,106 29.0991897,106 L36.5548171,106 C39.1153184,106 41.1982041,103.925926 41.1982041,101.377313 L41.1982041,97.5398053 L71.8017959,97.5398053 L71.8017959,101.377313 C71.8017959,103.925926 73.8846816,106 76.4451829,106 L83.9008103,106 C86.4621734,106 88.5450591,103.925926 88.5450591,101.377313 L88.5450591,97.5398053 L90.2701645,97.5398053 C93.6238174,97.5398053 96.3515701,94.824717 96.3515701,91.4874925 L96.3515701,17.2044265 L101.40274,17.2044265 C102.889038,17.2044265 104.102043,18.3800496 104.16153,19.8457167 L102.082954,19.8457167 C100.190598,19.8457167 111.460251,19.8457167 109.567894,19.8457167 Z M10.9179077,23.1469003 C10.9817046,23.1469003 11.0325698,23.1983873 11.0325698,23.2618882 L11.0325698,40.8601913 C11.0325698,40.923692 10.9808425,40.9751794 10.9179077,40.9751794 L3.43210596,40.9751794 C3.36830908,40.9751794 3.31658178,40.923692 3.31658178,40.8601913 L3.31658178,23.2618882 C3.31658178,23.1983873 3.36830908,23.1469003 3.43210596,23.1469003 L10.9179077,23.1469003 Z M37.8816223,101.377313 C37.8816223,102.104998 37.2858962,102.697958 36.5548171,102.697958 L29.0991897,102.697958 C28.3672485,102.697958 27.7723848,102.104998 27.7723848,101.377313 L27.7723848,97.5398053 L37.8807602,97.5398053 L37.8807602,101.377313 L37.8816223,101.377313 Z M85.2276152,101.377313 C85.2276152,102.104998 84.6327515,102.697958 83.9008103,102.697958 L76.4451829,102.697958 C75.7141038,102.697958 75.1183777,102.104998 75.1183777,101.377313 L75.1183777,97.5398053 L85.2276152,97.5398053 L85.2276152,101.377313 Z M93.0341262,19.7169988 L26.0567627,19.7169988 C25.1411895,19.7169988 24.3989028,20.4558393 24.3989028,21.3680196 C24.3989028,22.279342 25.1411895,23.0190404 26.0567627,23.0190404 L93.0349883,23.0190404 L93.0349883,54.2906109 L82.0782852,54.2906109 C81.1618501,54.2906109 80.4195632,55.0294512 80.4195632,55.9416317 C80.4195632,56.8538122 81.1618501,57.5926526 82.0782852,57.5926526 L93.0349883,57.5926526 L93.0349883,59.4470475 C93.0349883,60.9633437 91.7952576,62.1981767 90.2710266,62.1981767 L22.7298355,62.1981767 C21.2056045,62.1981767 19.9658738,60.9633437 19.9658738,59.4470475 L19.9658738,57.5926526 L74.3381577,57.5926526 C75.2545928,57.5926526 75.9968796,56.8538122 75.9968796,55.9416317 C75.9968796,55.0294512 75.2545928,54.2906109 74.3381577,54.2906109 L58.0259551,54.2906109 L73.6734619,41.2712304 C74.3743667,40.6877095 74.4674758,39.6485274 73.8812332,38.9500187 C73.2949905,38.2523678 72.2509614,38.1588329 71.5500564,38.7432119 L52.8644333,54.2906109 L45.7424468,54.2906109 L61.3890915,41.2712304 C62.0908584,40.6877095 62.1839675,39.6485274 61.5977249,38.9508768 C61.0114822,38.2523678 59.9674531,38.1588329 59.265686,38.7432119 L40.580925,54.2914689 L19.9658738,54.2914689 L19.9658738,14.4344186 L93.0341262,14.4344186 L93.0341262,19.7169988 Z M93.0341262,11.1323769 L19.9658738,11.1323769 L19.9658738,6.0531711 C19.9658738,4.53601681 21.2056045,3.30204167 22.7298355,3.30204167 L90.2701645,3.30204167 C91.7943955,3.30204167 93.0341262,4.53601681 93.0341262,6.0531711 L93.0341262,11.1323769 Z" id="Shape" fill="#FFFFFF"></path>
                    <path d="M41.3013467,83 C42.7895622,83 44,81.7533029 44,80.2215724 L44,77.5549058 C44,73.9404374 41.1430975,71 37.6304713,71 L27.6986531,71 C26.2104376,71 25,72.2458305 25,73.7775611 L25,76.4442277 C25,80.0586962 27.8569022,83 31.3695287,83 L41.3013467,83 Z M28.2382155,76.4442277 L28.2382155,74.3329 L37.6304713,74.3329 C39.3569024,74.3329 40.7609428,75.7788606 40.7609428,77.5549058 L40.7609428,79.6662334 L31.3695287,79.6662334 C29.6430976,79.6662334 28.2382155,78.2202729 28.2382155,76.4442277 Z" id="Shape" fill="#FFFFFF"></path>
                    <path d="M81.6304713,83 C85.1430978,83 88,80.0586962 88,76.4442277 L88,73.7775611 C88,72.2458305 86.7895624,71 85.3013469,71 L75.3695287,71 C71.8577442,71 69,73.9404374 69,77.5549058 L69,80.2215724 C69,81.7533029 70.2104378,83 71.6986533,83 L81.6304713,83 Z M72.2382155,77.5549058 C72.2382155,75.7779943 73.6430976,74.3329 75.3695287,74.3329 L84.7609428,74.3329 L84.7609428,76.4442277 C84.7609428,78.2211392 83.3569024,79.6662334 81.6304713,79.6662334 L72.2382155,79.6662334 L72.2382155,77.5549058 Z" id="Shape" fill="#E78837"></path>
                    <path d="M63.9759036,90 C65.0922783,90 66,89.1162652 66,88.0293911 L66,83.9706089 C66,82.8837348 65.0922783,82 63.9759036,82 L50.0240964,82 C48.9077217,82 48,82.8837348 48,83.9706089 L48,88.0293911 C48,89.1162652 48.9077217,90 50.0240964,90 L63.9759036,90 Z M51.1601863,85.0766771 L62.8398137,85.0766771 L62.8398137,86.9233231 L51.1601863,86.9233231 L51.1601863,85.0766771 Z" id="Shape" fill="#FFFFFF"></path>
                </g>
                <rect id="Rectangle" stroke="#F48313" stroke-width="4" x="101" y="21" width="10" height="20" rx="3"></rect>
            </g>
        </g>
    </g>
</svg>