<svg width="118" height="118" viewBox="0 0 118 118" fill="none" xmlns="http://www.w3.org/2000/svg">
<path d="M2.8072 41.1456L2.80719 100.078L14.9165 100.078L14.9165 41.1456L2.8072 41.1456Z" fill="#F5C300"/>
<path d="M14.9165 41.1456L14.9165 100.078L27.8331 100.078L27.8331 41.1456L14.9165 41.1456Z" fill="#F7941D"/>
<path d="M27.8332 41.1456L27.8332 100.078L40.7497 100.078L40.7497 41.1456L27.8332 41.1456Z" fill="#F15A29"/>
<path d="M52.859 41.1456L52.8589 100.078C51.648 100.078 52.0907 100.077 51.1204 100.077L40.7497 100.077L40.7497 41.1456L52.859 41.1456Z" fill="#1B75BC"/>
<path d="M112.426 100.562H5.55059C3.59657 100.562 2 98.9729 2 97.0282V28.5338C2 26.589 3.59657 25 5.55059 25H112.449C114.403 25 116 26.589 116 28.5338V97.0282C115.976 98.9729 114.38 100.562 112.426 100.562Z" stroke="#2E353B" stroke-width="3" stroke-miterlimit="10" stroke-linecap="round" stroke-linejoin="round"/>
<path d="M2 40.9851H115.438" stroke="#2E353B" stroke-width="3" stroke-miterlimit="10" stroke-linecap="round" stroke-linejoin="round"/>
<path d="M74.5498 59.0812L63.7112 69.9435L73.53 79.7386" stroke="#2E353B" stroke-width="3" stroke-miterlimit="10" stroke-linecap="round" stroke-linejoin="round"/>
<path d="M92.9542 79.7386L103.793 68.9L93.974 59.0812" stroke="#2E353B" stroke-width="3" stroke-miterlimit="10" stroke-linecap="round" stroke-linejoin="round"/>
<path d="M88.2344 54.2429L79.1982 84.5768" stroke="#2E353B" stroke-width="3" stroke-miterlimit="10" stroke-linecap="round" stroke-linejoin="round"/>
<path d="M91.3176 36.6213C93.3216 36.6213 94.9463 34.9966 94.9463 32.9926C94.9463 30.9885 93.3216 29.3639 91.3176 29.3639C89.3135 29.3639 87.6889 30.9885 87.6889 32.9926C87.6889 34.9966 89.3135 36.6213 91.3176 36.6213Z" fill="#2E353B"/>
<path d="M78.0838 36.6213C80.0879 36.6213 81.7125 34.9966 81.7125 32.9926C81.7125 30.9885 80.0879 29.3639 78.0838 29.3639C76.0798 29.3639 74.4552 30.9885 74.4552 32.9926C74.4552 34.9966 76.0798 36.6213 78.0838 36.6213Z" fill="#2E353B"/>
<path d="M104.576 36.6213C106.58 36.6213 108.204 34.9966 108.204 32.9926C108.204 30.9885 106.58 29.3639 104.576 29.3639C102.571 29.3639 100.947 30.9885 100.947 32.9926C100.947 34.9966 102.571 36.6213 104.576 36.6213Z" fill="#2E353B"/>
</svg>
