<svg width="54" height="54" viewBox="0 0 54 54" fill="none" xmlns="http://www.w3.org/2000/svg">
<path d="M53.9763 40.486C53.8099 40.8862 53.3552 41.0999 52.9976 41.334C47.4894 44.9393 41.9643 48.5186 36.4638 52.1359C34.6544 53.3259 32.6627 53.8203 30.5504 53.9749C28.6023 54.1172 26.7572 53.6324 24.9118 53.0965C21.6244 52.143 18.3232 51.2384 15.0368 50.2819C13.8693 49.9421 12.787 50.0309 11.7454 50.6598C11.5082 50.8118 11.26 50.9455 11.0028 51.0597C10.3357 51.3345 9.85441 51.6685 9.90777 52.5458C9.94377 53.1315 9.46386 53.4471 8.81844 53.4329C6.95569 53.3921 5.09431 53.3352 3.23218 53.2839C2.54712 53.265 1.86218 53.2432 1.17699 53.2246C0.353723 53.2021 -0.0198317 52.8314 0.000809642 52.007C0.0763268 48.9621 0.157967 45.9174 0.245735 42.8729C0.318231 40.2349 0.38418 37.5977 0.471025 34.9607C0.508784 33.8259 0.793111 33.5738 1.93002 33.6036C4.38936 33.6671 6.84862 33.736 9.30779 33.8105C10.065 33.8329 10.4146 34.2102 10.4161 34.9831C10.417 35.4723 10.4161 35.9613 10.4161 36.4638C11.2435 36.158 12.0152 35.819 12.8171 35.5859C16.0989 34.6318 19.3077 34.8884 22.3282 36.4856C24.0259 37.3845 25.9168 37.849 27.8345 37.8381C29.9773 37.8508 32.1243 37.8901 34.2607 38.0422C36.3592 38.1916 37.9484 39.2978 39.0812 41.0733C39.1371 41.161 39.1945 41.2477 39.2768 41.3748C39.5096 41.2632 39.7271 41.1582 39.9452 41.0546C42.2947 39.9385 44.6441 38.8227 46.9935 37.7071C49.7198 36.4188 52.6782 37.1691 53.864 39.7512C53.9423 39.9194 54.0477 40.3144 53.9763 40.486ZM51.4738 39.9413C50.5201 39.0227 49.246 38.8537 47.9935 39.4467C45.5315 40.6135 43.0792 41.8016 40.608 42.9482C40.1094 43.1796 39.9091 43.4099 40.0011 44.0055C40.1795 45.1604 39.7343 45.6087 38.5742 45.5781C35.7641 45.5051 32.954 45.4284 30.144 45.3479C29.1254 45.3197 28.106 45.3039 27.0886 45.2535C26.4601 45.2224 26.0547 44.7604 26.0881 44.1827C26.1207 43.6195 26.5305 43.2577 27.155 43.2421C27.2431 43.2398 27.3312 43.2413 27.4186 43.2437C30.7203 43.3363 34.0221 43.4289 37.3239 43.5214C37.5059 43.5264 37.688 43.522 37.928 43.522C37.85 43.2489 37.8086 43.0615 37.7435 42.8827C37.1058 41.1299 35.5206 40.0272 33.5452 39.9724C31.5254 39.9164 29.505 39.8785 27.4857 39.818C26.784 39.7971 26.0812 39.7569 25.3838 39.6822C23.8305 39.5159 22.4986 38.74 21.1057 38.1089C17.5579 36.5016 14.0812 36.7172 10.7095 38.6767C10.5849 38.7347 10.4804 38.8289 10.4093 38.9471C10.3382 39.0654 10.3037 39.2024 10.3104 39.3405C10.2399 42.4912 10.1489 45.6413 10.0667 48.7916C10.0633 48.9223 10.0881 49.0537 10.1063 49.2579C10.4434 49.0789 10.7198 48.935 10.9937 48.7864C11.6548 48.4142 12.3833 48.1797 13.136 48.0966C13.8887 48.0136 14.6503 48.0837 15.3756 48.3029C19.0055 49.3378 22.6446 50.3404 26.2687 51.3958C27.7015 51.8131 29.1414 52.0731 30.6306 51.9563C32.1661 51.8358 33.667 51.5424 34.9865 50.688C39.079 48.0379 43.1649 45.3774 47.2442 42.7066C48.6418 41.796 50.0377 40.8806 51.4738 39.9413ZM8.41166 35.8043C6.47275 35.7446 4.61402 35.6894 2.75555 35.6278C2.40238 35.6161 2.42377 35.8543 2.41735 36.0897C2.28369 41.0078 2.15027 45.9259 2.01711 50.8441C2.02476 50.9773 2.0421 51.1096 2.06897 51.2402L7.97958 51.4028C8.12444 46.1717 8.26704 41.0283 8.41166 35.8043Z" fill="#006BB1"/>
<path d="M38.636 34.0032C37.5232 33.9089 36.6535 34.2163 35.8041 34.7027C33.7113 35.9008 31.584 35.9106 29.4901 34.7078C28.6557 34.2134 27.7022 33.9603 26.7344 33.9762C24.2615 34.0083 22.3633 32.9637 21.1263 30.7802C20.7013 30.0209 20.065 29.4037 19.296 29.0046C17.0511 27.8092 15.9189 25.9446 15.9975 23.3608C16.028 22.5762 15.8161 21.8013 15.3909 21.1433C13.9675 18.9214 13.9584 16.6983 15.3831 14.4732C15.8141 13.7987 16.0294 13.0072 15.9998 12.2055C15.9422 9.63094 17.0587 7.75783 19.3244 6.57935C20.0806 6.19154 20.7046 5.58506 21.1165 4.83763C22.36 2.63172 24.2723 1.58376 26.7667 1.62231C27.7002 1.6459 28.6216 1.40619 29.4271 0.93021C31.5932 -0.331595 33.7684 -0.300017 35.9241 0.965973C36.665 1.41498 37.5177 1.64161 38.382 1.61926C40.9867 1.55369 42.9569 2.6363 44.2327 4.95204C44.6241 5.65139 45.2174 6.21421 45.9338 6.56579C48.2289 7.74807 49.3312 9.65352 49.2932 12.2338C49.2748 13.0518 49.4999 13.8565 49.9395 14.5444C51.2896 16.7022 51.2988 18.876 49.948 21.0365C49.4989 21.7389 49.2707 22.5617 49.2936 23.397C49.3429 25.9431 48.2237 27.8106 45.9974 28.9981C45.2375 29.3781 44.6073 29.9777 44.1872 30.7203C42.9486 32.9646 41.0096 33.9733 38.636 34.0032ZM26.9036 3.61122C25.0109 3.52079 23.6409 4.33197 22.7269 6.00343C22.1434 7.0703 21.2526 7.8314 20.1764 8.38512C18.6687 9.16093 17.9324 10.4094 17.9781 12.1207C18.0287 13.3492 17.6957 14.5629 17.026 15.5907C16.0654 17.0632 16.0647 18.5356 17.0239 20.0077C17.691 21.037 18.0238 22.2499 17.9762 23.4783C17.9349 25.188 18.6685 26.4385 20.1754 27.2147C21.3109 27.7931 22.2489 28.7004 22.8688 29.8201C23.6976 31.2814 24.9607 32.0333 26.6402 31.9778C27.9971 31.9298 29.3386 32.281 30.5007 32.9885C31.9186 33.8264 33.383 33.8149 34.8001 32.9773C35.9305 32.2851 37.2359 31.938 38.5582 31.978C40.3147 32.0323 41.6302 31.2768 42.4814 29.7108C43.046 28.6592 43.9225 27.8117 44.9885 27.2867C46.602 26.4758 47.3768 25.1597 47.3179 23.3509C47.2707 22.1764 47.5922 21.0168 48.2367 20.037C49.2017 18.546 49.2014 17.06 48.24 15.5658C47.6064 14.6203 47.2852 13.4974 47.3221 12.3571C47.3928 10.4617 46.6005 9.10245 44.897 8.26311C43.9058 7.78299 43.0901 7.00001 42.5662 6.02563C41.6493 4.33121 40.2638 3.51773 38.3476 3.61108C37.1184 3.67081 35.99 3.32763 34.9405 2.69705C33.4158 1.78072 31.8866 1.76728 30.3603 2.68437C29.3253 3.33327 28.1217 3.656 26.9036 3.61122Z" fill="#006BB1"/>
<path d="M51.4738 39.9413C50.0377 40.8806 48.6419 41.796 47.2433 42.7077C43.1589 45.3704 39.073 48.0308 34.9856 50.689C33.6661 51.5436 32.1653 51.8369 30.6297 51.9573C29.1405 52.0741 27.7006 51.8141 26.2678 51.3969C22.6437 50.3414 19.0046 49.3388 15.3747 48.3039C14.6494 48.0848 13.8878 48.0146 13.1351 48.0977C12.3824 48.1807 11.6539 48.4152 10.9928 48.7874C10.719 48.936 10.4426 49.08 10.1054 49.2589C10.0873 49.0547 10.0625 48.9233 10.0659 48.7926C10.1481 45.6423 10.239 42.4922 10.3095 39.3415C10.3029 39.2034 10.3373 39.0664 10.4084 38.9482C10.4795 38.8299 10.5841 38.7357 10.7086 38.6777C14.0807 36.7182 17.5574 36.5026 21.1048 38.1099C22.4977 38.741 23.8296 39.5169 25.3829 39.6832C26.0807 39.7579 26.7835 39.7981 27.4848 39.819C29.5044 39.8795 31.5249 39.9175 33.5443 39.9734C35.5203 40.0282 37.1049 41.1309 37.7427 42.8837C37.8077 43.0625 37.8491 43.25 37.9272 43.523C37.6871 43.523 37.505 43.5275 37.323 43.5224C34.0212 43.4305 30.7195 43.338 27.4177 43.2448C27.3296 43.2424 27.2415 43.2408 27.1541 43.2431C26.5296 43.2587 26.1198 43.6206 26.0872 44.1837C26.0539 44.7614 26.4593 45.2237 27.0877 45.2545C28.1052 45.3052 29.1245 45.3207 30.1431 45.349C32.9531 45.4267 35.7632 45.5035 38.5733 45.5792C39.7334 45.6092 40.1786 45.1606 40.0002 44.0065C39.9082 43.4104 40.1085 43.1806 40.6071 42.9493C43.0783 41.8026 45.5306 40.6146 47.9926 39.4477C49.2458 38.8537 50.5202 39.0227 51.4738 39.9413Z" fill="white"/>
<path d="M8.4117 35.8043C8.26696 41.0283 8.12448 46.1716 7.97961 51.4028L2.06901 51.2402C2.04214 51.1096 2.0248 50.9772 2.01715 50.8441C2.1488 45.9259 2.28222 41.0077 2.41739 36.0896C2.42381 35.8542 2.40241 35.6161 2.75558 35.6277C4.61406 35.6894 6.47279 35.7445 8.4117 35.8043Z" fill="#FEDA87"/>
<path d="M26.904 3.6116C28.1221 3.65624 29.3256 3.33356 30.3607 2.68487C31.887 1.76715 33.4162 1.7806 34.9409 2.69756C35.9903 3.32815 37.1183 3.67133 38.348 3.6116C40.2642 3.51825 41.6497 4.33173 42.5666 6.02614C43.0905 7.00052 43.9061 7.78351 44.8973 8.26363C46.6009 9.10297 47.3932 10.4622 47.3224 12.3576C47.2856 13.4979 47.6068 14.6208 48.2403 15.5663C49.2018 17.0605 49.2021 18.5468 48.2371 20.0375C47.5926 21.0173 47.2711 22.1769 47.3183 23.3514C47.3772 25.1602 46.6024 26.4763 44.9888 27.2872C43.9229 27.8122 43.0464 28.6597 42.4818 29.7113C41.6306 31.2773 40.3151 32.0328 38.5585 31.9786C37.2363 31.9385 35.9309 32.2856 34.8004 32.9778C33.3836 33.8149 31.919 33.8276 30.5011 32.989C29.339 32.2815 27.9975 31.9303 26.6406 31.9783C24.9611 32.0339 23.698 31.2819 22.8692 29.8206C22.2493 28.701 21.3113 27.7936 20.1758 27.2152C18.6687 26.439 17.9354 25.1885 17.9766 23.4788C18.0242 22.2504 17.6914 21.0375 17.0243 20.0082C16.0684 18.5357 16.0691 17.0633 17.0263 15.5912C17.6961 14.5634 18.0291 13.3498 17.9785 12.1212C17.9328 10.4099 18.6691 9.16144 20.1768 8.38564C21.253 7.83191 22.1438 7.07082 22.7273 6.00394C23.6409 4.33198 25.0109 3.52079 26.904 3.6116ZM26.7673 28.3897C27.2078 28.4251 27.4577 28.0629 27.697 27.6761C31.0408 22.2732 34.3856 16.8712 37.7314 11.47C38.2888 10.5695 38.8493 9.67115 39.4028 8.76852C39.6466 8.37067 39.6588 7.96114 39.3809 7.57634C39.2686 7.40202 39.098 7.27398 38.9001 7.21538C38.7022 7.15679 38.49 7.17151 38.3019 7.25687C37.997 7.42001 37.7435 7.66607 37.5704 7.9671C34.4259 13.0164 31.2904 18.0715 28.164 23.1323C27.4018 24.3626 26.6306 25.5877 25.8859 26.8287C25.4398 27.5702 25.8697 28.3864 26.7673 28.3897ZM42.4905 22.8925C42.4653 21.6409 42.1381 20.5241 41.4117 19.5388C39.8001 17.3531 36.924 17.1661 35.053 19.1247C33.2312 21.032 33.1598 24.4276 34.9 26.4129C36.6746 28.4375 39.3695 28.4651 41.165 26.4595C42.0756 25.4424 42.4526 24.2113 42.4905 22.8925ZM31.6331 12.4832C31.6502 11.5746 31.3192 10.5109 30.6587 9.55472C29.0798 7.26891 26.0773 7.02643 24.2034 9.02726C22.3318 11.0252 22.3343 14.4826 24.2089 16.4766C25.9148 18.2914 28.5279 18.2902 30.2251 16.4653C31.1958 15.4215 31.6317 14.1654 31.6331 12.4832Z" fill="#FEDA87"/>
<path d="M26.7672 28.3897C25.8695 28.3864 25.4397 27.5705 25.8855 26.828C26.6305 25.587 27.4017 24.3621 28.1636 23.1316C31.2958 18.0745 34.4313 13.0194 37.57 7.96634C37.7431 7.66531 37.9966 7.41925 38.3015 7.25611C38.4896 7.17074 38.7018 7.15602 38.8997 7.21462C39.0976 7.27322 39.2682 7.40126 39.3806 7.57558C39.6585 7.9605 39.6463 8.37003 39.4025 8.76776C38.8487 9.67051 38.2885 10.5687 37.731 11.4692C34.3859 16.871 31.0411 22.2731 27.6967 27.6753C27.4575 28.0629 27.2078 28.4251 26.7672 28.3897Z" fill="#006BB1"/>
<path d="M42.4904 22.8926C42.4527 24.2116 42.0751 25.4418 41.165 26.4596C39.3694 28.4651 36.6747 28.4381 34.9 26.4129C33.1598 24.4277 33.2312 21.032 35.053 19.1248C36.9239 17.1662 39.8 17.3531 41.4117 19.5389C42.1382 20.5242 42.4649 21.6409 42.4904 22.8926ZM40.4832 22.8644C40.5195 22.0445 40.2488 21.2407 39.7248 20.6125C38.8017 19.5012 37.4013 19.4808 36.4429 20.5546C35.324 21.8082 35.3463 23.9857 36.4905 25.2124C37.4185 26.2072 38.8403 26.1677 39.711 25.1142C40.2368 24.4871 40.512 23.6853 40.4832 22.8649V22.8644Z" fill="#006BB1"/>
<path d="M31.6331 12.4831C31.6317 14.1654 31.1957 15.4215 30.2249 16.4655C28.5278 18.2906 25.9148 18.2918 24.2087 16.4768C22.3341 14.4828 22.3316 11.0254 24.2032 9.02747C26.0775 7.02664 29.0796 7.26915 30.6585 9.55495C31.3192 10.5109 31.6502 11.5746 31.6331 12.4831ZM29.6445 12.7368C29.6711 11.9342 29.4098 11.1488 28.9084 10.5246C28.0518 9.44652 26.6577 9.37574 25.692 10.3537C24.43 11.6316 24.4764 14.0063 25.7875 15.2335C26.5791 15.9746 27.6093 16.0524 28.4684 15.3889C29.3275 14.7253 29.6375 13.7935 29.6442 12.7373L29.6445 12.7368Z" fill="#006BB1"/>
<path d="M40.4832 22.8648C40.512 23.6852 40.2368 24.487 39.711 25.114C38.8403 26.1676 37.4184 26.207 36.4905 25.2122C35.3462 23.9855 35.324 21.808 36.4429 20.5544C37.4013 19.4806 38.8017 19.501 39.7247 20.6123C40.2489 21.2407 40.5196 22.0447 40.4832 22.8648Z" fill="#FEDA87"/>
<path d="M29.6442 12.7373C29.6376 13.7935 29.3272 14.727 28.4692 15.3891C27.6112 16.0513 26.5794 15.9748 25.7883 15.2338C24.4772 14.0062 24.4308 11.6319 25.6928 10.354C26.6585 9.376 28.0526 9.4469 28.9092 10.5248C29.4103 11.1492 29.6713 11.9347 29.6442 12.7373Z" fill="#FEDA87"/>
</svg>
