<svg width="54" height="54" viewBox="0 0 54 54" fill="none" xmlns="http://www.w3.org/2000/svg">
<path d="M7.28596 17.1563L8.73819 11.8616C8.73819 11.8616 8.94992 10.9237 10.7351 11.075C12.5202 11.2263 19.2672 11.075 19.2672 11.075C19.2672 11.075 20.6285 11.2868 20.9313 12.2247C21.2342 13.1627 21.6272 14.8268 21.6272 14.8268L22.1416 17.5493L7.28596 17.1563Z" fill="#FEDA87"/>
<path d="M49.5 24.3V29.9812C49.4993 32.1394 49.0136 34.2698 48.079 36.2151C47.1443 38.1604 45.7845 39.8708 44.1 41.2199L40.5 44.0999L36.9 41.2199C35.2164 39.87 33.8573 38.1594 32.9227 36.2143C31.9881 34.2692 31.502 32.1392 31.5 29.9812V24.3L40.5 20.7L49.5 24.3Z" fill="#FEDA87"/>
<path d="M53.4487 20.7675L41.4 15.6038V7.20001C41.4013 6.96057 41.3084 6.73022 41.1412 6.55876L34.8412 0.258764C34.6698 0.0916142 34.4394 -0.00133545 34.2 1.45014e-05H2.7C1.98456 0.00212166 1.29903 0.287262 0.793139 0.793154C0.287247 1.29905 0.00210716 1.98458 0 2.70001V51.3C0.00210716 52.0154 0.287247 52.701 0.793139 53.2069C1.29903 53.7128 1.98456 53.9979 2.7 54H38.7C39.4154 53.9979 40.101 53.7128 40.6068 53.2069C41.1127 52.701 41.3979 52.0154 41.4 51.3V49.0613L46.0912 45.72C48.5347 43.9676 50.5262 41.659 51.9014 38.985C53.2765 36.311 53.9959 33.3482 54 30.3413V21.6C53.9996 21.4225 53.9472 21.249 53.8492 21.1011C53.7513 20.9531 53.612 20.8371 53.4487 20.7675ZM35.1 3.07126L38.3287 6.30001H35.1V3.07126ZM27 26.5275V30.33C27 31.0163 27.045 31.7025 27.1125 32.3888H5.4V34.1888H27.405C27.54 34.7963 27.6975 35.3925 27.8775 35.9888H5.4V37.7888H28.5525C28.8225 38.4075 29.115 39.0038 29.4412 39.5888H5.4V41.3888H30.5887C31.0393 42.0209 31.5317 42.6223 32.0625 43.1888H5.4V44.9888H33.975C34.2787 45.2363 34.5937 45.4725 34.9087 45.7088L39.6 49.05V51.3C39.5993 51.5385 39.5042 51.767 39.3356 51.9356C39.167 52.1042 38.9385 52.1993 38.7 52.2H2.7C2.46152 52.1993 2.23302 52.1042 2.06439 51.9356C1.89576 51.767 1.80071 51.5385 1.8 51.3V2.70001C1.80071 2.46154 1.89576 2.23303 2.06439 2.0644C2.23302 1.89578 2.46152 1.80073 2.7 1.80001H33.3V7.20001C33.3007 7.43849 33.3958 7.66699 33.5644 7.83562C33.733 8.00425 33.9615 8.0993 34.2 8.10001H39.6V15.6038L33.8175 18.0788L32.04 18.8438L27.5512 20.7675C27.387 20.8357 27.2467 20.9513 27.1485 21.0996C27.0503 21.2479 26.9986 21.4221 27 21.6V26.5275ZM52.2 30.3413C52.1971 33.0634 51.5456 35.7457 50.2993 38.1658C49.0531 40.5859 47.248 42.6742 45.0337 44.2575L40.5 47.4975L35.9662 44.2575C33.7528 42.6733 31.9484 40.5848 30.7023 38.1649C29.4561 35.745 28.8041 33.0632 28.8 30.3413V22.1963L40.5 17.1788L52.2 22.1963V30.3413Z" fill="#006BB1"/>
<path d="M40.1625 19.8675L31.1625 23.4675C30.997 23.5353 30.8553 23.6505 30.7552 23.7986C30.6551 23.9468 30.6011 24.1213 30.6 24.3V29.9813C30.5945 32.2763 31.1077 34.5429 32.1012 36.6118C33.0947 38.6806 34.5429 40.4982 36.3375 41.9288L39.9375 44.8088C40.098 44.9345 40.2961 45.0029 40.5 45.0029C40.7039 45.0029 40.9019 44.9345 41.0625 44.8088L44.6625 41.9288C46.4571 40.4982 47.9053 38.6806 48.8988 36.6118C49.8923 34.5429 50.4055 32.2763 50.4 29.9813V24.3C50.4004 24.1209 50.347 23.9458 50.2467 23.7973C50.1464 23.6489 50.0039 23.534 49.8375 23.4675L40.8375 19.8675C40.7305 19.823 40.6158 19.8 40.5 19.8C40.3841 19.8 40.2694 19.823 40.1625 19.8675ZM48.6 24.9075V29.9813C48.6055 32.0063 48.1531 34.0064 47.2764 35.8319C46.3997 37.6573 45.1215 39.2609 43.5375 40.5225L40.5 42.9525L37.4625 40.5225C35.8785 39.2609 34.6003 37.6573 33.7236 35.8319C32.8469 34.0064 32.3944 32.0063 32.4 29.9813V24.9075L40.5 21.6675L48.6 24.9075Z" fill="#006BB1"/>
<path d="M40.4142 33.726C40.3574 33.726 40.3029 33.7485 40.2628 33.7887C40.2226 33.8288 40.2 33.8833 40.2 33.9401C40.2 33.9969 40.2226 34.0514 40.2628 34.0915C40.3029 34.1317 40.3574 34.1542 40.4142 34.1542C41.3226 34.1532 42.1934 33.7919 42.8358 33.1496C43.4781 32.5073 43.8395 31.6364 43.8406 30.7281C43.8406 30.6713 43.818 30.6168 43.7779 30.5766C43.7377 30.5365 43.6832 30.5139 43.6264 30.5139C43.5697 30.5139 43.5152 30.5365 43.475 30.5766C43.4349 30.6168 43.4123 30.6713 43.4123 30.7281C43.4115 31.523 43.0953 32.2851 42.5333 32.8471C41.9712 33.4092 41.2091 33.7253 40.4142 33.7262V33.726Z" fill="#006BB1"/>
<path d="M41.2708 30.2995C41.4825 30.2995 41.6896 30.2367 41.8656 30.1191C42.0417 30.0014 42.179 29.8342 42.26 29.6385C42.3411 29.4428 42.3623 29.2275 42.321 29.0198C42.2796 28.8121 42.1777 28.6213 42.0279 28.4716C41.8782 28.3218 41.6874 28.2199 41.4797 28.1785C41.2719 28.1372 41.0566 28.1584 40.861 28.2395C40.6653 28.3205 40.4981 28.4578 40.3804 28.6338C40.2628 28.8099 40.2 29.017 40.2 29.2287C40.2 29.5127 40.3128 29.7851 40.5136 29.9859C40.7144 30.1867 40.9868 30.2995 41.2708 30.2995ZM41.2708 28.5862C41.3978 28.5862 41.522 28.6239 41.6277 28.6945C41.7334 28.7651 41.8157 28.8655 41.8643 28.9829C41.913 29.1003 41.9257 29.2294 41.9009 29.3541C41.8761 29.4787 41.8149 29.5932 41.7251 29.683C41.6352 29.7729 41.5207 29.8341 41.3961 29.8589C41.2715 29.8837 41.1423 29.8709 41.0249 29.8223C40.9075 29.7737 40.8071 29.6913 40.7365 29.5857C40.6659 29.48 40.6283 29.3558 40.6283 29.2287C40.6283 29.1444 40.6449 29.0608 40.6772 28.9829C40.7095 28.9049 40.7568 28.8341 40.8164 28.7744C40.8761 28.7148 40.9469 28.6674 41.0249 28.6352C41.1028 28.6029 41.1864 28.5862 41.2708 28.5862Z" fill="#006BB1"/>
<path d="M38.4867 29.0145C38.3173 29.0145 38.1516 29.0647 38.0107 29.1589C37.8698 29.253 37.76 29.3868 37.6952 29.5433C37.6303 29.6998 37.6133 29.8721 37.6464 30.0383C37.6794 30.2045 37.761 30.3571 37.8808 30.4769C38.0006 30.5968 38.1533 30.6784 38.3194 30.7114C38.4856 30.7445 38.6579 30.7275 38.8144 30.6627C38.971 30.5979 39.1048 30.4881 39.1989 30.3472C39.2931 30.2063 39.3433 30.0407 39.3433 29.8712C39.3433 29.644 39.2531 29.4261 39.0924 29.2655C38.9318 29.1048 38.7139 29.0146 38.4867 29.0145ZM38.4867 30.2995C38.402 30.2995 38.3192 30.2744 38.2488 30.2273C38.1783 30.1803 38.1235 30.1134 38.091 30.0351C38.0586 29.9569 38.0501 29.8707 38.0667 29.7877C38.0832 29.7046 38.124 29.6283 38.1839 29.5684C38.2438 29.5085 38.3201 29.4677 38.4032 29.4512C38.4862 29.4346 38.5724 29.4431 38.6506 29.4755C38.7289 29.5079 38.7958 29.5628 38.8428 29.6333C38.8899 29.7037 38.915 29.7865 38.915 29.8712C38.915 29.9848 38.8699 30.0937 38.7896 30.1741C38.7092 30.2544 38.6003 30.2995 38.4867 30.2995Z" fill="#006BB1"/>
<path d="M41.2708 31.7985C41.2708 31.629 41.2205 31.4634 41.1264 31.3225C41.0322 31.1816 40.8984 31.0718 40.7419 31.007C40.5853 30.9421 40.4131 30.9252 40.2469 30.9582C40.0807 30.9913 39.9281 31.0729 39.8083 31.1927C39.6885 31.3126 39.6069 31.4652 39.5738 31.6314C39.5408 31.7976 39.5578 31.9698 39.6226 32.1264C39.6875 32.2829 39.7973 32.4167 39.9382 32.5108C40.0791 32.6049 40.2447 32.6552 40.4142 32.6551C40.6414 32.6551 40.8592 32.5648 41.0199 32.4042C41.1805 32.2435 41.2708 32.0256 41.2708 31.7985ZM39.9858 31.7985C39.9858 31.7137 40.0109 31.6309 40.0579 31.5604C40.105 31.49 40.1719 31.435 40.2502 31.4026C40.3284 31.3701 40.4146 31.3616 40.4977 31.3782C40.5808 31.3947 40.6571 31.4355 40.7171 31.4954C40.777 31.5553 40.8178 31.6316 40.8343 31.7147C40.8509 31.7978 40.8424 31.884 40.81 31.9623C40.7776 32.0406 40.7227 32.1075 40.6522 32.1545C40.5817 32.2016 40.4989 32.2267 40.4142 32.2267C40.3006 32.2267 40.1916 32.1816 40.1113 32.1013C40.031 32.021 39.9858 31.9121 39.9858 31.7985Z" fill="#006BB1"/>
<path d="M37.9771 31.6015C37.9511 31.6124 37.9273 31.6276 37.9064 31.6465C37.8674 31.6876 37.8452 31.7419 37.8443 31.7986C37.8447 31.8266 37.8505 31.8543 37.8614 31.8801C37.8718 31.9063 37.887 31.9302 37.9064 31.9506C37.9273 31.9695 37.9511 31.9847 37.9771 31.9956C38.0028 32.0065 38.0305 32.0124 38.0584 32.0127C38.1151 32.0119 38.1694 31.9897 38.2105 31.9506C38.2299 31.9302 38.2452 31.9062 38.2555 31.8801C38.2665 31.8543 38.2723 31.8266 38.2726 31.7986C38.2718 31.7419 38.2497 31.6876 38.2105 31.6465C38.1801 31.6173 38.1419 31.5975 38.1005 31.5895C38.059 31.5815 38.0162 31.5857 37.9771 31.6015Z" fill="#006BB1"/>
<path d="M39.0479 32.8865C39.0219 32.8974 38.9981 32.9126 38.9772 32.9315C38.9381 32.9725 38.9159 33.0268 38.9151 33.0836C38.9154 33.1115 38.9212 33.1392 38.9322 33.1649C38.9426 33.1911 38.9579 33.2151 38.9772 33.2356C38.998 33.2544 39.0219 33.2697 39.0479 33.2806C39.0736 33.2915 39.1012 33.2973 39.1292 33.2977C39.1859 33.2969 39.2402 33.2747 39.2813 33.2356C39.3007 33.2151 39.316 33.1911 39.3263 33.1649C39.3372 33.1392 39.343 33.1115 39.3434 33.0836C39.3426 33.0268 39.3204 32.9725 39.2813 32.9315C39.2509 32.9022 39.2127 32.8824 39.1712 32.8744C39.1298 32.8664 39.087 32.8706 39.0479 32.8865Z" fill="#006BB1"/>
<path d="M46.1962 29.8713C46.0069 29.872 45.8231 29.9354 45.6736 30.0516C45.5241 30.1679 45.4174 30.3303 45.37 30.5137H44.6863C44.6379 29.5281 44.2488 28.5898 43.5854 27.8592L44.0637 27.381C44.2851 27.5273 44.5529 27.5862 44.8152 27.5463C45.0775 27.5064 45.3157 27.3705 45.4835 27.1649C45.6514 26.9594 45.7369 26.6989 45.7235 26.4338C45.7102 26.1688 45.5989 25.9182 45.4113 25.7306C45.2236 25.5429 44.973 25.4317 44.708 25.4183C44.443 25.4049 44.1824 25.4905 43.9769 25.6583C43.7713 25.8261 43.6354 26.0643 43.5955 26.3266C43.5556 26.589 43.6145 26.8568 43.7608 27.0781L43.2837 27.5564C42.553 26.8929 41.6145 26.5038 40.6287 26.4556V25.986C40.8306 25.9339 41.0065 25.8099 41.1235 25.6374C41.2405 25.4648 41.2906 25.2555 41.2643 25.0487C41.2381 24.8419 41.1373 24.6517 40.9808 24.5139C40.8244 24.3761 40.6231 24.3 40.4146 24.3C40.2061 24.3 40.0048 24.3761 39.8483 24.5139C39.6919 24.6517 39.5911 24.8419 39.5648 25.0487C39.5386 25.2555 39.5886 25.4648 39.7056 25.6374C39.8226 25.8099 39.9986 25.9339 40.2004 25.986V26.4556C39.2148 26.504 38.2766 26.8931 37.546 27.5564L37.0678 27.0781C37.2137 26.8572 37.2724 26.5899 37.2325 26.3281C37.1926 26.0663 37.0569 25.8286 36.8517 25.6612C36.6466 25.4938 36.3865 25.4084 36.1221 25.4218C35.8576 25.4351 35.6075 25.5462 35.4202 25.7335C35.233 25.9207 35.1219 26.1708 35.1085 26.4353C35.0952 26.6998 35.1805 26.9598 35.348 27.165C35.5154 27.3701 35.7531 27.5058 36.0149 27.5457C36.2766 27.5856 36.5439 27.5269 36.7649 27.381L37.2431 27.8592C36.5797 28.5898 36.1905 29.528 36.142 30.5137H35.6678C35.6164 30.3412 35.5046 30.1929 35.3528 30.0961C35.2011 29.9992 35.0195 29.9602 34.8414 29.9862C34.6632 30.0122 34.5004 30.1014 34.3827 30.2376C34.2649 30.3738 34.2001 30.5478 34.2001 30.7278C34.2001 30.9078 34.2649 31.0819 34.3827 31.218C34.5004 31.3542 34.6632 31.4434 34.8414 31.4694C35.0195 31.4954 35.2011 31.4564 35.3528 31.3596C35.5046 31.2627 35.6164 31.1145 35.6678 30.942H36.142C36.1902 31.9278 36.5793 32.8662 37.2428 33.597L36.7646 34.0753C36.5432 33.9291 36.2755 33.8702 36.0132 33.9102C35.7509 33.9501 35.5128 34.0861 35.3451 34.2916C35.1773 34.4971 35.0919 34.7576 35.1053 35.0226C35.1186 35.2875 35.23 35.5381 35.4176 35.7256C35.6052 35.9132 35.8558 36.0244 36.1208 36.0377C36.3857 36.051 36.6462 35.9655 36.8517 35.7976C37.0571 35.6298 37.193 35.3917 37.2328 35.1294C37.2727 34.8671 37.2137 34.5993 37.0674 34.378L37.5457 33.8998C38.2763 34.5629 39.2145 34.9518 40.2 34.9999V35.4696C39.9981 35.5218 39.8222 35.6457 39.7052 35.8183C39.5882 35.9908 39.5381 36.2001 39.5644 36.4069C39.5906 36.6138 39.6914 36.8039 39.8479 36.9417C40.0043 37.0795 40.2056 37.1556 40.4141 37.1556C40.6226 37.1556 40.8239 37.0795 40.9804 36.9417C41.1368 36.8039 41.2376 36.6138 41.2639 36.4069C41.2901 36.2001 41.2401 35.9908 41.1231 35.8183C41.0061 35.6457 40.8301 35.5218 40.6283 35.4696V34.9999C41.6141 34.9517 42.5525 34.5626 43.2833 33.8991L43.7615 34.3775C43.6152 34.5989 43.5562 34.8667 43.5962 35.1291C43.6361 35.3914 43.772 35.6296 43.9776 35.7975C44.1831 35.9653 44.4437 36.0509 44.7087 36.0375C44.9738 36.0242 45.2244 35.9129 45.4121 35.7252C45.5998 35.5376 45.711 35.2869 45.7244 35.0219C45.7378 34.7568 45.6522 34.4963 45.4844 34.2907C45.3165 34.0851 45.0783 33.9492 44.816 33.9093C44.5536 33.8694 44.2857 33.9283 44.0644 34.0746L43.5851 33.5974C44.2486 32.8667 44.6377 31.9282 44.6859 30.9424H45.3697C45.41 31.0971 45.4929 31.2374 45.609 31.3474C45.725 31.4574 45.8696 31.5326 46.0262 31.5645C46.1829 31.5965 46.3454 31.5838 46.4952 31.5281C46.6451 31.4723 46.7763 31.3757 46.8739 31.2491C46.9716 31.1225 47.0318 30.9711 47.0478 30.812C47.0637 30.6529 47.0347 30.4926 46.9641 30.3491C46.8935 30.2057 46.7841 30.0849 46.6483 30.0005C46.5125 29.9161 46.3558 29.8715 46.1959 29.8717L46.1962 29.8713ZM44.1999 26.0336C44.3049 25.9292 44.4429 25.8645 44.5903 25.8504C44.7377 25.8363 44.8854 25.8737 45.0083 25.9563C45.1312 26.0388 45.2217 26.1614 45.2644 26.3032C45.3071 26.445 45.2994 26.5972 45.2425 26.7339C45.1856 26.8706 45.0831 26.9833 44.9524 27.0529C44.8217 27.1226 44.671 27.1448 44.5258 27.1158C44.3806 27.0867 44.2499 27.0083 44.1561 26.8938C44.0622 26.7793 44.0109 26.6358 44.0109 26.4877C44.011 26.4033 44.0278 26.3198 44.0602 26.2419C44.0927 26.1639 44.1401 26.0932 44.1999 26.0336ZM39.9858 25.1598C39.9858 25.0751 40.0109 24.9922 40.0579 24.9218C40.105 24.8513 40.1719 24.7964 40.2502 24.7639C40.3284 24.7315 40.4146 24.723 40.4977 24.7395C40.5808 24.756 40.6571 24.7968 40.7171 24.8567C40.777 24.9166 40.8178 24.993 40.8343 25.0761C40.8509 25.1592 40.8424 25.2453 40.81 25.3236C40.7776 25.4019 40.7227 25.4688 40.6522 25.5159C40.5817 25.563 40.4989 25.5881 40.4142 25.5881C40.3006 25.5881 40.1916 25.543 40.1113 25.4627C40.031 25.3823 39.9858 25.2734 39.9858 25.1598ZM35.7199 26.942C35.63 26.8522 35.5688 26.7377 35.5439 26.6131C35.5191 26.4884 35.5318 26.3592 35.5804 26.2418C35.6291 26.1244 35.7114 26.024 35.8171 25.9534C35.9227 25.8828 36.047 25.8451 36.1741 25.8451C36.3011 25.8451 36.4254 25.8828 36.531 25.9534C36.6367 26.024 36.7191 26.1244 36.7677 26.2418C36.8163 26.3592 36.829 26.4884 36.8042 26.6131C36.7793 26.7377 36.7181 26.8522 36.6282 26.942C36.5077 27.0624 36.3444 27.13 36.1741 27.13C36.0037 27.13 35.8404 27.0624 35.7199 26.942ZM34.9532 31.0491C34.8897 31.0491 34.8275 31.0302 34.7747 30.9949C34.7219 30.9596 34.6807 30.9094 34.6564 30.8507C34.632 30.792 34.6257 30.7274 34.6381 30.6651C34.6505 30.6028 34.6811 30.5455 34.726 30.5006C34.771 30.4556 34.8282 30.425 34.8905 30.4126C34.9529 30.4002 35.0175 30.4066 35.0762 30.4309C35.1349 30.4552 35.1851 30.4964 35.2204 30.5493C35.2557 30.6021 35.2745 30.6642 35.2745 30.7278C35.2745 30.813 35.2407 30.8947 35.1804 30.955C35.1201 31.0152 35.0384 31.0491 34.9532 31.0491ZM36.6283 35.422C36.5385 35.5119 36.424 35.5731 36.2994 35.598C36.1747 35.6228 36.0455 35.6101 35.9281 35.5614C35.8107 35.5128 35.7104 35.4305 35.6397 35.3248C35.5691 35.2191 35.5315 35.0949 35.5315 34.9678C35.5315 34.8407 35.5691 34.7165 35.6397 34.6109C35.7104 34.5052 35.8107 34.4228 35.9281 34.3742C36.0455 34.3256 36.1747 34.3129 36.2994 34.3377C36.424 34.3625 36.5385 34.4237 36.6283 34.5136C36.7487 34.6341 36.8164 34.7975 36.8164 34.9678C36.8164 35.1382 36.7487 35.3015 36.6283 35.422ZM40.8425 36.2958C40.8425 36.3806 40.8174 36.4634 40.7703 36.5339C40.7233 36.6043 40.6563 36.6593 40.5781 36.6917C40.4998 36.7242 40.4136 36.7326 40.3305 36.7161C40.2474 36.6996 40.1711 36.6588 40.1111 36.5989C40.0512 36.539 40.0104 36.4626 39.9939 36.3795C39.9774 36.2964 39.9859 36.2102 40.0183 36.132C40.0507 36.0537 40.1057 35.9868 40.1761 35.9397C40.2466 35.8926 40.3294 35.8675 40.4142 35.8675C40.5278 35.8675 40.6367 35.9127 40.717 35.993C40.7973 36.0733 40.8425 36.1822 40.8425 36.2958ZM44.6544 34.3256C44.8031 34.3257 44.9471 34.3772 45.062 34.4716C45.1769 34.5659 45.2555 34.6972 45.2844 34.843C45.3134 34.9888 45.2909 35.1401 45.2208 35.2712C45.1506 35.4023 45.0372 35.505 44.8999 35.5618C44.7625 35.6186 44.6097 35.6261 44.4674 35.5828C44.3252 35.5396 44.2024 35.4484 44.1198 35.3248C44.0373 35.2011 44.0002 35.0527 44.0149 34.9047C44.0296 34.7568 44.0951 34.6185 44.2003 34.5135C44.3208 34.3932 44.4841 34.3256 44.6544 34.3256ZM40.4142 34.5826C39.6518 34.5826 38.9065 34.3565 38.2725 33.933C37.6386 33.5094 37.1445 32.9074 36.8527 32.203C36.5609 31.4986 36.4846 30.7235 36.6333 29.9758C36.7821 29.228 37.1492 28.5411 37.6883 28.002C38.2274 27.4629 38.9143 27.0957 39.6621 26.947C40.4098 26.7983 41.1849 26.8746 41.8893 27.1664C42.5937 27.4582 43.1957 27.9523 43.6193 28.5862C44.0428 29.2201 44.2689 29.9655 44.2689 30.7279C44.2689 31.7502 43.8627 32.7306 43.1398 33.4535C42.4169 34.1764 41.4365 34.5825 40.4142 34.5826ZM46.1967 31.1562C46.112 31.1562 46.0292 31.131 45.9587 31.084C45.8883 31.0369 45.8334 30.97 45.801 30.8918C45.7686 30.8135 45.7601 30.7274 45.7766 30.6443C45.7931 30.5612 45.8339 30.4849 45.8938 30.425C45.9537 30.3651 46.03 30.3243 46.1131 30.3078C46.1962 30.2913 46.2823 30.2998 46.3606 30.3322C46.4388 30.3646 46.5057 30.4195 46.5528 30.4899C46.5998 30.5604 46.625 30.6432 46.625 30.7279C46.625 30.7841 46.6139 30.8399 46.5923 30.8918C46.5708 30.9438 46.5392 30.9911 46.4994 31.0308C46.4596 31.0706 46.4123 31.1022 46.3603 31.1237C46.3083 31.1452 46.2526 31.1562 46.1963 31.1562H46.1967Z" fill="#006BB1"/>
<path d="M24.4263 17.5725C24.3011 17.9562 24.0326 18.1029 23.6388 18.0642C23.4829 18.0488 23.3239 18.0617 23.1239 18.0617C23.1572 18.1349 23.197 18.205 23.2427 18.2711C23.6283 18.7173 23.7483 19.2292 23.7067 19.8145C23.6669 20.3742 23.6992 20.9388 23.6977 21.5013C23.6966 21.9279 23.4702 22.1538 23.0417 22.1538C22.2327 22.1551 21.4237 22.1573 20.6147 22.1538C19.7227 22.1494 19.0575 21.6396 18.8177 20.7847C18.5453 19.8137 19.2677 18.7083 20.2721 18.6052C20.7671 18.5544 21.2685 18.5765 21.7671 18.5663C21.8408 18.5648 21.9146 18.5663 22.0425 18.5663C21.95 18.4099 21.8476 18.2596 21.7358 18.1163C21.6941 18.0688 21.5874 18.0646 21.5108 18.0644C19.9307 18.0617 18.3506 18.061 16.7706 18.0624C13.8886 18.0624 11.0066 18.0665 8.12465 18.0557C7.85904 18.0548 7.67623 18.1126 7.56463 18.3571C7.52374 18.4298 7.47819 18.4999 7.42827 18.5668C7.53796 18.5668 7.60355 18.5656 7.66913 18.5668C8.16773 18.5771 8.66927 18.5572 9.16415 18.6056C10.0321 18.6904 10.7071 19.5544 10.6688 20.4298C10.6463 20.9013 10.4407 21.3455 10.0957 21.6678C9.75071 21.99 9.29359 22.165 8.82159 22.1554C8.2403 22.149 7.65867 22.1584 7.07727 22.1515C6.93485 22.1498 6.9029 22.1965 6.8939 22.3351C6.85137 22.9888 7.11722 23.1715 7.69389 23.1593C8.72991 23.1374 9.76681 23.1481 10.8032 23.158C11.0015 23.16 11.0463 23.0972 11.0433 22.9105C11.0331 22.2534 11.0377 21.5959 11.0401 20.9387C11.0417 20.4965 11.2642 20.275 11.705 20.2743C13.715 20.2734 15.725 20.2734 17.735 20.2743C18.1737 20.2743 18.3952 20.4985 18.3967 20.9419C18.3989 21.6118 18.4015 22.2818 18.3944 22.9517C18.3929 23.1082 18.4408 23.1565 18.5989 23.1559C19.9513 23.1503 21.3039 23.1524 22.6564 23.1536C22.7444 23.15 22.8326 23.1572 22.9189 23.1751C23.0391 23.2065 23.146 23.2757 23.2239 23.3726C23.3017 23.4694 23.3464 23.5887 23.3513 23.7128C23.3558 23.834 23.3211 23.9534 23.2523 24.0533C23.1835 24.1532 23.0844 24.2282 22.9696 24.2672C22.9456 24.2718 22.9228 24.2811 22.9024 24.2945C22.8821 24.3079 22.8645 24.3252 22.8509 24.3454C22.8372 24.3656 22.8276 24.3883 22.8227 24.4121C22.8178 24.436 22.8176 24.4606 22.8222 24.4846C22.8269 25.0976 22.8255 25.7108 22.824 26.3237C22.823 26.752 22.6042 26.9897 22.177 26.9933C21.2291 27.0008 20.2811 27.0008 19.3329 26.9933C18.8975 26.9895 18.6854 26.7571 18.6819 26.3062C18.6774 25.7248 18.6806 25.1433 18.6806 24.5619V24.3256H10.7672C10.7635 24.3974 10.7571 24.4646 10.757 24.5316C10.7561 25.1131 10.7583 25.6945 10.756 26.276C10.754 26.7789 10.5407 26.9941 10.0396 26.9955C9.1358 26.9978 8.23205 26.9978 7.32838 26.9955C6.82629 26.9944 6.61333 26.7785 6.6131 26.2778C6.6131 25.6079 6.6104 24.9379 6.61546 24.268C6.61914 24.219 6.60882 24.17 6.58572 24.1266C6.56262 24.0832 6.52768 24.0472 6.48496 24.0229C6.25213 23.8736 6.06145 23.6672 5.93112 23.4232C5.8008 23.1793 5.7352 22.906 5.74055 22.6295C5.73448 21.4856 5.73336 20.3416 5.74449 19.1982C5.755 19.043 5.80335 18.8928 5.88534 18.7606C6.01539 18.5337 6.17671 18.3247 6.35603 18.0631C6.09245 18.0631 5.88129 18.0647 5.66979 18.0631C5.28729 18.0596 5.02853 17.8321 5.02133 17.4959C5.01413 17.1596 5.28773 16.9069 5.67113 16.9033C6.03113 16.8998 6.39193 16.8946 6.75182 16.9063C6.90178 16.9111 6.95791 16.8613 6.98986 16.7171C7.32429 15.2092 7.66273 13.7022 8.00518 12.1961C8.10482 11.7122 8.3696 11.278 8.75417 10.9679C9.13874 10.6578 9.61919 10.491 10.1132 10.4961C10.3651 10.4931 10.617 10.4961 10.8974 10.4961C10.8974 10.2509 10.89 10.0193 10.8993 9.7885C10.9112 9.49307 10.8947 9.18797 10.9642 8.90515C11.139 8.19212 11.7011 7.78015 12.4941 7.77385C13.9791 7.76283 15.4644 7.76305 16.9498 7.77452C17.7415 7.7815 18.3032 8.20281 18.4752 8.91302C18.5227 9.18608 18.5431 9.46317 18.5361 9.74024C18.5451 9.98459 18.538 10.2296 18.538 10.4961C18.8102 10.4961 19.0612 10.4905 19.312 10.4971C20.1961 10.5208 20.8735 10.909 21.2591 11.7075C21.4292 12.0597 21.498 12.4624 21.5985 12.846C21.7441 13.401 21.8784 13.959 22.0134 14.5168C22.0416 14.6134 22.0536 14.7139 22.049 14.8144C22.0352 14.9504 21.9736 15.0771 21.8751 15.172C21.7767 15.2668 21.6478 15.3236 21.5114 15.3324C21.375 15.3412 21.2399 15.3013 21.1301 15.2198C21.0204 15.1383 20.9431 15.0206 20.912 14.8874C20.7927 14.4365 20.6832 13.9831 20.5706 13.5304C20.4793 13.1634 20.3901 12.7958 20.2988 12.4289C20.2515 12.2072 20.1284 12.009 19.9506 11.8683C19.7729 11.7277 19.5516 11.6534 19.325 11.6584C18.7499 11.6539 18.1747 11.6572 17.5996 11.6572C15.1411 11.6572 12.6826 11.6572 10.224 11.6572C9.5867 11.6572 9.25651 11.916 9.11443 12.5401C8.79485 13.9481 8.4782 15.3567 8.16448 16.766C8.15769 16.8113 8.15337 16.857 8.15154 16.9029H8.41895C13.4814 16.9029 18.5439 16.9013 23.6064 16.8982C23.9955 16.8982 24.2854 16.9982 24.4259 17.3844L24.4263 17.5725ZM17.2376 23.1442C17.2376 22.5992 17.2361 22.0761 17.2386 21.553C17.2393 21.4259 17.1563 21.4345 17.0725 21.4345C15.5007 21.4345 13.9289 21.4338 12.357 21.4324C12.2316 21.4324 12.1939 21.4754 12.1953 21.5969C12.2005 22.0703 12.197 22.5439 12.1987 23.0173C12.2027 23.0601 12.2105 23.1026 12.222 23.144L17.2376 23.1442ZM17.3582 10.4853C17.3662 10.46 17.372 10.434 17.3756 10.4077C17.3771 10.0919 17.378 9.77624 17.3783 9.46056C17.3783 9.037 17.2668 8.9263 16.8383 8.92619C15.4237 8.92619 14.0091 8.92619 12.5945 8.92619C12.5503 8.92619 12.5058 8.92439 12.462 8.92765C12.1898 8.94734 12.0618 9.07806 12.0587 9.35053C12.0548 9.68522 12.0572 10.0199 12.0587 10.3546C12.0623 10.3987 12.0691 10.4425 12.0791 10.4856L17.3582 10.4853ZM6.90696 20.9827C6.96658 20.9874 7.00943 20.9939 7.05218 20.9939C7.658 20.9945 8.26392 20.997 8.86973 20.993C8.95348 20.9945 9.03669 20.9793 9.11452 20.9484C9.19236 20.9174 9.26328 20.8714 9.32317 20.8128C9.38305 20.7542 9.43071 20.6844 9.46339 20.6073C9.49608 20.5301 9.51313 20.4473 9.51356 20.3635C9.51398 20.2798 9.49776 20.1968 9.46586 20.1193C9.43397 20.0419 9.38702 19.9715 9.32773 19.9124C9.26843 19.8532 9.19798 19.8064 9.12047 19.7747C9.04295 19.743 8.9599 19.7269 8.87615 19.7275C8.2574 19.7224 7.63933 19.7258 7.0208 19.7269C6.98247 19.7301 6.94444 19.7363 6.90707 19.7454L6.90696 20.9827ZM22.5288 19.7355C22.4508 19.7317 22.3893 19.7262 22.3277 19.7261C21.7598 19.7254 21.1918 19.7254 20.6237 19.7261C20.2149 19.7271 19.9212 19.991 19.9176 20.3569C19.914 20.7227 20.2101 20.993 20.6159 20.9941C21.1901 20.9955 21.7644 20.9955 22.3387 20.9941C22.3994 20.9941 22.4601 20.9871 22.5287 20.9828L22.5288 19.7355ZM7.77219 24.3244C7.77219 24.802 7.77433 25.2552 7.77073 25.7081C7.76983 25.8267 7.83654 25.8397 7.92823 25.8394C8.43257 25.8383 8.93691 25.8363 9.44113 25.8406C9.57062 25.8417 9.60166 25.7816 9.59964 25.6667C9.59514 25.4147 9.59851 25.1625 9.59851 24.9103C9.59851 24.7172 9.59851 24.5241 9.59851 24.3239L7.77219 24.3244ZM19.8388 24.3254C19.8388 24.8034 19.8356 25.2622 19.8447 25.7204C19.8455 25.7605 19.9276 25.8329 19.9729 25.8329C20.496 25.8409 21.0191 25.8409 21.5424 25.8329C21.5831 25.8323 21.6575 25.7661 21.6581 25.7294C21.6659 25.2651 21.6632 24.8006 21.6632 24.3246L19.8388 24.3254Z" fill="#006BB1"/>
<path d="M17.2375 23.1443H12.2219C12.2104 23.1028 12.2025 23.0604 12.1985 23.0175C12.1968 22.5441 12.2003 22.0706 12.1951 21.5972C12.1938 21.4756 12.2314 21.4324 12.3569 21.4326C13.9287 21.4359 15.5005 21.4366 17.0723 21.4348C17.1561 21.4348 17.2392 21.4262 17.2385 21.5532C17.2366 22.0761 17.2375 22.5993 17.2375 23.1443Z" fill="white"/>
<path d="M17.3586 10.4854H12.0792C12.0692 10.4423 12.0623 10.3985 12.0588 10.3544C12.0571 10.0197 12.0548 9.68503 12.0588 9.35034C12.0619 9.07787 12.1899 8.94725 12.4621 8.92745C12.506 8.9243 12.5504 8.92599 12.5946 8.92599C14.0092 8.92599 15.4237 8.92599 16.8383 8.92599C17.2672 8.92599 17.3783 9.03669 17.3783 9.46036C17.3783 9.77604 17.3774 10.0918 17.3756 10.4075C17.3721 10.4339 17.3664 10.4599 17.3586 10.4854Z" fill="white"/>
<path d="M6.90717 20.9828V19.7453C6.94455 19.7362 6.98257 19.73 7.0209 19.7267C7.63965 19.7257 8.25785 19.7222 8.87626 19.7274C8.96056 19.7259 9.04431 19.7413 9.12259 19.7726C9.20086 19.804 9.27208 19.8506 9.33207 19.9099C9.39206 19.9691 9.4396 20.0398 9.47191 20.1177C9.50422 20.1955 9.52065 20.2791 9.52022 20.3634C9.51979 20.4477 9.50252 20.5311 9.46942 20.6087C9.43633 20.6862 9.38807 20.7564 9.32748 20.815C9.26689 20.8736 9.1952 20.9196 9.11661 20.9501C9.03802 20.9807 8.95413 20.9952 8.86985 20.9929C8.26415 20.9968 7.65822 20.9943 7.0524 20.9937C7.00965 20.9939 6.96679 20.9875 6.90717 20.9828Z" fill="#FEDA87"/>
<path d="M22.5289 19.7357V20.9831C22.4603 20.9873 22.3997 20.9943 22.3389 20.9943C21.7647 20.9951 21.1904 20.9951 20.6161 20.9943C20.2101 20.9933 19.9142 20.7216 19.9178 20.3571C19.9214 19.9926 20.2152 19.7271 20.624 19.7264C21.192 19.725 21.7599 19.725 22.3278 19.7264C22.3896 19.7262 22.4512 19.7319 22.5289 19.7357Z" fill="#FEDA87"/>
<path d="M7.77248 24.3246H9.59892C9.59892 24.5247 9.59892 24.7183 9.59892 24.9109C9.59892 25.1631 9.59554 25.4153 9.60004 25.6674C9.60207 25.7823 9.57091 25.8423 9.44143 25.8412C8.9372 25.8368 8.43287 25.8388 7.92853 25.8401C7.83673 25.8401 7.7699 25.8272 7.77103 25.7088C7.77463 25.2554 7.77248 24.8021 7.77248 24.3246Z" fill="white"/>
<path d="M19.8392 24.3256H21.6635C21.6635 24.8015 21.6662 25.2661 21.6583 25.7304C21.6577 25.767 21.5834 25.8333 21.5426 25.8338C21.0195 25.8413 20.4964 25.8413 19.9733 25.8338C19.9283 25.8332 19.8458 25.7613 19.845 25.7213C19.8358 25.2623 19.8392 24.8035 19.8392 24.3256Z" fill="white"/>
</svg>
