<svg width="53" height="54" viewBox="0 0 53 54" fill="none" xmlns="http://www.w3.org/2000/svg">
<path d="M4.34261 53.8115H2.52068V53.4104C2.52068 48.0072 2.52831 42.6038 2.51571 37.2006C2.50257 35.7351 2.8115 34.2845 3.42066 32.9515C4.75409 30.0419 6.08463 27.1308 7.45427 24.2383C7.68334 23.7699 8.01456 23.3589 8.42352 23.0356C8.73508 22.7905 8.83107 22.5739 8.83038 22.2097C8.82182 16.9753 8.82008 11.7409 8.82517 6.50653C8.82679 2.71382 11.5481 0.00231298 15.353 0.00127214C21.2065 -0.000424046 27.0601 -0.000424046 32.9137 0.00127214C36.7211 0.00242863 39.4376 2.71023 39.4383 6.50988C39.4404 16.7347 39.4406 26.9596 39.439 37.1846V37.7202L41.773 39.4228C42.1623 39.1298 42.6077 38.9201 43.0816 38.8067C43.5554 38.6933 44.0475 38.6786 44.5273 38.7636C45.0365 38.8452 45.5223 39.0354 45.9517 39.3211C46.3811 39.6068 46.7441 39.9814 47.0161 40.4196C48.7574 39.3748 50.2283 39.3576 51.5437 40.3686C52.408 41.0329 52.9265 41.9222 52.9346 43.0135C52.9614 46.5967 52.9454 50.1802 52.9446 53.7636C52.9394 53.8429 52.9296 53.9218 52.9152 54H51.1252V53.3112C51.1252 50.0279 51.1398 46.7445 51.1076 43.4616C51.0909 42.9993 50.955 42.5491 50.713 42.1548C50.3325 41.5329 49.5288 41.3293 48.8218 41.551C48.0799 41.7834 47.6022 42.4143 47.5735 43.2394C47.5545 43.783 47.5726 44.3275 47.5678 44.8715C47.5618 45.5636 47.2145 45.9579 46.6278 45.9479C46.0669 45.9385 45.7281 45.5501 45.7233 44.8936C45.7177 44.087 45.7289 43.2801 45.7199 42.4735C45.7074 41.3674 44.9391 40.5444 43.9377 40.5489C42.9294 40.5534 42.1784 41.3679 42.1674 42.4824C42.1594 43.2889 42.1704 44.0959 42.1639 44.9025C42.1588 45.553 41.8106 45.9433 41.2503 45.9481C40.6813 45.9525 40.3251 45.5682 40.321 44.9188C40.314 43.8306 40.3224 42.7425 40.3179 41.6542C40.3131 40.4928 39.5835 39.6642 38.56 39.6481C37.5192 39.6315 36.7675 40.4735 36.7635 41.6688C36.7598 42.7195 36.7647 43.77 36.7619 44.8207C36.7599 45.5589 36.4188 45.9611 35.8159 45.9477C35.2377 45.935 34.9168 45.5429 34.9165 44.8315C34.9149 40.1974 34.9262 35.5631 34.8989 30.9294C34.8869 30.4487 34.7545 29.9788 34.5139 29.5624C34.1543 28.9452 33.3713 28.7306 32.6867 28.925C32.3205 29.0188 31.9942 29.228 31.7562 29.5217C31.5182 29.8154 31.3812 30.1779 31.3653 30.5556C31.3521 30.7234 31.3601 30.893 31.3601 31.0619C31.3601 36.4465 31.3601 41.831 31.3601 47.2156C31.3601 47.3659 31.356 47.5163 31.3601 47.6657C31.3741 48.1367 31.1592 48.477 30.7186 48.611C30.2576 48.7513 29.8628 48.5939 29.6124 48.1681C29.0052 47.1343 28.419 46.0878 27.8023 45.0598C27.3781 44.3528 26.6805 44.08 25.8696 44.2535C25.5081 44.3286 25.1821 44.5228 24.9439 44.805C24.7058 45.0873 24.5692 45.4412 24.556 45.8103C24.5611 46.2368 24.6754 46.6549 24.888 47.0246C25.9969 49.0017 27.1457 50.9567 28.2792 52.9195C28.3987 53.1265 28.6153 53.5506 28.7566 53.8106C28.1892 53.8106 26.6591 53.8112 26.6591 53.8112L26.4556 53.4594C25.3963 51.6269 24.6493 50.287 23.566 48.4689C22.9357 47.4111 22.4529 46.3428 22.7996 45.0511H17.2985C17.4968 45.3908 17.6631 45.6764 17.8305 45.9617C18.4303 46.9636 18.7416 48.1117 18.7302 49.2793C18.7164 50.8346 18.7268 52.2145 18.7268 53.8112H16.9046C16.9046 53.5995 16.908 53.5588 16.9041 53.3427C16.8757 51.7318 16.8992 50.1171 16.7884 48.5119C16.7479 47.9262 16.4427 47.3323 16.157 46.7963C15.6726 45.8868 15.1416 45.0028 14.5661 44.1479C14.1272 43.4963 14.1701 42.9473 14.5634 42.2882C15.8403 40.1487 17.0767 37.9853 18.3113 35.8209C18.9358 34.7264 18.4443 33.4713 17.3012 33.1603C16.4646 32.9328 15.7249 33.2667 15.234 34.1145C13.5532 37.0164 11.8751 39.9197 10.1998 42.8245C10.1073 42.9849 10.0049 43.1399 9.87411 43.3507L8.33204 42.4623C8.61122 41.8395 9.0057 41.289 9.08133 40.6977C9.15593 40.1155 8.81881 39.4926 8.81534 38.8868C8.7877 34.7781 8.80042 30.6694 8.80019 26.5607V25.7991C8.65621 26.0546 8.57976 26.1706 8.52263 26.2954C7.41876 28.6925 6.32946 31.0963 5.20998 33.4861C4.62316 34.7458 4.32614 36.121 4.34076 37.5107C4.34847 42.7637 4.34948 48.0168 4.34377 53.2701L4.34261 53.8115ZM16.2223 43.2111C18.6914 43.2111 21.0356 43.2213 23.3794 43.1988C23.7048 43.1868 24.0218 43.0923 24.3007 42.9243C25.6146 42.1395 26.9063 42.1366 28.2347 42.8924C28.5921 43.0958 29.0211 43.175 29.5203 43.347V42.4896C29.5203 38.5129 29.5212 34.5363 29.523 30.5597C29.5303 29.6893 29.8522 28.851 30.4293 28.1994C31.0064 27.5479 31.7997 27.127 32.6628 27.0146C34.4655 26.7867 36.1979 27.9414 36.6284 29.6883C36.7177 30.0896 36.7595 30.5 36.7529 30.911C36.7645 33.327 36.7585 35.7431 36.7585 38.1677C37.6196 37.9656 37.6196 37.9656 37.6197 37.1671C37.6215 26.9817 37.6232 16.7963 37.6248 6.61096C37.6248 3.72911 35.7153 1.81534 32.8406 1.81465C27.0445 1.81311 21.2484 1.81311 15.4523 1.81465C12.5364 1.81523 10.6375 3.71627 10.6373 6.63606C10.6365 16.9527 10.6365 27.2694 10.6373 37.5862V38.2862C10.8318 37.9809 10.9435 37.819 11.042 37.6491C11.9239 36.1261 12.7904 34.5941 13.6868 33.0797C14.5532 31.6157 16.1746 30.9343 17.723 31.3466C20.0653 31.97 21.17 34.5227 19.9853 36.6579C19.0045 38.4254 17.9691 40.1629 16.9591 41.9143C16.7285 42.314 16.5029 42.7173 16.2223 43.2111Z" fill="#006BB1"/>
<path d="M16.9056 53.6672C16.9056 53.5597 16.9056 53.4516 16.9037 53.3433C16.8754 51.7322 16.8989 50.1178 16.7881 48.5125C16.7476 47.9268 16.4424 47.3328 16.1566 46.7969C15.6724 45.8871 15.1417 45.0027 14.5665 44.1475C14.367 43.8791 14.2573 43.5547 14.253 43.2204C14.2723 42.8874 14.3795 42.5655 14.5637 42.2874C15.8406 40.1479 17.077 37.9845 18.3115 35.8201C18.4957 35.5052 18.59 35.1458 18.5841 34.781C18.5777 34.4075 18.4487 34.0465 18.2168 33.7536C17.9849 33.4607 17.6632 33.2523 17.3011 33.1604C16.4645 32.9327 15.7248 33.2668 15.2339 34.1147C13.5531 37.0166 11.875 39.9199 10.1997 42.8247C10.1071 42.9851 10.0048 43.1401 9.87399 43.3509L8.33193 42.4625C8.6111 41.8397 9.00558 41.2893 9.08122 40.6979C9.09029 40.6251 9.09366 40.5516 9.09128 40.4782C9.07671 39.9607 8.81812 39.4175 8.81465 38.8872C8.80085 36.8329 8.79491 34.7784 8.79684 32.7238C8.79684 30.6694 8.79772 28.615 8.7995 26.5606V25.7997C8.65551 26.0552 8.57907 26.1711 8.52194 26.2959C7.41807 28.6931 6.32877 31.0969 5.20929 33.4866C4.62246 34.7464 4.32544 36.1216 4.34007 37.5112C4.34385 40.1379 4.34531 42.7644 4.34446 45.3909C4.34362 48.0173 4.34315 50.644 4.34308 53.2708V53.812H16.905C16.9052 53.7634 16.9055 53.7156 16.9056 53.6672Z" fill="#FEDA87"/>
<path d="M28.6475 53.6058L28.7562 53.8115C28.7562 53.8115 43.5073 53.9998 51.1254 53.9998V53.311C51.1254 51.6695 51.1265 50.028 51.1287 48.3866C51.1282 46.745 51.1213 45.1035 51.1079 43.4621C51.0912 42.9998 50.9553 42.5496 50.7133 42.1553C50.3328 41.5334 49.5291 41.3298 48.8221 41.5514C48.0802 41.784 47.6025 42.4148 47.5738 43.2398C47.5689 43.3757 47.5666 43.5115 47.5656 43.6475C47.5636 43.9195 47.5669 44.191 47.5685 44.4636C47.5693 44.5997 47.5694 44.7357 47.5685 44.8719C47.5624 45.5641 47.2151 45.9583 46.6285 45.9483C46.0676 45.9388 45.7287 45.5504 45.724 44.894C45.7183 44.0872 45.7295 43.2804 45.7205 42.4738C45.708 41.3679 44.9398 40.5447 43.9383 40.5491C42.93 40.5536 42.1789 41.3683 42.168 42.4827C42.16 43.2894 42.171 44.0962 42.1645 44.9029C42.1594 45.5534 41.8112 45.9437 41.2509 45.9484C40.6819 45.9528 40.3257 45.5685 40.3217 44.9192C40.3146 43.831 40.323 42.7429 40.3185 41.6546C40.3137 40.4933 39.5842 39.6645 38.5607 39.6483C37.5198 39.632 36.7681 40.4738 36.7642 41.6692C36.7605 42.7199 36.7653 43.7705 36.7626 44.8211C36.7605 45.5593 36.4194 45.9615 35.8165 45.9481C35.2383 45.9354 34.9174 45.5433 34.9171 44.8317V44.8312C34.9162 42.5143 34.9165 40.1975 34.9181 37.8807C34.9173 35.5635 34.9111 33.2467 34.8996 30.9301C34.8875 30.4495 34.7551 29.9796 34.5146 29.5633C34.1549 28.9461 33.372 28.7314 32.6873 28.9258C32.3211 29.0196 31.9949 29.2289 31.7569 29.5226C31.5189 29.8163 31.3818 30.1788 31.3659 30.5565C31.3593 30.6404 31.3579 30.7247 31.3584 30.8093C31.3589 30.8938 31.3606 30.9781 31.3606 31.0623V31.0629C31.3606 36.4474 31.3606 41.8319 31.3606 47.2163C31.3606 47.2914 31.3595 47.3666 31.3591 47.4412C31.3586 47.5158 31.3591 47.5916 31.3609 47.6659C31.3749 48.137 31.1601 48.4772 30.7194 48.6113C30.2585 48.7515 29.8636 48.5941 29.6132 48.1683C29.0061 47.1343 28.4199 46.088 27.8031 45.06C27.3789 44.3531 26.6813 44.0802 25.8705 44.2537C25.5089 44.3288 25.183 44.523 24.9448 44.8052C24.7067 45.0874 24.5702 45.4414 24.5571 45.8105C24.5622 46.237 24.6764 46.655 24.889 47.0248C25.9978 49.0018 27.1467 50.9569 28.2802 52.9197" fill="#FEDA87"/>
<path d="M17.1939 16.317C17.92 14.3431 19.4627 13.6852 19.4627 13.6852L22.0038 11.6886L28.2656 13.0499L30.8974 15.7724L32.3494 21.0359L29.8991 25.3927L25.4523 27.8429L19.4627 26.6633L16.5587 21.5812C16.5587 21.5812 16.4679 18.2909 17.1939 16.317Z" fill="#FEDA87"/>
<path d="M6.73494 12.872C6.31004 13.2852 5.89822 13.686 5.41816 14.1529L4.51459 13.0249L4.34493 13.1195V23.3786H2.53618V13.1406L2.38399 13.0544L1.44642 14.2423C0.932247 13.708 0.543666 13.3045 0 12.7396C0.364757 12.4389 0.766983 12.1408 1.12943 11.8003C1.67587 11.2868 2.18681 10.7355 2.72793 10.2159C3.15398 9.80662 3.63219 9.76244 4.03037 10.1482C4.944 11.0341 5.8257 11.9525 6.73494 12.872Z" fill="#006BB1"/>
<path d="M48.134 12.8634C47.7256 13.2834 47.3244 13.6954 46.8575 14.1763L45.9125 13.0408L45.7612 13.1189V23.3832H43.9524V12.955L42.866 14.1944L41.6278 12.8235C42.48 11.9517 43.3862 10.9861 44.3403 10.0704C44.6506 9.77259 45.1065 9.81203 45.4214 10.1201C46.3443 11.0228 47.2385 11.9539 48.134 12.8634Z" fill="#006BB1"/>
<path d="M4.28735 26.9877H2.56071V25.2513H4.28735V26.9877Z" fill="#006BB1"/>
<path d="M45.7037 26.9871H43.975V25.26H45.7037V26.9871Z" fill="#006BB1"/>
<path d="M45.705 30.5882H43.9738V28.8611H45.705V30.5882Z" fill="#006BB1"/>
<path d="M16.2229 43.211C16.503 42.7175 16.7285 42.3142 16.9594 41.9138C17.9693 40.1625 19.0046 38.4249 19.9855 36.6574C21.1703 34.5224 20.0656 31.9695 17.7232 31.3461C16.1747 30.9338 14.5533 31.6152 13.6871 33.0792C12.7907 34.5936 11.9241 36.1256 11.0423 37.6486C10.944 37.8185 10.8323 37.9804 10.6375 38.2857V37.5857C10.6375 27.269 10.6375 16.9523 10.6375 6.63557C10.6375 3.7159 12.5366 1.81474 15.4526 1.81416C21.2487 1.81308 27.0448 1.81308 32.8409 1.81416C35.7155 1.81497 37.6251 3.72861 37.625 6.61047C37.6244 16.7958 37.6227 26.9812 37.6199 37.1666C37.6199 37.9652 37.6199 37.9652 36.7587 38.1672C36.7587 35.7426 36.7643 33.3266 36.7532 30.9105C36.7597 30.4995 36.7179 30.0891 36.6286 29.6878C36.1982 27.9409 34.466 26.7863 32.663 27.0141C31.8 27.1267 31.0069 27.5475 30.43 28.199C29.853 28.8505 29.5312 29.6887 29.5238 30.559C29.5161 34.5355 29.5152 38.5121 29.5212 42.4889V43.3463C29.0213 43.1743 28.593 43.0951 28.2355 42.8917C26.9071 42.136 25.6155 42.1388 24.3016 42.9236C24.0226 43.0916 23.7056 43.1861 23.3802 43.1981C21.0361 43.221 18.692 43.211 16.2229 43.211ZM24.1508 10.7915C22.9641 10.7867 21.7883 11.0164 20.6908 11.4677C19.5933 11.9189 18.5959 12.5827 17.7559 13.4209C16.9159 14.259 16.2499 15.255 15.7963 16.3515C15.3426 17.448 15.1103 18.6233 15.1126 19.81C15.1156 24.8335 19.1509 28.8395 24.2045 28.8356C29.1746 28.8315 33.1618 24.7775 33.1569 19.734C33.1518 14.8261 29.0825 10.7858 24.1506 10.7914L24.1508 10.7915ZM24.1255 36.0067C23.5257 36.0067 22.9256 36.003 22.3255 36.0074C21.608 36.0081 20.9199 36.2929 20.4117 36.7994C19.9036 37.306 19.6166 37.9931 19.6137 38.7107C19.6107 39.4282 19.892 40.1177 20.396 40.6284C20.9 41.1391 21.5857 41.4295 22.3031 41.4361C23.5219 41.4447 24.7406 41.4447 25.9594 41.4361C26.6734 41.4302 27.3564 41.1432 27.8603 40.6373C28.3641 40.1313 28.6484 39.4472 28.6513 38.7332C28.6543 38.0191 28.3758 37.3327 27.8761 36.8226C27.3764 36.3125 26.6959 36.0198 25.9819 36.008C25.3631 36.0009 24.7443 36.0067 24.1254 36.0066L24.1255 36.0067ZM20.536 5.37592H27.7081V3.62684H20.536V5.37592ZM18.7183 3.62268H16.9488V5.37997H18.7183V3.62268Z" fill="white"/>
<path d="M24.1506 10.7913C29.0825 10.7857 33.1517 14.826 33.1567 19.7333C33.1617 24.7774 29.1743 28.8313 24.2043 28.8349C19.1504 28.8388 15.1153 24.8329 15.1123 19.8093C15.1101 18.6227 15.3425 17.4474 15.7962 16.3509C16.2499 15.2545 16.9159 14.2586 17.7559 13.4205C18.5959 12.5824 19.5933 11.9186 20.6907 11.4674C21.7882 11.0162 22.9641 10.7864 24.1506 10.7913ZM31.3054 19.8455C31.315 15.9272 28.0859 12.6595 24.1814 12.6364C20.2451 12.6133 16.9689 15.863 16.9584 19.8018C16.9479 23.727 20.2277 26.9958 24.1646 26.9836C28.0333 26.9723 31.2958 23.7107 31.3054 19.8455Z" fill="#006BB1"/>
<path d="M24.1253 36.0067C24.7442 36.0067 25.3628 36.0008 25.9816 36.0079C26.6956 36.0197 27.3761 36.3123 27.8758 36.8224C28.3755 37.3325 28.654 38.019 28.651 38.7331C28.6481 39.4471 28.3638 40.1312 27.8599 40.6372C27.3561 41.1431 26.6731 41.4301 25.9591 41.436C24.7405 41.4445 23.5218 41.4445 22.3028 41.436C21.5853 41.4294 20.8997 41.139 20.3957 40.6283C19.8917 40.1175 19.6104 39.428 19.6134 38.7105C19.6163 37.993 19.9033 37.3059 20.4114 36.7993C20.9196 36.2927 21.6076 36.008 22.3252 36.0073C22.9254 36.0028 23.5255 36.0065 24.1253 36.0067ZM24.1323 37.8245C23.5518 37.8245 22.9712 37.8119 22.3912 37.8281C21.816 37.8441 21.4371 38.2127 21.4362 38.7205C21.4352 39.2283 21.8148 39.6077 22.3891 39.6152C23.5496 39.6306 24.7103 39.6306 25.8712 39.6152C26.4448 39.6078 26.8263 39.2282 26.8268 38.7226C26.8273 38.217 26.4464 37.8437 25.8732 37.8279C25.2934 37.8116 24.7131 37.8244 24.1323 37.8244V37.8245Z" fill="#006BB1"/>
<path d="M20.5361 5.3759V3.62671H27.7076V5.3759H20.5361Z" fill="#006BB1"/>
<path d="M18.7182 3.62317V5.38045H16.9487V3.62317H18.7182Z" fill="#006BB1"/>
<path d="M24.1324 37.8244C24.7126 37.8244 25.2935 37.8117 25.8732 37.828C26.4466 37.8442 26.8273 38.216 26.8269 38.7227C26.8264 39.2293 26.4452 39.6078 25.8713 39.6152C24.7106 39.6301 23.5499 39.6301 22.3892 39.6152C21.815 39.6077 21.4353 39.2276 21.4362 38.7206C21.4372 38.2136 21.816 37.8442 22.3913 37.8281C22.9712 37.8118 23.5519 37.8244 24.1324 37.8244Z" fill="white"/>
<path d="M21.2277 15.5428H27.505V15.5552C27.3131 15.8553 27.1039 16.144 26.8786 16.4198H25.2017C25.4369 16.6843 25.5989 17.0058 25.6714 17.3523H27.4594C27.4811 17.3564 27.492 17.3646 27.492 17.377C27.0918 17.9452 26.8874 18.2293 26.879 18.2293H25.7171C25.691 18.5215 25.5431 18.8735 25.2734 19.2852C24.9166 19.701 24.5752 19.9709 24.249 20.0948C23.7024 20.356 23.1063 20.4969 22.5007 20.5081V20.5205C22.5007 20.5617 23.7601 21.9759 26.2788 24.7632H24.6143C22.1608 22.0582 20.9341 20.6993 20.9341 20.6867V19.8656L20.9472 19.8347C21.2004 19.8656 21.4554 19.8801 21.7105 19.878C23.0851 19.878 23.9399 19.4559 24.2749 18.6119C24.3266 18.4909 24.3532 18.3606 24.3532 18.229H20.6209C20.6035 18.229 20.5948 18.2208 20.5948 18.2043C21.008 17.6361 21.219 17.3521 21.2277 17.3521H24.1902V17.3397C24.0206 17.0144 23.6921 16.7612 23.2049 16.5801C22.9013 16.4805 22.5847 16.4264 22.2652 16.4196H20.6079V16.3887C21.0081 15.8248 21.2147 15.5428 21.2277 15.5428Z" fill="#006BB1"/>
</svg>
